{
.appVersion = "1032";
copyright = "Copyright © 2017 by Unknow Designer, Davit Samsonidze. All rights reserved.";
customParameters = (
{
name = description;
value = "Given font represents one of the georgian font made at 1910 year in Paris. Development of the font was done by GeoLab’s Font-Engineering team. GeoLab is a company working on Innovative Technology projects in Georgia who joined the overall campaign actively and fulfilled several projects. Font-Engineer of this font is David Samsonidze.";
},
{
name = note;
value = "Font Engineer DAVID SAMSONIDZE";
}
);
date = "2017-06-04 13:56:20 +0000";
designer = "Unknow Designer, David Samsonidze";
familyName = "GL Parizuli";
featurePrefixes = (
{
automatic = 1;
code = "languagesystem DFLT dflt;\012";
name = Languagesystems;
}
);
features = (
{
automatic = 1;
code = "feature ordn;\012feature salt;\012feature ss01;\012";
name = aalt;
},
{
automatic = 1;
code = "sub [zero one two three four five six seven eight nine] [A a]' by ordfeminine;\012sub [zero one two three four five six seven eight nine] [O o]' by ordmasculine;\012";
name = ordn;
},
{
automatic = 1;
code = "sub hae-georgian by hae-georgian.ss01;\012";
name = salt;
},
{
automatic = 1;
code = "sub hae-georgian by hae-georgian.ss01;\012";
name = ss01;
}
);
fontMaster = (
{
alignmentZones = (
"{710, 12}",
"{690, 12}",
"{420, 12}",
"{0, -12}",
"{-300, -12}"
);
ascender = 710;
capHeight = 690;
descender = -300;
id = "9ECE4C5B-AE6E-45F8-855F-54F501A6946D";
userData = {
GSOffsetHorizontal = -20;
GSOffsetVertical = 1;
};
visible = 1;
weightValue = 75;
xHeight = 420;
},
{
alignmentZones = (
"{710, 15}",
"{690, 15}",
"{420, 15}",
"{0, -15}",
"{-300, -15}"
);
ascender = 710;
capHeight = 690;
descender = -300;
id = "6701A4D5-8A3D-41DD-8AA0-CFF5D98C5FFE";
weight = Bold;
weightValue = 135;
xHeight = 420;
}
);
glyphs = (
{
glyphname = A;
lastChange = "2017-06-04 12:55:10 +0000";
layers = (
{
layerId = "9ECE4C5B-AE6E-45F8-855F-54F501A6946D";
paths = (
{
closed = 1;
nodes = (
"320 0 LINE",
"320 32 LINE",
"259 32 LINE SMOOTH",
"223 32 OFFCURVE",
"210 58 OFFCURVE",
"210 87 CURVE SMOOTH",
"210 99 OFFCURVE",
"215 118 OFFCURVE",
"224 145 CURVE SMOOTH",
"248 212 LINE",
"482 212 LINE",
"529 79 LINE",
"532 73 OFFCURVE",
"533 66 OFFCURVE",
"533 57 CURVE SMOOTH",
"533 44 OFFCURVE",
"518 32 OFFCURVE",
"498 32 CURVE SMOOTH",
"432 32 LINE",
"432 0 LINE",
"742 0 LINE",
"742 32 LINE",
"686 32 LINE SMOOTH",
"657 32 OFFCURVE",
"639 43 OFFCURVE",
"626 76 CURVE",
"409 712 LINE",
"384 712 LINE",
"169 105 LINE SMOOTH",
"151 56 OFFCURVE",
"122 32 OFFCURVE",
"83 32 CURVE SMOOTH",
"46 32 LINE",
"46 0 LINE"
);
},
{
closed = 1;
nodes = (
"471 244 LINE",
"259 244 LINE",
"367 549 LINE"
);
}
);
width = 764;
},
{
layerId = "6701A4D5-8A3D-41DD-8AA0-CFF5D98C5FFE";
paths = (
{
closed = 1;
nodes = (
"299 0 LINE",
"299 32 LINE",
"252 32 LINE SMOOTH",
"221 32 OFFCURVE",
"200 53 OFFCURVE",
"200 77 CURVE SMOOTH",
"200 92 OFFCURVE",
"204 109 OFFCURVE",
"211 128 CURVE SMOOTH",
"232 189 LINE",
"442 189 LINE",
"474 93 LINE SMOOTH",
"478 81 OFFCURVE",
"480 71 OFFCURVE",
"480 64 CURVE SMOOTH",
"480 47 OFFCURVE",
"469 32 OFFCURVE",
"453 32 CURVE SMOOTH",
"381 32 LINE",
"381 0 LINE",
"732 0 LINE",
"732 32 LINE",
"692 32 LINE SMOOTH",
"664 32 OFFCURVE",
"644 49 OFFCURVE",
"633 83 CURVE SMOOTH",
"419 730 LINE",
"377 730 LINE",
"166 113 LINE SMOOTH",
"150 68 OFFCURVE",
"118 32 OFFCURVE",
"78 32 CURVE SMOOTH",
"44 32 LINE",
"44 0 LINE"
);
},
{
closed = 1;
nodes = (
"430 226 LINE",
"245 226 LINE",
"339 501 LINE"
);
}
);
width = 754;
}
);
leftKerningGroup = A;
note = A;
rightKerningGroup = A;
unicode = 0041;
},
{
glyphname = Aacute;
lastChange = "2017-06-04 12:55:10 +0000";
layers = (
{
layerId = "9ECE4C5B-AE6E-45F8-855F-54F501A6946D";
paths = (
{
closed = 1;
nodes = (
"512 863 LINE SMOOTH",
"531 877 OFFCURVE",
"540 892 OFFCURVE",
"540 907 CURVE SMOOTH",
"540 926 OFFCURVE",
"529 938 OFFCURVE",
"512 938 CURVE SMOOTH",
"493 938 OFFCURVE",
"480 930 OFFCURVE",
"463 906 CURVE SMOOTH",
"371 773 LINE",
"384 762 LINE"
);
},
{
closed = 1;
nodes = (
"320 0 LINE",
"320 32 LINE",
"259 32 LINE SMOOTH",
"223 32 OFFCURVE",
"210 58 OFFCURVE",
"210 87 CURVE SMOOTH",
"210 99 OFFCURVE",
"215 118 OFFCURVE",
"224 145 CURVE SMOOTH",
"248 212 LINE",
"482 212 LINE",
"529 79 LINE",
"532 73 OFFCURVE",
"533 66 OFFCURVE",
"533 57 CURVE SMOOTH",
"533 44 OFFCURVE",
"518 32 OFFCURVE",
"498 32 CURVE SMOOTH",
"432 32 LINE",
"432 0 LINE",
"742 0 LINE",
"742 32 LINE",
"686 32 LINE SMOOTH",
"657 32 OFFCURVE",
"639 43 OFFCURVE",
"626 76 CURVE",
"409 712 LINE",
"384 712 LINE",
"169 105 LINE SMOOTH",
"151 56 OFFCURVE",
"122 32 OFFCURVE",
"83 32 CURVE SMOOTH",
"46 32 LINE",
"46 0 LINE"
);
},
{
closed = 1;
nodes = (
"471 244 LINE",
"259 244 LINE",
"367 549 LINE"
);
}
);
width = 764;
},
{
layerId = "6701A4D5-8A3D-41DD-8AA0-CFF5D98C5FFE";
paths = (
{
closed = 1;
nodes = (
"516 860 LINE SMOOTH",
"535 874 OFFCURVE",
"544 890 OFFCURVE",
"544 908 CURVE SMOOTH",
"544 932 OFFCURVE",
"526 948 OFFCURVE",
"502 948 CURVE SMOOTH",
"483 948 OFFCURVE",
"468 940 OFFCURVE",
"453 916 CURVE SMOOTH",
"364 778 LINE",
"384 760 LINE"
);
},
{
closed = 1;
nodes = (
"299 0 LINE",
"299 32 LINE",
"252 32 LINE SMOOTH",
"221 32 OFFCURVE",
"200 53 OFFCURVE",
"200 77 CURVE SMOOTH",
"200 92 OFFCURVE",
"204 109 OFFCURVE",
"211 128 CURVE SMOOTH",
"232 189 LINE",
"442 189 LINE",
"474 93 LINE SMOOTH",
"478 81 OFFCURVE",
"480 71 OFFCURVE",
"480 64 CURVE SMOOTH",
"480 47 OFFCURVE",
"469 32 OFFCURVE",
"453 32 CURVE SMOOTH",
"381 32 LINE",
"381 0 LINE",
"732 0 LINE",
"732 32 LINE",
"692 32 LINE SMOOTH",
"664 32 OFFCURVE",
"644 49 OFFCURVE",
"633 83 CURVE SMOOTH",
"419 730 LINE",
"377 730 LINE",
"166 113 LINE SMOOTH",
"150 68 OFFCURVE",
"118 32 OFFCURVE",
"78 32 CURVE SMOOTH",
"44 32 LINE",
"44 0 LINE"
);
},
{
closed = 1;
nodes = (
"430 226 LINE",
"245 226 LINE",
"339 501 LINE"
);
}
);
width = 754;
}
);
leftKerningGroup = A;
note = Aacute;
rightKerningGroup = A;
unicode = 00C1;
},
{
glyphname = Acircumflex;
lastChange = "2017-06-04 12:55:10 +0000";
layers = (
{
layerId = "9ECE4C5B-AE6E-45F8-855F-54F501A6946D";
paths = (
{
closed = 1;
nodes = (
"283 774 OFFCURVE",
"355 821 OFFCURVE",
"396 858 CURVE",
"437 821 OFFCURVE",
"509 774 OFFCURVE",
"544 762 CURVE",
"554 778 LINE",
"493 813 OFFCURVE",
"447 860 OFFCURVE",
"416 920 CURVE",
"376 920 LINE",
"345 860 OFFCURVE",
"299 813 OFFCURVE",
"238 778 CURVE",
"248 762 LINE"
);
},
{
closed = 1;
nodes = (
"320 0 LINE",
"320 32 LINE",
"259 32 LINE SMOOTH",
"223 32 OFFCURVE",
"210 58 OFFCURVE",
"210 87 CURVE SMOOTH",
"210 99 OFFCURVE",
"215 118 OFFCURVE",
"224 145 CURVE SMOOTH",
"248 212 LINE",
"482 212 LINE",
"529 79 LINE",
"532 73 OFFCURVE",
"533 66 OFFCURVE",
"533 57 CURVE SMOOTH",
"533 44 OFFCURVE",
"518 32 OFFCURVE",
"498 32 CURVE SMOOTH",
"432 32 LINE",
"432 0 LINE",
"742 0 LINE",
"742 32 LINE",
"686 32 LINE SMOOTH",
"657 32 OFFCURVE",
"639 43 OFFCURVE",
"626 76 CURVE",
"409 712 LINE",
"384 712 LINE",
"169 105 LINE SMOOTH",
"151 56 OFFCURVE",
"122 32 OFFCURVE",
"83 32 CURVE SMOOTH",
"46 32 LINE",
"46 0 LINE"
);
},
{
closed = 1;
nodes = (
"471 244 LINE",
"259 244 LINE",
"367 549 LINE"
);
}
);
width = 764;
},
{
layerId = "6701A4D5-8A3D-41DD-8AA0-CFF5D98C5FFE";
paths = (
{
closed = 1;
nodes = (
"297 782 OFFCURVE",
"333 802 OFFCURVE",
"396 842 CURVE",
"459 802 OFFCURVE",
"495 782 OFFCURVE",
"552 762 CURVE",
"564 786 LINE",
"498 819 OFFCURVE",
"449 867 OFFCURVE",
"416 930 CURVE",
"376 930 LINE",
"342 868 OFFCURVE",
"293 820 OFFCURVE",
"228 786 CURVE",
"240 762 LINE"
);
},
{
closed = 1;
nodes = (
"299 0 LINE",
"299 32 LINE",
"252 32 LINE SMOOTH",
"221 32 OFFCURVE",
"200 53 OFFCURVE",
"200 77 CURVE SMOOTH",
"200 92 OFFCURVE",
"204 109 OFFCURVE",
"211 128 CURVE SMOOTH",
"232 189 LINE",
"442 189 LINE",
"474 93 LINE SMOOTH",
"478 81 OFFCURVE",
"480 71 OFFCURVE",
"480 64 CURVE SMOOTH",
"480 47 OFFCURVE",
"469 32 OFFCURVE",
"453 32 CURVE SMOOTH",
"381 32 LINE",
"381 0 LINE",
"732 0 LINE",
"732 32 LINE",
"692 32 LINE SMOOTH",
"664 32 OFFCURVE",
"644 49 OFFCURVE",
"633 83 CURVE SMOOTH",
"419 730 LINE",
"377 730 LINE",
"166 113 LINE SMOOTH",
"150 68 OFFCURVE",
"118 32 OFFCURVE",
"78 32 CURVE SMOOTH",
"44 32 LINE",
"44 0 LINE"
);
},
{
closed = 1;
nodes = (
"430 226 LINE",
"245 226 LINE",
"339 501 LINE"
);
}
);
width = 754;
}
);
leftKerningGroup = A;
note = Acircumflex;
rightKerningGroup = A;
unicode = 00C2;
},
{
glyphname = Adieresis;
lastChange = "2017-06-04 12:55:10 +0000";
layers = (
{
layerId = "9ECE4C5B-AE6E-45F8-855F-54F501A6946D";
paths = (
{
closed = 1;
nodes = (
"325 798 OFFCURVE",
"346 821 OFFCURVE",
"346 850 CURVE SMOOTH",
"346 881 OFFCURVE",
"325 902 OFFCURVE",
"294 902 CURVE SMOOTH",
"265 902 OFFCURVE",
"242 881 OFFCURVE",
"242 850 CURVE SMOOTH",
"242 821 OFFCURVE",
"265 798 OFFCURVE",
"294 798 CURVE SMOOTH"
);
},
{
closed = 1;
nodes = (
"529 798 OFFCURVE",
"550 821 OFFCURVE",
"550 850 CURVE SMOOTH",
"550 881 OFFCURVE",
"529 902 OFFCURVE",
"498 902 CURVE SMOOTH",
"469 902 OFFCURVE",
"446 881 OFFCURVE",
"446 850 CURVE SMOOTH",
"446 821 OFFCURVE",
"469 798 OFFCURVE",
"498 798 CURVE SMOOTH"
);
},
{
closed = 1;
nodes = (
"320 0 LINE",
"320 32 LINE",
"259 32 LINE SMOOTH",
"223 32 OFFCURVE",
"210 58 OFFCURVE",
"210 87 CURVE SMOOTH",
"210 99 OFFCURVE",
"215 118 OFFCURVE",
"224 145 CURVE SMOOTH",
"248 212 LINE",
"482 212 LINE",
"529 79 LINE",
"532 73 OFFCURVE",
"533 66 OFFCURVE",
"533 57 CURVE SMOOTH",
"533 44 OFFCURVE",
"518 32 OFFCURVE",
"498 32 CURVE SMOOTH",
"432 32 LINE",
"432 0 LINE",
"742 0 LINE",
"742 32 LINE",
"686 32 LINE SMOOTH",
"657 32 OFFCURVE",
"639 43 OFFCURVE",
"626 76 CURVE",
"409 712 LINE",
"384 712 LINE",
"169 105 LINE SMOOTH",
"151 56 OFFCURVE",
"122 32 OFFCURVE",
"83 32 CURVE SMOOTH",
"46 32 LINE",
"46 0 LINE"
);
},
{
closed = 1;
nodes = (
"471 244 LINE",
"259 244 LINE",
"367 549 LINE"
);
}
);
width = 764;
},
{
layerId = "6701A4D5-8A3D-41DD-8AA0-CFF5D98C5FFE";
paths = (
{
closed = 1;
nodes = (
"323 794 OFFCURVE",
"350 821 OFFCURVE",
"350 854 CURVE SMOOTH",
"350 887 OFFCURVE",
"323 914 OFFCURVE",
"290 914 CURVE SMOOTH",
"257 914 OFFCURVE",
"230 887 OFFCURVE",
"230 854 CURVE SMOOTH",
"230 821 OFFCURVE",
"257 794 OFFCURVE",
"290 794 CURVE SMOOTH"
);
},
{
closed = 1;
nodes = (
"535 794 OFFCURVE",
"562 821 OFFCURVE",
"562 854 CURVE SMOOTH",
"562 887 OFFCURVE",
"535 914 OFFCURVE",
"502 914 CURVE SMOOTH",
"469 914 OFFCURVE",
"442 887 OFFCURVE",
"442 854 CURVE SMOOTH",
"442 821 OFFCURVE",
"469 794 OFFCURVE",
"502 794 CURVE SMOOTH"
);
},
{
closed = 1;
nodes = (
"299 0 LINE",
"299 32 LINE",
"252 32 LINE SMOOTH",
"221 32 OFFCURVE",
"200 53 OFFCURVE",
"200 77 CURVE SMOOTH",
"200 92 OFFCURVE",
"204 109 OFFCURVE",
"211 128 CURVE SMOOTH",
"232 189 LINE",
"442 189 LINE",
"474 93 LINE SMOOTH",
"478 81 OFFCURVE",
"480 71 OFFCURVE",
"480 64 CURVE SMOOTH",
"480 47 OFFCURVE",
"469 32 OFFCURVE",
"453 32 CURVE SMOOTH",
"381 32 LINE",
"381 0 LINE",
"732 0 LINE",
"732 32 LINE",
"692 32 LINE SMOOTH",
"664 32 OFFCURVE",
"644 49 OFFCURVE",
"633 83 CURVE SMOOTH",
"419 730 LINE",
"377 730 LINE",
"166 113 LINE SMOOTH",
"150 68 OFFCURVE",
"118 32 OFFCURVE",
"78 32 CURVE SMOOTH",
"44 32 LINE",
"44 0 LINE"
);
},
{
closed = 1;
nodes = (
"430 226 LINE",
"245 226 LINE",
"339 501 LINE"
);
}
);
width = 754;
}
);
leftKerningGroup = A;
note = Adieresis;
rightKerningGroup = A;
unicode = 00C4;
},
{
glyphname = Agrave;
lastChange = "2017-06-04 12:55:10 +0000";
layers = (
{
layerId = "9ECE4C5B-AE6E-45F8-855F-54F501A6946D";
paths = (
{
closed = 1;
nodes = (
"421 773 LINE",
"329 906 LINE SMOOTH",
"312 930 OFFCURVE",
"299 938 OFFCURVE",
"280 938 CURVE SMOOTH",
"263 938 OFFCURVE",
"252 926 OFFCURVE",
"252 907 CURVE SMOOTH",
"252 892 OFFCURVE",
"261 877 OFFCURVE",
"280 863 CURVE SMOOTH",
"408 762 LINE"
);
},
{
closed = 1;
nodes = (
"320 0 LINE",
"320 32 LINE",
"259 32 LINE SMOOTH",
"223 32 OFFCURVE",
"210 58 OFFCURVE",
"210 87 CURVE SMOOTH",
"210 99 OFFCURVE",
"215 118 OFFCURVE",
"224 145 CURVE SMOOTH",
"248 212 LINE",
"482 212 LINE",
"529 79 LINE",
"532 73 OFFCURVE",
"533 66 OFFCURVE",
"533 57 CURVE SMOOTH",
"533 44 OFFCURVE",
"518 32 OFFCURVE",
"498 32 CURVE SMOOTH",
"432 32 LINE",
"432 0 LINE",
"742 0 LINE",
"742 32 LINE",
"686 32 LINE SMOOTH",
"657 32 OFFCURVE",
"639 43 OFFCURVE",
"626 76 CURVE",
"409 712 LINE",
"384 712 LINE",
"169 105 LINE SMOOTH",
"151 56 OFFCURVE",
"122 32 OFFCURVE",
"83 32 CURVE SMOOTH",
"46 32 LINE",
"46 0 LINE"
);
},
{
closed = 1;
nodes = (
"471 244 LINE",
"259 244 LINE",
"367 549 LINE"
);
}
);
width = 764;
},
{
layerId = "6701A4D5-8A3D-41DD-8AA0-CFF5D98C5FFE";
paths = (
{
closed = 1;
nodes = (
"427 778 LINE",
"338 916 LINE SMOOTH",
"323 940 OFFCURVE",
"308 948 OFFCURVE",
"289 948 CURVE SMOOTH",
"265 948 OFFCURVE",
"247 932 OFFCURVE",
"247 908 CURVE SMOOTH",
"247 890 OFFCURVE",
"256 874 OFFCURVE",
"275 860 CURVE SMOOTH",
"407 760 LINE"
);
},
{
closed = 1;
nodes = (
"299 0 LINE",
"299 32 LINE",
"252 32 LINE SMOOTH",
"221 32 OFFCURVE",
"200 53 OFFCURVE",
"200 77 CURVE SMOOTH",
"200 92 OFFCURVE",
"204 109 OFFCURVE",
"211 128 CURVE SMOOTH",
"232 189 LINE",
"442 189 LINE",
"474 93 LINE SMOOTH",
"478 81 OFFCURVE",
"480 71 OFFCURVE",
"480 64 CURVE SMOOTH",
"480 47 OFFCURVE",
"469 32 OFFCURVE",
"453 32 CURVE SMOOTH",
"381 32 LINE",
"381 0 LINE",
"732 0 LINE",
"732 32 LINE",
"692 32 LINE SMOOTH",
"664 32 OFFCURVE",
"644 49 OFFCURVE",
"633 83 CURVE SMOOTH",
"419 730 LINE",
"377 730 LINE",
"166 113 LINE SMOOTH",
"150 68 OFFCURVE",
"118 32 OFFCURVE",
"78 32 CURVE SMOOTH",
"44 32 LINE",
"44 0 LINE"
);
},
{
closed = 1;
nodes = (
"430 226 LINE",
"245 226 LINE",
"339 501 LINE"
);
}
);
width = 754;
}
);
leftKerningGroup = A;
note = Agrave;
rightKerningGroup = A;
unicode = 00C0;
},
{
glyphname = Aring;
lastChange = "2017-06-04 12:55:10 +0000";
layers = (
{
layerId = "9ECE4C5B-AE6E-45F8-855F-54F501A6946D";
paths = (
{
closed = 1;
nodes = (
"451 752 OFFCURVE",
"494 797 OFFCURVE",
"494 850 CURVE SMOOTH",
"494 905 OFFCURVE",
"451 948 OFFCURVE",
"396 948 CURVE SMOOTH",
"343 948 OFFCURVE",
"298 905 OFFCURVE",
"298 850 CURVE SMOOTH",
"298 797 OFFCURVE",
"343 752 OFFCURVE",
"396 752 CURVE SMOOTH"
);
},
{
closed = 1;
nodes = (
"355 776 OFFCURVE",
"322 809 OFFCURVE",
"322 850 CURVE SMOOTH",
"322 891 OFFCURVE",
"355 924 OFFCURVE",
"396 924 CURVE SMOOTH",
"437 924 OFFCURVE",
"470 891 OFFCURVE",
"470 850 CURVE SMOOTH",
"470 809 OFFCURVE",
"437 776 OFFCURVE",
"396 776 CURVE SMOOTH"
);
},
{
closed = 1;
nodes = (
"320 0 LINE",
"320 32 LINE",
"259 32 LINE SMOOTH",
"223 32 OFFCURVE",
"210 58 OFFCURVE",
"210 87 CURVE SMOOTH",
"210 99 OFFCURVE",
"215 118 OFFCURVE",
"224 145 CURVE SMOOTH",
"248 212 LINE",
"482 212 LINE",
"529 79 LINE",
"532 73 OFFCURVE",
"533 66 OFFCURVE",
"533 57 CURVE SMOOTH",
"533 44 OFFCURVE",
"518 32 OFFCURVE",
"498 32 CURVE SMOOTH",
"432 32 LINE",
"432 0 LINE",
"742 0 LINE",
"742 32 LINE",
"686 32 LINE SMOOTH",
"657 32 OFFCURVE",
"639 43 OFFCURVE",
"626 76 CURVE",
"409 712 LINE",
"384 712 LINE",
"169 105 LINE SMOOTH",
"151 56 OFFCURVE",
"122 32 OFFCURVE",
"83 32 CURVE SMOOTH",
"46 32 LINE",
"46 0 LINE"
);
},
{
closed = 1;
nodes = (
"471 244 LINE",
"259 244 LINE",
"367 549 LINE"
);
}
);
width = 764;
},
{
layerId = "6701A4D5-8A3D-41DD-8AA0-CFF5D98C5FFE";
paths = (
{
closed = 1;
nodes = (
"461 754 OFFCURVE",
"507 794 OFFCURVE",
"507 850 CURVE SMOOTH",
"507 906 OFFCURVE",
"461 946 OFFCURVE",
"396 946 CURVE SMOOTH",
"331 946 OFFCURVE",
"285 906 OFFCURVE",
"285 850 CURVE SMOOTH",
"285 794 OFFCURVE",
"331 754 OFFCURVE",
"396 754 CURVE SMOOTH"
);
},
{
closed = 1;
nodes = (
"357 798 OFFCURVE",
"329 818 OFFCURVE",
"329 850 CURVE SMOOTH",
"329 882 OFFCURVE",
"357 902 OFFCURVE",
"396 902 CURVE SMOOTH",
"435 902 OFFCURVE",
"463 882 OFFCURVE",
"463 850 CURVE SMOOTH",
"463 818 OFFCURVE",
"435 798 OFFCURVE",
"396 798 CURVE SMOOTH"
);
},
{
closed = 1;
nodes = (
"299 0 LINE",
"299 32 LINE",
"252 32 LINE SMOOTH",
"221 32 OFFCURVE",
"200 53 OFFCURVE",
"200 77 CURVE SMOOTH",
"200 92 OFFCURVE",
"204 109 OFFCURVE",
"211 128 CURVE SMOOTH",
"232 189 LINE",
"442 189 LINE",
"474 93 LINE SMOOTH",
"478 81 OFFCURVE",
"480 71 OFFCURVE",
"480 64 CURVE SMOOTH",
"480 47 OFFCURVE",
"469 32 OFFCURVE",
"453 32 CURVE SMOOTH",
"381 32 LINE",
"381 0 LINE",
"732 0 LINE",
"732 32 LINE",
"692 32 LINE SMOOTH",
"664 32 OFFCURVE",
"644 49 OFFCURVE",
"633 83 CURVE SMOOTH",
"419 730 LINE",
"377 730 LINE",
"166 113 LINE SMOOTH",
"150 68 OFFCURVE",
"118 32 OFFCURVE",
"78 32 CURVE SMOOTH",
"44 32 LINE",
"44 0 LINE"
);
},
{
closed = 1;
nodes = (
"430 226 LINE",
"245 226 LINE",
"339 501 LINE"
);
}
);
width = 754;
}
);
leftKerningGroup = A;
note = Aring;
rightKerningGroup = A;
unicode = 00C5;
},
{
glyphname = Atilde;
lastChange = "2017-06-04 12:57:30 +0000";
layers = (
{
layerId = "9ECE4C5B-AE6E-45F8-855F-54F501A6946D";
paths = (
{
closed = 1;
nodes = (
"265 835 OFFCURVE",
"280 850 OFFCURVE",
"304 850 CURVE SMOOTH",
"339 850 OFFCURVE",
"422 812 OFFCURVE",
"466 812 CURVE SMOOTH",
"517 812 OFFCURVE",
"548 853 OFFCURVE",
"552 904 CURVE",
"532 906 LINE",
"527 879 OFFCURVE",
"512 864 OFFCURVE",
"488 864 CURVE SMOOTH",
"453 864 OFFCURVE",
"370 902 OFFCURVE",
"326 902 CURVE SMOOTH",
"275 902 OFFCURVE",
"244 861 OFFCURVE",
"240 810 CURVE",
"260 808 LINE"
);
},
{
closed = 1;
nodes = (
"320 0 LINE",
"320 32 LINE",
"259 32 LINE SMOOTH",
"223 32 OFFCURVE",
"210 58 OFFCURVE",
"210 87 CURVE SMOOTH",
"210 99 OFFCURVE",
"215 118 OFFCURVE",
"224 145 CURVE SMOOTH",
"248 212 LINE",
"482 212 LINE",
"529 79 LINE",
"532 73 OFFCURVE",
"533 66 OFFCURVE",
"533 57 CURVE SMOOTH",
"533 44 OFFCURVE",
"518 32 OFFCURVE",
"498 32 CURVE SMOOTH",
"432 32 LINE",
"432 0 LINE",
"742 0 LINE",
"742 32 LINE",
"686 32 LINE SMOOTH",
"657 32 OFFCURVE",
"639 43 OFFCURVE",
"626 76 CURVE",
"409 712 LINE",
"384 712 LINE",
"169 105 LINE SMOOTH",
"151 56 OFFCURVE",
"122 32 OFFCURVE",
"83 32 CURVE SMOOTH",
"46 32 LINE",
"46 0 LINE"
);
},
{
closed = 1;
nodes = (
"471 244 LINE",
"259 244 LINE",
"367 549 LINE"
);
}
);
width = 764;
},
{
layerId = "6701A4D5-8A3D-41DD-8AA0-CFF5D98C5FFE";
paths = (
{
closed = 1;
nodes = (
"275 827 OFFCURVE",
"288 840 OFFCURVE",
"310 840 CURVE SMOOTH",
"368 840 OFFCURVE",
"395 804 OFFCURVE",
"456 804 CURVE SMOOTH",
"506 804 OFFCURVE",
"544 859 OFFCURVE",
"544 912 CURVE",
"522 912 LINE",
"517 885 OFFCURVE",
"504 872 OFFCURVE",
"482 872 CURVE SMOOTH",
"424 872 OFFCURVE",
"397 908 OFFCURVE",
"336 908 CURVE SMOOTH",
"283 908 OFFCURVE",
"248 852 OFFCURVE",
"248 800 CURVE",
"270 800 LINE"
);
},
{
closed = 1;
nodes = (
"299 0 LINE",
"299 32 LINE",
"252 32 LINE SMOOTH",
"221 32 OFFCURVE",
"200 53 OFFCURVE",
"200 77 CURVE SMOOTH",
"200 92 OFFCURVE",
"204 109 OFFCURVE",
"211 128 CURVE SMOOTH",
"232 189 LINE",
"442 189 LINE",
"474 93 LINE SMOOTH",
"478 81 OFFCURVE",
"480 71 OFFCURVE",
"480 64 CURVE SMOOTH",
"480 47 OFFCURVE",
"469 32 OFFCURVE",
"453 32 CURVE SMOOTH",
"381 32 LINE",
"381 0 LINE",
"732 0 LINE",
"732 32 LINE",
"692 32 LINE SMOOTH",
"664 32 OFFCURVE",
"644 49 OFFCURVE",
"633 83 CURVE SMOOTH",
"419 730 LINE",
"377 730 LINE",
"166 113 LINE SMOOTH",
"150 68 OFFCURVE",
"118 32 OFFCURVE",
"78 32 CURVE SMOOTH",
"44 32 LINE",
"44 0 LINE"
);
},
{
closed = 1;
nodes = (
"430 226 LINE",
"245 226 LINE",
"339 501 LINE"
);
}
);
width = 754;
}
);
leftKerningGroup = A;
note = Atilde;
rightKerningGroup = A;
unicode = 00C3;
},
{
glyphname = AE;
lastChange = "2017-06-04 12:58:35 +0000";
layers = (
{
layerId = "9ECE4C5B-AE6E-45F8-855F-54F501A6946D";
paths = (
{
closed = 1;
nodes = (
"296 0 LINE",
"296 32 LINE",
"249 32 LINE SMOOTH",
"212 32 OFFCURVE",
"205 54 OFFCURVE",
"205 85 CURVE SMOOTH",
"205 102 OFFCURVE",
"211 122 OFFCURVE",
"223 145 CURVE SMOOTH",
"259 212 LINE",
"475 212 LINE",
"475 59 LINE SMOOTH",
"475 41 OFFCURVE",
"466 32 OFFCURVE",
"448 32 CURVE SMOOTH",
"381 32 LINE",
"381 0 LINE",
"934 0 LINE",
"946 276 LINE",
"921 276 LINE",
"900 132 OFFCURVE",
"869 32 OFFCURVE",
"754 32 CURVE SMOOTH",
"594 32 LINE SMOOTH",
"576 32 OFFCURVE",
"567 41 OFFCURVE",
"567 59 CURVE SMOOTH",
"567 352 LINE",
"644 352 LINE SMOOTH",
"712 352 OFFCURVE",
"740 268 OFFCURVE",
"740 189 CURVE",
"766 189 LINE",
"766 547 LINE",
"740 547 LINE",
"740 468 OFFCURVE",
"712 384 OFFCURVE",
"644 384 CURVE SMOOTH",
"567 384 LINE",
"567 653 LINE SMOOTH",
"567 672 OFFCURVE",
"575 680 OFFCURVE",
"594 680 CURVE SMOOTH",
"753 680 LINE SMOOTH",
"863 680 OFFCURVE",
"913 569 OFFCURVE",
"913 462 CURVE",
"938 462 LINE",
"934 712 LINE",
"376 712 LINE",
"376 680 LINE",
"417 680 LINE SMOOTH",
"436 680 OFFCURVE",
"442 674 OFFCURVE",
"442 659 CURVE SMOOTH",
"442 646 OFFCURVE",
"436 629 OFFCURVE",
"425 608 CURVE SMOOTH",
"159 105 LINE SMOOTH",
"138 62 OFFCURVE",
"109 32 OFFCURVE",
"58 32 CURVE SMOOTH",
"26 32 LINE",
"26 0 LINE"
);
},
{
closed = 1;
nodes = (
"475 620 LINE",
"475 244 LINE",
"276 244 LINE"
);
}
);
width = 1004;
},
{
layerId = "6701A4D5-8A3D-41DD-8AA0-CFF5D98C5FFE";
paths = (
{
closed = 1;
nodes = (
"296 0 LINE",
"296 32 LINE",
"263 32 LINE SMOOTH",
"230 32 OFFCURVE",
"214 49 OFFCURVE",
"214 83 CURVE SMOOTH",
"214 99 OFFCURVE",
"228 139 OFFCURVE",
"243 166 CURVE SMOOTH",
"266 210 LINE",
"475 210 LINE",
"475 56 LINE SMOOTH",
"475 39 OFFCURVE",
"470 32 OFFCURVE",
"451 32 CURVE SMOOTH",
"381 32 LINE",
"381 0 LINE",
"952 0 LINE",
"958 276 LINE",
"926 276 LINE",
"919 168 OFFCURVE",
"858 32 OFFCURVE",
"757 32 CURVE SMOOTH",
"648 32 LINE SMOOTH",
"631 32 OFFCURVE",
"624 39 OFFCURVE",
"624 56 CURVE SMOOTH",
"624 344 LINE",
"675 344 LINE SMOOTH",
"732 344 OFFCURVE",
"775 265 OFFCURVE",
"775 205 CURVE",
"807 205 LINE",
"807 518 LINE",
"775 518 LINE",
"775 457 OFFCURVE",
"730 380 OFFCURVE",
"675 380 CURVE SMOOTH",
"624 380 LINE",
"624 656 LINE SMOOTH",
"624 675 OFFCURVE",
"631 680 OFFCURVE",
"648 680 CURVE SMOOTH",
"758 680 LINE SMOOTH",
"838 680 OFFCURVE",
"918 558 OFFCURVE",
"918 480 CURVE",
"950 480 LINE",
"944 712 LINE",
"376 712 LINE",
"376 680 LINE",
"405 680 LINE SMOOTH",
"424 680 OFFCURVE",
"434 669 OFFCURVE",
"434 654 CURVE SMOOTH",
"434 637 OFFCURVE",
"428 623 OFFCURVE",
"412 591 CURVE SMOOTH",
"171 120 LINE SMOOTH",
"144 69 OFFCURVE",
"97 32 OFFCURVE",
"49 32 CURVE SMOOTH",
"26 32 LINE",
"26 0 LINE"
);
},
{
closed = 1;
nodes = (
"475 620 LINE",
"475 246 LINE",
"283 246 LINE"
);
}
);
width = 1004;
}
);
leftKerningGroup = AE;
note = AE;
unicode = 00C6;
},
{
glyphname = B;
lastChange = "2017-06-04 12:55:10 +0000";
layers = (
{
layerId = "9ECE4C5B-AE6E-45F8-855F-54F501A6946D";
paths = (
{
closed = 1;
nodes = (
"399 0 LINE SMOOTH",
"442 0 OFFCURVE",
"481 8 OFFCURVE",
"517 23 CURVE SMOOTH",
"588 53 OFFCURVE",
"634 113 OFFCURVE",
"634 194 CURVE SMOOTH",
"634 227 OFFCURVE",
"625 256 OFFCURVE",
"608 282 CURVE SMOOTH",
"572 334 OFFCURVE",
"514 365 OFFCURVE",
"459 369 CURVE",
"459 373 LINE",
"540 390 OFFCURVE",
"612 451 OFFCURVE",
"612 542 CURVE SMOOTH",
"612 575 OFFCURVE",
"602 604 OFFCURVE",
"581 630 CURVE SMOOTH",
"540 681 OFFCURVE",
"467 712 OFFCURVE",
"388 712 CURVE SMOOTH",
"62 712 LINE",
"62 680 LINE",
"134 680 LINE SMOOTH",
"153 680 OFFCURVE",
"161 672 OFFCURVE",
"161 653 CURVE SMOOTH",
"161 59 LINE SMOOTH",
"161 41 OFFCURVE",
"152 32 OFFCURVE",
"134 32 CURVE SMOOTH",
"62 32 LINE",
"62 0 LINE"
);
},
{
closed = 1;
nodes = (
"253 653 LINE SMOOTH",
"253 672 OFFCURVE",
"261 680 OFFCURVE",
"280 680 CURVE SMOOTH",
"392 680 LINE SMOOTH",
"467 680 OFFCURVE",
"524 622 OFFCURVE",
"524 542 CURVE SMOOTH",
"524 447 OFFCURVE",
"492 388 OFFCURVE",
"384 388 CURVE SMOOTH",
"253 388 LINE"
);
},
{
closed = 1;
nodes = (
"262 32 OFFCURVE",
"253 41 OFFCURVE",
"253 59 CURVE SMOOTH",
"253 356 LINE",
"388 356 LINE SMOOTH",
"469 356 OFFCURVE",
"528 313 OFFCURVE",
"528 194 CURVE SMOOTH",
"528 75 OFFCURVE",
"469 32 OFFCURVE",
"388 32 CURVE SMOOTH",
"280 32 LINE SMOOTH"
);
}
);
width = 690;
},
{
layerId = "6701A4D5-8A3D-41DD-8AA0-CFF5D98C5FFE";
paths = (
{
closed = 1;
nodes = (
"427 0 LINE SMOOTH",
"470 0 OFFCURVE",
"509 8 OFFCURVE",
"545 23 CURVE SMOOTH",
"616 53 OFFCURVE",
"662 113 OFFCURVE",
"662 194 CURVE SMOOTH",
"662 227 OFFCURVE",
"652 255 OFFCURVE",
"633 280 CURVE SMOOTH",
"594 329 OFFCURVE",
"530 360 OFFCURVE",
"469 369 CURVE",
"469 375 LINE",
"564 400 OFFCURVE",
"638 454 OFFCURVE",
"638 542 CURVE SMOOTH",
"638 575 OFFCURVE",
"628 604 OFFCURVE",
"607 630 CURVE SMOOTH",
"566 681 OFFCURVE",
"493 712 OFFCURVE",
"414 712 CURVE SMOOTH",
"62 712 LINE",
"62 680 LINE",
"132 680 LINE SMOOTH",
"151 680 OFFCURVE",
"156 675 OFFCURVE",
"156 656 CURVE SMOOTH",
"156 56 LINE SMOOTH",
"156 39 OFFCURVE",
"151 32 OFFCURVE",
"132 32 CURVE SMOOTH",
"62 32 LINE",
"62 0 LINE"
);
},
{
closed = 1;
nodes = (
"304 656 LINE SMOOTH",
"304 675 OFFCURVE",
"311 680 OFFCURVE",
"328 680 CURVE SMOOTH",
"402 680 LINE SMOOTH",
"455 680 OFFCURVE",
"488 629 OFFCURVE",
"488 542 CURVE SMOOTH",
"488 439 OFFCURVE",
"468 388 OFFCURVE",
"396 388 CURVE SMOOTH",
"304 388 LINE"
);
},
{
closed = 1;
nodes = (
"311 32 OFFCURVE",
"304 39 OFFCURVE",
"304 56 CURVE SMOOTH",
"304 356 LINE",
"396 356 LINE SMOOTH",
"467 356 OFFCURVE",
"502 315 OFFCURVE",
"502 194 CURVE SMOOTH",
"502 73 OFFCURVE",
"467 32 OFFCURVE",
"396 32 CURVE SMOOTH",
"328 32 LINE SMOOTH"
);
}
);
width = 710;
}
);
note = B;
rightKerningGroup = B;
unicode = 0042;
},
{
glyphname = C;
lastChange = "2017-06-04 13:26:34 +0000";
layers = (
{
layerId = "9ECE4C5B-AE6E-45F8-855F-54F501A6946D";
paths = (
{
closed = 1;
nodes = (
"519 -18 OFFCURVE",
"598 102 OFFCURVE",
"606 259 CURVE",
"570 259 LINE",
"561 123 OFFCURVE",
"494 14 OFFCURVE",
"366 14 CURVE SMOOTH",
"222 14 OFFCURVE",
"176 137 OFFCURVE",
"176 362 CURVE SMOOTH",
"176 581 OFFCURVE",
"223 698 OFFCURVE",
"350 698 CURVE SMOOTH",
"445 698 OFFCURVE",
"527 583 OFFCURVE",
"566 412 CURVE",
"594 412 LINE",
"590 722 LINE",
"565 722 LINE",
"546 666 LINE SMOOTH",
"541 651 OFFCURVE",
"538 645 OFFCURVE",
"527 645 CURVE SMOOTH",
"514 645 OFFCURVE",
"428 730 OFFCURVE",
"348 730 CURVE SMOOTH",
"180 730 OFFCURVE",
"70 572 OFFCURVE",
"70 362 CURVE SMOOTH",
"70 166 OFFCURVE",
"178 -18 OFFCURVE",
"366 -18 CURVE SMOOTH"
);
}
);
width = 670;
},
{
layerId = "6701A4D5-8A3D-41DD-8AA0-CFF5D98C5FFE";
paths = (
{
closed = 1;
nodes = (
"530 -18 OFFCURVE",
"601 117 OFFCURVE",
"612 275 CURVE",
"576 275 LINE",
"563 143 OFFCURVE",
"519 14 OFFCURVE",
"360 14 CURVE SMOOTH",
"274 14 OFFCURVE",
"240 59 OFFCURVE",
"240 351 CURVE",
"240 649 OFFCURVE",
"266 698 OFFCURVE",
"350 698 CURVE SMOOTH",
"449 698 OFFCURVE",
"529 587 OFFCURVE",
"560 415 CURVE",
"592 415 LINE",
"592 722 LINE",
"559 722 LINE",
"541 685 LINE",
"536 672 OFFCURVE",
"530 666 OFFCURVE",
"519 666 CURVE SMOOTH",
"500 666 OFFCURVE",
"415 730 OFFCURVE",
"350 730 CURVE SMOOTH",
"182 730 OFFCURVE",
"70 566 OFFCURVE",
"70 356 CURVE SMOOTH",
"70 184 OFFCURVE",
"155 -18 OFFCURVE",
"360 -18 CURVE SMOOTH"
);
}
);
width = 660;
}
);
leftKerningGroup = C;
note = C;
rightKerningGroup = C;
unicode = 0043;
},
{
glyphname = Ccedilla;
lastChange = "2017-06-04 13:27:09 +0000";
layers = (
{
layerId = "9ECE4C5B-AE6E-45F8-855F-54F501A6946D";
paths = (
{
closed = 1;
nodes = (
"449 -238 OFFCURVE",
"484 -193 OFFCURVE",
"484 -137 CURVE SMOOTH",
"484 -85 OFFCURVE",
"442 -56 OFFCURVE",
"390 -56 CURVE SMOOTH",
"359 -56 LINE",
"366 -18 LINE",
"519 -18 OFFCURVE",
"598 102 OFFCURVE",
"606 259 CURVE",
"570 259 LINE",
"561 123 OFFCURVE",
"494 14 OFFCURVE",
"366 14 CURVE SMOOTH",
"222 14 OFFCURVE",
"176 137 OFFCURVE",
"176 362 CURVE SMOOTH",
"176 581 OFFCURVE",
"223 698 OFFCURVE",
"350 698 CURVE SMOOTH",
"445 698 OFFCURVE",
"527 583 OFFCURVE",
"566 412 CURVE",
"594 412 LINE",
"590 722 LINE",
"565 722 LINE",
"546 666 LINE SMOOTH",
"541 651 OFFCURVE",
"538 645 OFFCURVE",
"527 645 CURVE SMOOTH",
"514 645 OFFCURVE",
"428 730 OFFCURVE",
"348 730 CURVE SMOOTH",
"180 730 OFFCURVE",
"70 572 OFFCURVE",
"70 362 CURVE SMOOTH",
"70 203 OFFCURVE",
"151 1 OFFCURVE",
"340 -17 CURVE",
"323 -112 LINE",
"372 -112 LINE SMOOTH",
"417 -112 OFFCURVE",
"440 -129 OFFCURVE",
"440 -164 CURVE SMOOTH",
"440 -195 OFFCURVE",
"420 -214 OFFCURVE",
"379 -214 CURVE SMOOTH",
"351 -214 OFFCURVE",
"331 -198 OFFCURVE",
"327 -173 CURVE SMOOTH",
"323 -150 OFFCURVE",
"312 -138 OFFCURVE",
"295 -138 CURVE SMOOTH",
"279 -138 OFFCURVE",
"268 -152 OFFCURVE",
"268 -168 CURVE SMOOTH",
"268 -212 OFFCURVE",
"315 -238 OFFCURVE",
"366 -238 CURVE SMOOTH"
);
}
);
width = 670;
},
{
layerId = "6701A4D5-8A3D-41DD-8AA0-CFF5D98C5FFE";
paths = (
{
closed = 1;
nodes = (
"440 -238 OFFCURVE",
"479 -193 OFFCURVE",
"479 -132 CURVE SMOOTH",
"479 -85 OFFCURVE",
"440 -47 OFFCURVE",
"388 -47 CURVE SMOOTH",
"355 -47 LINE",
"359 -18 LINE",
"538 -18 OFFCURVE",
"602 127 OFFCURVE",
"612 275 CURVE",
"576 275 LINE",
"563 143 OFFCURVE",
"519 14 OFFCURVE",
"360 14 CURVE SMOOTH",
"275 14 OFFCURVE",
"240 60 OFFCURVE",
"240 347 CURVE",
"240 650 OFFCURVE",
"266 698 OFFCURVE",
"350 698 CURVE SMOOTH",
"449 698 OFFCURVE",
"529 587 OFFCURVE",
"560 415 CURVE",
"592 415 LINE",
"592 722 LINE",
"559 722 LINE",
"541 685 LINE",
"536 672 OFFCURVE",
"530 666 OFFCURVE",
"519 666 CURVE SMOOTH",
"500 666 OFFCURVE",
"415 730 OFFCURVE",
"350 730 CURVE SMOOTH",
"182 730 OFFCURVE",
"70 566 OFFCURVE",
"70 356 CURVE SMOOTH",
"70 199 OFFCURVE",
"143 3 OFFCURVE",
"330 -17 CURVE",
"316 -111 LINE",
"369 -111 LINE SMOOTH",
"408 -111 OFFCURVE",
"427 -132 OFFCURVE",
"427 -161 CURVE SMOOTH",
"427 -194 OFFCURVE",
"406 -214 OFFCURVE",
"369 -214 CURVE SMOOTH",
"339 -214 OFFCURVE",
"321 -199 OFFCURVE",
"315 -168 CURVE SMOOTH",
"310 -145 OFFCURVE",
"302 -131 OFFCURVE",
"278 -131 CURVE SMOOTH",
"257 -131 OFFCURVE",
"245 -147 OFFCURVE",
"245 -170 CURVE SMOOTH",
"245 -211 OFFCURVE",
"302 -238 OFFCURVE",
"353 -238 CURVE SMOOTH"
);
}
);
width = 660;
}
);
leftKerningGroup = C;
note = Ccedilla;
rightKerningGroup = C;
unicode = 00C7;
},
{
glyphname = D;
lastChange = "2017-06-04 13:27:31 +0000";
layers = (
{
layerId = "9ECE4C5B-AE6E-45F8-855F-54F501A6946D";
paths = (
{
closed = 1;
nodes = (
"428 0 LINE SMOOTH",
"592 0 OFFCURVE",
"730 150 OFFCURVE",
"730 362 CURVE SMOOTH",
"730 538 OFFCURVE",
"624 712 OFFCURVE",
"428 712 CURVE SMOOTH",
"62 712 LINE",
"62 680 LINE",
"134 680 LINE SMOOTH",
"153 680 OFFCURVE",
"161 672 OFFCURVE",
"161 653 CURVE SMOOTH",
"161 59 LINE SMOOTH",
"161 41 OFFCURVE",
"152 32 OFFCURVE",
"134 32 CURVE SMOOTH",
"62 32 LINE",
"62 0 LINE"
);
},
{
closed = 1;
nodes = (
"262 32 OFFCURVE",
"253 41 OFFCURVE",
"253 59 CURVE SMOOTH",
"253 653 LINE SMOOTH",
"253 672 OFFCURVE",
"261 680 OFFCURVE",
"280 680 CURVE SMOOTH",
"424 680 LINE SMOOTH",
"561 680 OFFCURVE",
"624 541 OFFCURVE",
"624 362 CURVE SMOOTH",
"624 225 OFFCURVE",
"582 32 OFFCURVE",
"424 32 CURVE SMOOTH",
"280 32 LINE SMOOTH"
);
}
);
width = 780;
},
{
layerId = "6701A4D5-8A3D-41DD-8AA0-CFF5D98C5FFE";
paths = (
{
closed = 1;
nodes = (
"434 0 LINE SMOOTH",
"598 0 OFFCURVE",
"736 150 OFFCURVE",
"736 362 CURVE SMOOTH",
"736 538 OFFCURVE",
"630 712 OFFCURVE",
"434 712 CURVE SMOOTH",
"62 712 LINE",
"62 680 LINE",
"132 680 LINE SMOOTH",
"151 680 OFFCURVE",
"156 675 OFFCURVE",
"156 656 CURVE SMOOTH",
"156 56 LINE SMOOTH",
"156 39 OFFCURVE",
"151 32 OFFCURVE",
"132 32 CURVE SMOOTH",
"62 32 LINE",
"62 0 LINE"
);
},
{
closed = 1;
nodes = (
"311 32 OFFCURVE",
"304 39 OFFCURVE",
"304 56 CURVE SMOOTH",
"304 656 LINE SMOOTH",
"304 675 OFFCURVE",
"311 680 OFFCURVE",
"328 680 CURVE SMOOTH",
"417 680 LINE SMOOTH",
"529 680 OFFCURVE",
"566 640 OFFCURVE",
"566 356 CURVE",
"566 75 OFFCURVE",
"531 32 OFFCURVE",
"417 32 CURVE SMOOTH",
"328 32 LINE SMOOTH"
);
}
);
width = 786;
}
);
note = D;
rightKerningGroup = D;
unicode = 0044;
},
{
glyphname = Eth;
lastChange = "2017-06-04 13:27:51 +0000";
layers = (
{
layerId = "9ECE4C5B-AE6E-45F8-855F-54F501A6946D";
paths = (
{
closed = 1;
nodes = (
"428 0 LINE SMOOTH",
"592 0 OFFCURVE",
"730 150 OFFCURVE",
"730 362 CURVE SMOOTH",
"730 538 OFFCURVE",
"624 712 OFFCURVE",
"428 712 CURVE SMOOTH",
"62 712 LINE",
"62 680 LINE",
"134 680 LINE SMOOTH",
"153 680 OFFCURVE",
"161 672 OFFCURVE",
"161 653 CURVE SMOOTH",
"161 392 LINE",
"68 392 LINE",
"68 356 LINE",
"161 356 LINE",
"161 59 LINE SMOOTH",
"161 41 OFFCURVE",
"152 32 OFFCURVE",
"134 32 CURVE SMOOTH",
"62 32 LINE",
"62 0 LINE"
);
},
{
closed = 1;
nodes = (
"262 32 OFFCURVE",
"253 41 OFFCURVE",
"253 59 CURVE SMOOTH",
"253 356 LINE",
"368 356 LINE",
"368 392 LINE",
"253 392 LINE",
"253 653 LINE SMOOTH",
"253 672 OFFCURVE",
"261 680 OFFCURVE",
"280 680 CURVE SMOOTH",
"424 680 LINE SMOOTH",
"561 680 OFFCURVE",
"624 541 OFFCURVE",
"624 362 CURVE SMOOTH",
"624 225 OFFCURVE",
"582 32 OFFCURVE",
"424 32 CURVE SMOOTH",
"280 32 LINE SMOOTH"
);
}
);
width = 768;
},
{
layerId = "6701A4D5-8A3D-41DD-8AA0-CFF5D98C5FFE";
paths = (
{
closed = 1;
nodes = (
"434 0 LINE SMOOTH",
"598 0 OFFCURVE",
"736 150 OFFCURVE",
"736 362 CURVE SMOOTH",
"736 538 OFFCURVE",
"630 712 OFFCURVE",
"434 712 CURVE SMOOTH",
"62 712 LINE",
"62 680 LINE",
"132 680 LINE SMOOTH",
"151 680 OFFCURVE",
"156 675 OFFCURVE",
"156 656 CURVE SMOOTH",
"156 392 LINE",
"62 392 LINE",
"62 356 LINE",
"156 356 LINE",
"156 56 LINE SMOOTH",
"156 39 OFFCURVE",
"151 32 OFFCURVE",
"132 32 CURVE SMOOTH",
"62 32 LINE",
"62 0 LINE"
);
},
{
closed = 1;
nodes = (
"311 32 OFFCURVE",
"304 39 OFFCURVE",
"304 56 CURVE SMOOTH",
"304 356 LINE",
"398 356 LINE",
"398 392 LINE",
"304 392 LINE",
"304 656 LINE SMOOTH",
"304 675 OFFCURVE",
"311 680 OFFCURVE",
"328 680 CURVE SMOOTH",
"417 680 LINE SMOOTH",
"530 680 OFFCURVE",
"566 641 OFFCURVE",
"566 350 CURVE",
"566 76 OFFCURVE",
"530 32 OFFCURVE",
"417 32 CURVE SMOOTH",
"328 32 LINE SMOOTH"
);
}
);
width = 786;
}
);
note = Eth;
rightKerningGroup = D;
unicode = 00D0;
},
{
glyphname = E;
lastChange = "2017-06-04 13:28:08 +0000";
layers = (
{
layerId = "9ECE4C5B-AE6E-45F8-855F-54F501A6946D";
paths = (
{
closed = 1;
nodes = (
"620 0 LINE",
"632 276 LINE",
"607 276 LINE",
"606 269 OFFCURVE",
"604 255 OFFCURVE",
"601 232 CURVE SMOOTH",
"585 127 OFFCURVE",
"546 32 OFFCURVE",
"440 32 CURVE SMOOTH",
"280 32 LINE SMOOTH",
"262 32 OFFCURVE",
"253 41 OFFCURVE",
"253 59 CURVE SMOOTH",
"253 352 LINE",
"330 352 LINE SMOOTH",
"398 352 OFFCURVE",
"426 268 OFFCURVE",
"426 189 CURVE",
"452 189 LINE",
"452 547 LINE",
"426 547 LINE",
"426 468 OFFCURVE",
"398 384 OFFCURVE",
"330 384 CURVE SMOOTH",
"253 384 LINE",
"253 653 LINE SMOOTH",
"253 672 OFFCURVE",
"261 680 OFFCURVE",
"280 680 CURVE SMOOTH",
"439 680 LINE SMOOTH",
"548 680 OFFCURVE",
"599 570 OFFCURVE",
"599 462 CURVE",
"624 462 LINE",
"620 712 LINE",
"62 712 LINE",
"62 680 LINE",
"134 680 LINE SMOOTH",
"153 680 OFFCURVE",
"161 672 OFFCURVE",
"161 653 CURVE SMOOTH",
"161 59 LINE SMOOTH",
"161 41 OFFCURVE",
"152 32 OFFCURVE",
"134 32 CURVE SMOOTH",
"62 32 LINE",
"62 0 LINE"
);
}
);
width = 690;
},
{
layerId = "6701A4D5-8A3D-41DD-8AA0-CFF5D98C5FFE";
paths = (
{
closed = 1;
nodes = (
"632 0 LINE",
"638 276 LINE",
"606 276 LINE",
"605 261 OFFCURVE",
"596 205 OFFCURVE",
"585 174 CURVE SMOOTH",
"560 102 OFFCURVE",
"510 32 OFFCURVE",
"437 32 CURVE SMOOTH",
"328 32 LINE SMOOTH",
"311 32 OFFCURVE",
"304 39 OFFCURVE",
"304 56 CURVE SMOOTH",
"304 344 LINE",
"355 344 LINE SMOOTH",
"409 344 OFFCURVE",
"455 268 OFFCURVE",
"455 205 CURVE",
"487 205 LINE",
"487 518 LINE",
"455 518 LINE",
"455 464 OFFCURVE",
"415 380 OFFCURVE",
"355 380 CURVE SMOOTH",
"304 380 LINE",
"304 656 LINE SMOOTH",
"304 675 OFFCURVE",
"311 680 OFFCURVE",
"328 680 CURVE SMOOTH",
"438 680 LINE SMOOTH",
"515 680 OFFCURVE",
"598 564 OFFCURVE",
"598 480 CURVE",
"630 480 LINE",
"624 712 LINE",
"62 712 LINE",
"62 680 LINE",
"132 680 LINE SMOOTH",
"151 680 OFFCURVE",
"156 675 OFFCURVE",
"156 656 CURVE SMOOTH",
"156 56 LINE SMOOTH",
"156 39 OFFCURVE",
"151 32 OFFCURVE",
"132 32 CURVE SMOOTH",
"62 32 LINE",
"62 0 LINE"
);
}
);
width = 690;
}
);
note = E;
unicode = 0045;
},
{
glyphname = Eacute;
lastChange = "2017-06-04 13:28:32 +0000";
layers = (
{
layerId = "9ECE4C5B-AE6E-45F8-855F-54F501A6946D";
paths = (
{
closed = 1;
nodes = (
"484 863 LINE SMOOTH",
"503 877 OFFCURVE",
"512 892 OFFCURVE",
"512 907 CURVE SMOOTH",
"512 926 OFFCURVE",
"501 938 OFFCURVE",
"484 938 CURVE SMOOTH",
"465 938 OFFCURVE",
"452 930 OFFCURVE",
"435 906 CURVE SMOOTH",
"343 773 LINE",
"356 762 LINE"
);
},
{
closed = 1;
nodes = (
"620 0 LINE",
"632 276 LINE",
"607 276 LINE",
"601 233 OFFCURVE",
"591 32 OFFCURVE",
"440 32 CURVE SMOOTH",
"280 32 LINE SMOOTH",
"262 32 OFFCURVE",
"253 41 OFFCURVE",
"253 59 CURVE SMOOTH",
"253 352 LINE",
"330 352 LINE SMOOTH",
"398 352 OFFCURVE",
"426 268 OFFCURVE",
"426 189 CURVE",
"452 189 LINE",
"452 547 LINE",
"426 547 LINE",
"426 468 OFFCURVE",
"398 384 OFFCURVE",
"330 384 CURVE SMOOTH",
"253 384 LINE",
"253 653 LINE SMOOTH",
"253 672 OFFCURVE",
"261 680 OFFCURVE",
"280 680 CURVE SMOOTH",
"439 680 LINE SMOOTH",
"548 680 OFFCURVE",
"599 570 OFFCURVE",
"599 462 CURVE",
"624 462 LINE",
"620 712 LINE",
"62 712 LINE",
"62 680 LINE",
"134 680 LINE SMOOTH",
"153 680 OFFCURVE",
"161 672 OFFCURVE",
"161 653 CURVE SMOOTH",
"161 59 LINE SMOOTH",
"161 41 OFFCURVE",
"152 32 OFFCURVE",
"134 32 CURVE SMOOTH",
"62 32 LINE",
"62 0 LINE"
);
}
);
width = 690;
},
{
layerId = "6701A4D5-8A3D-41DD-8AA0-CFF5D98C5FFE";
paths = (
{
closed = 1;
nodes = (
"492 860 LINE SMOOTH",
"511 874 OFFCURVE",
"520 890 OFFCURVE",
"520 908 CURVE SMOOTH",
"520 932 OFFCURVE",
"502 948 OFFCURVE",
"478 948 CURVE SMOOTH",
"459 948 OFFCURVE",
"444 940 OFFCURVE",
"429 916 CURVE SMOOTH",
"340 778 LINE",
"360 760 LINE"
);
},
{
closed = 1;
nodes = (
"632 0 LINE",
"638 276 LINE",
"606 276 LINE",
"600 180 OFFCURVE",
"545 32 OFFCURVE",
"437 32 CURVE SMOOTH",
"328 32 LINE SMOOTH",
"311 32 OFFCURVE",
"304 39 OFFCURVE",
"304 56 CURVE SMOOTH",
"304 344 LINE",
"355 344 LINE SMOOTH",
"409 344 OFFCURVE",
"455 268 OFFCURVE",
"455 205 CURVE",
"487 205 LINE",
"487 518 LINE",
"455 518 LINE",
"455 464 OFFCURVE",
"415 380 OFFCURVE",
"355 380 CURVE SMOOTH",
"304 380 LINE",
"304 656 LINE SMOOTH",
"304 675 OFFCURVE",
"311 680 OFFCURVE",
"328 680 CURVE SMOOTH",
"438 680 LINE SMOOTH",
"515 680 OFFCURVE",
"598 564 OFFCURVE",
"598 480 CURVE",
"630 480 LINE",
"624 712 LINE",
"62 712 LINE",
"62 680 LINE",
"132 680 LINE SMOOTH",
"151 680 OFFCURVE",
"156 675 OFFCURVE",
"156 656 CURVE SMOOTH",
"156 56 LINE SMOOTH",
"156 39 OFFCURVE",
"151 32 OFFCURVE",
"132 32 CURVE SMOOTH",
"62 32 LINE",
"62 0 LINE"
);
}
);
width = 690;
}
);
note = Eacute;
unicode = 00C9;
},
{
glyphname = Ecircumflex;
lastChange = "2017-06-04 13:28:57 +0000";
layers = (
{
layerId = "9ECE4C5B-AE6E-45F8-855F-54F501A6946D";
paths = (
{
closed = 1;
nodes = (
"255 774 OFFCURVE",
"327 821 OFFCURVE",
"368 858 CURVE",
"409 821 OFFCURVE",
"481 774 OFFCURVE",
"516 762 CURVE",
"526 778 LINE",
"465 813 OFFCURVE",
"419 860 OFFCURVE",
"388 920 CURVE",
"348 920 LINE",
"317 860 OFFCURVE",
"271 813 OFFCURVE",
"210 778 CURVE",
"220 762 LINE"
);
},
{
closed = 1;
nodes = (
"620 0 LINE",
"632 276 LINE",
"607 276 LINE",
"606 269 OFFCURVE",
"604 255 OFFCURVE",
"601 232 CURVE SMOOTH",
"585 127 OFFCURVE",
"546 32 OFFCURVE",
"440 32 CURVE SMOOTH",
"280 32 LINE SMOOTH",
"262 32 OFFCURVE",
"253 41 OFFCURVE",
"253 59 CURVE SMOOTH",
"253 352 LINE",
"330 352 LINE SMOOTH",
"398 352 OFFCURVE",
"426 268 OFFCURVE",
"426 189 CURVE",
"452 189 LINE",
"452 547 LINE",
"426 547 LINE",
"426 468 OFFCURVE",
"398 384 OFFCURVE",
"330 384 CURVE SMOOTH",
"253 384 LINE",
"253 653 LINE SMOOTH",
"253 672 OFFCURVE",
"261 680 OFFCURVE",
"280 680 CURVE SMOOTH",
"439 680 LINE SMOOTH",
"490 680 OFFCURVE",
"529 659 OFFCURVE",
"557 616 CURVE SMOOTH",
"590 565 OFFCURVE",
"599 489 OFFCURVE",
"599 462 CURVE",
"624 462 LINE",
"620 712 LINE",
"62 712 LINE",
"62 680 LINE",
"134 680 LINE SMOOTH",
"153 680 OFFCURVE",
"161 672 OFFCURVE",
"161 653 CURVE SMOOTH",
"161 59 LINE SMOOTH",
"161 41 OFFCURVE",
"152 32 OFFCURVE",
"134 32 CURVE SMOOTH",
"62 32 LINE",
"62 0 LINE"
);
}
);
width = 690;
},
{
layerId = "6701A4D5-8A3D-41DD-8AA0-CFF5D98C5FFE";
paths = (
{
closed = 1;
nodes = (
"273 782 OFFCURVE",
"309 802 OFFCURVE",
"372 842 CURVE",
"435 802 OFFCURVE",
"471 782 OFFCURVE",
"528 762 CURVE",
"540 786 LINE",
"474 819 OFFCURVE",
"425 867 OFFCURVE",
"392 930 CURVE",
"352 930 LINE",
"318 868 OFFCURVE",
"269 820 OFFCURVE",
"204 786 CURVE",
"216 762 LINE"
);
},
{
closed = 1;
nodes = (
"632 0 LINE",
"638 276 LINE",
"606 276 LINE",
"605 261 OFFCURVE",
"596 205 OFFCURVE",
"585 174 CURVE SMOOTH",
"560 102 OFFCURVE",
"510 32 OFFCURVE",
"437 32 CURVE SMOOTH",
"328 32 LINE SMOOTH",
"311 32 OFFCURVE",
"304 39 OFFCURVE",
"304 56 CURVE SMOOTH",
"304 344 LINE",
"355 344 LINE SMOOTH",
"409 344 OFFCURVE",
"455 268 OFFCURVE",
"455 205 CURVE",
"487 205 LINE",
"487 518 LINE",
"455 518 LINE",
"455 464 OFFCURVE",
"415 380 OFFCURVE",
"355 380 CURVE SMOOTH",
"304 380 LINE",
"304 656 LINE SMOOTH",
"304 675 OFFCURVE",
"311 680 OFFCURVE",
"328 680 CURVE SMOOTH",
"438 680 LINE SMOOTH",
"487 680 OFFCURVE",
"527 647 OFFCURVE",
"558 594 CURVE SMOOTH",
"583 553 OFFCURVE",
"598 489 OFFCURVE",
"598 480 CURVE",
"630 480 LINE",
"624 712 LINE",
"62 712 LINE",
"62 680 LINE",
"132 680 LINE SMOOTH",
"151 680 OFFCURVE",
"156 675 OFFCURVE",
"156 656 CURVE SMOOTH",
"156 56 LINE SMOOTH",
"156 39 OFFCURVE",
"151 32 OFFCURVE",
"132 32 CURVE SMOOTH",
"62 32 LINE",
"62 0 LINE"
);
}
);
width = 690;
}
);
note = Ecircumflex;
unicode = 00CA;
},
{
glyphname = Edieresis;
lastChange = "2017-06-04 13:29:07 +0000";
layers = (
{
layerId = "9ECE4C5B-AE6E-45F8-855F-54F501A6946D";
paths = (
{
closed = 1;
nodes = (
"297 798 OFFCURVE",
"318 821 OFFCURVE",
"318 850 CURVE SMOOTH",
"318 881 OFFCURVE",
"297 902 OFFCURVE",
"266 902 CURVE SMOOTH",
"237 902 OFFCURVE",
"214 881 OFFCURVE",
"214 850 CURVE SMOOTH",
"214 821 OFFCURVE",
"237 798 OFFCURVE",
"266 798 CURVE SMOOTH"
);
},
{
closed = 1;
nodes = (
"501 798 OFFCURVE",
"522 821 OFFCURVE",
"522 850 CURVE SMOOTH",
"522 881 OFFCURVE",
"501 902 OFFCURVE",
"470 902 CURVE SMOOTH",
"441 902 OFFCURVE",
"418 881 OFFCURVE",
"418 850 CURVE SMOOTH",
"418 821 OFFCURVE",
"441 798 OFFCURVE",
"470 798 CURVE SMOOTH"
);
},
{
closed = 1;
nodes = (
"620 0 LINE",
"632 276 LINE",
"607 276 LINE",
"606 269 OFFCURVE",
"604 255 OFFCURVE",
"601 232 CURVE SMOOTH",
"585 127 OFFCURVE",
"546 32 OFFCURVE",
"440 32 CURVE SMOOTH",
"280 32 LINE SMOOTH",
"262 32 OFFCURVE",
"253 41 OFFCURVE",
"253 59 CURVE SMOOTH",
"253 352 LINE",
"330 352 LINE SMOOTH",
"398 352 OFFCURVE",
"426 268 OFFCURVE",
"426 189 CURVE",
"452 189 LINE",
"452 547 LINE",
"426 547 LINE",
"426 468 OFFCURVE",
"398 384 OFFCURVE",
"330 384 CURVE SMOOTH",
"253 384 LINE",
"253 653 LINE SMOOTH",
"253 672 OFFCURVE",
"261 680 OFFCURVE",
"280 680 CURVE SMOOTH",
"439 680 LINE SMOOTH",
"490 680 OFFCURVE",
"529 659 OFFCURVE",
"557 616 CURVE SMOOTH",
"590 565 OFFCURVE",
"599 489 OFFCURVE",
"599 462 CURVE",
"624 462 LINE",
"620 712 LINE",
"62 712 LINE",
"62 680 LINE",
"134 680 LINE SMOOTH",
"153 680 OFFCURVE",
"161 672 OFFCURVE",
"161 653 CURVE SMOOTH",
"161 59 LINE SMOOTH",
"161 41 OFFCURVE",
"152 32 OFFCURVE",
"134 32 CURVE SMOOTH",
"62 32 LINE",
"62 0 LINE"
);
}
);
width = 690;
},
{
layerId = "6701A4D5-8A3D-41DD-8AA0-CFF5D98C5FFE";
paths = (
{
closed = 1;
nodes = (
"299 794 OFFCURVE",
"326 821 OFFCURVE",
"326 854 CURVE SMOOTH",
"326 887 OFFCURVE",
"299 914 OFFCURVE",
"266 914 CURVE SMOOTH",
"233 914 OFFCURVE",
"206 887 OFFCURVE",
"206 854 CURVE SMOOTH",
"206 821 OFFCURVE",
"233 794 OFFCURVE",
"266 794 CURVE SMOOTH"
);
},
{
closed = 1;
nodes = (
"511 794 OFFCURVE",
"538 821 OFFCURVE",
"538 854 CURVE SMOOTH",
"538 887 OFFCURVE",
"511 914 OFFCURVE",
"478 914 CURVE SMOOTH",
"445 914 OFFCURVE",
"418 887 OFFCURVE",
"418 854 CURVE SMOOTH",
"418 821 OFFCURVE",
"445 794 OFFCURVE",
"478 794 CURVE SMOOTH"
);
},
{
closed = 1;
nodes = (
"632 0 LINE",
"638 276 LINE",
"606 276 LINE",
"605 261 OFFCURVE",
"596 205 OFFCURVE",
"585 174 CURVE SMOOTH",
"560 102 OFFCURVE",
"510 32 OFFCURVE",
"437 32 CURVE SMOOTH",
"328 32 LINE SMOOTH",
"311 32 OFFCURVE",
"304 39 OFFCURVE",
"304 56 CURVE SMOOTH",
"304 344 LINE",
"355 344 LINE SMOOTH",
"409 344 OFFCURVE",
"455 268 OFFCURVE",
"455 205 CURVE",
"487 205 LINE",
"487 518 LINE",
"455 518 LINE",
"455 464 OFFCURVE",
"415 380 OFFCURVE",
"355 380 CURVE SMOOTH",
"304 380 LINE",
"304 656 LINE SMOOTH",
"304 675 OFFCURVE",
"311 680 OFFCURVE",
"328 680 CURVE SMOOTH",
"438 680 LINE SMOOTH",
"487 680 OFFCURVE",
"527 647 OFFCURVE",
"558 594 CURVE SMOOTH",
"583 553 OFFCURVE",
"598 489 OFFCURVE",
"598 480 CURVE",
"630 480 LINE",
"624 712 LINE",
"62 712 LINE",
"62 680 LINE",
"132 680 LINE SMOOTH",
"151 680 OFFCURVE",
"156 675 OFFCURVE",
"156 656 CURVE SMOOTH",
"156 56 LINE SMOOTH",
"156 39 OFFCURVE",
"151 32 OFFCURVE",
"132 32 CURVE SMOOTH",
"62 32 LINE",
"62 0 LINE"
);
}
);
width = 690;
}
);
note = Edieresis;
unicode = 00CB;
},
{
glyphname = Egrave;
lastChange = "2017-06-04 13:29:16 +0000";
layers = (
{
layerId = "9ECE4C5B-AE6E-45F8-855F-54F501A6946D";
paths = (
{
closed = 1;
nodes = (
"393 773 LINE",
"301 906 LINE SMOOTH",
"284 930 OFFCURVE",
"271 938 OFFCURVE",
"252 938 CURVE SMOOTH",
"235 938 OFFCURVE",
"224 926 OFFCURVE",
"224 907 CURVE SMOOTH",
"224 892 OFFCURVE",
"233 877 OFFCURVE",
"252 863 CURVE SMOOTH",
"380 762 LINE"
);
},
{
closed = 1;
nodes = (
"620 0 LINE",
"632 276 LINE",
"607 276 LINE",
"606 269 OFFCURVE",
"604 255 OFFCURVE",
"601 232 CURVE SMOOTH",
"585 127 OFFCURVE",
"546 32 OFFCURVE",
"440 32 CURVE SMOOTH",
"280 32 LINE SMOOTH",
"262 32 OFFCURVE",
"253 41 OFFCURVE",
"253 59 CURVE SMOOTH",
"253 352 LINE",
"330 352 LINE SMOOTH",
"398 352 OFFCURVE",
"426 268 OFFCURVE",
"426 189 CURVE",
"452 189 LINE",
"452 547 LINE",
"426 547 LINE",
"426 468 OFFCURVE",
"398 384 OFFCURVE",
"330 384 CURVE SMOOTH",
"253 384 LINE",
"253 653 LINE SMOOTH",
"253 672 OFFCURVE",
"261 680 OFFCURVE",
"280 680 CURVE SMOOTH",
"439 680 LINE SMOOTH",
"490 680 OFFCURVE",
"529 659 OFFCURVE",
"557 616 CURVE SMOOTH",
"590 565 OFFCURVE",
"599 489 OFFCURVE",
"599 462 CURVE",
"624 462 LINE",
"620 712 LINE",
"62 712 LINE",
"62 680 LINE",
"134 680 LINE SMOOTH",
"153 680 OFFCURVE",
"161 672 OFFCURVE",
"161 653 CURVE SMOOTH",
"161 59 LINE SMOOTH",
"161 41 OFFCURVE",
"152 32 OFFCURVE",
"134 32 CURVE SMOOTH",
"62 32 LINE",
"62 0 LINE"
);
}
);
width = 690;
},
{
layerId = "6701A4D5-8A3D-41DD-8AA0-CFF5D98C5FFE";
paths = (
{
closed = 1;
nodes = (
"404 778 LINE",
"315 916 LINE SMOOTH",
"300 940 OFFCURVE",
"285 948 OFFCURVE",
"266 948 CURVE SMOOTH",
"242 948 OFFCURVE",
"224 932 OFFCURVE",
"224 908 CURVE SMOOTH",
"224 890 OFFCURVE",
"233 874 OFFCURVE",
"252 860 CURVE SMOOTH",
"384 760 LINE"
);
},
{
closed = 1;
nodes = (
"632 0 LINE",
"638 276 LINE",
"606 276 LINE",
"605 261 OFFCURVE",
"596 205 OFFCURVE",
"585 174 CURVE SMOOTH",
"560 102 OFFCURVE",
"510 32 OFFCURVE",
"437 32 CURVE SMOOTH",
"328 32 LINE SMOOTH",
"311 32 OFFCURVE",
"304 39 OFFCURVE",
"304 56 CURVE SMOOTH",
"304 344 LINE",
"355 344 LINE SMOOTH",
"409 344 OFFCURVE",
"455 268 OFFCURVE",
"455 205 CURVE",
"487 205 LINE",
"487 518 LINE",
"455 518 LINE",
"455 464 OFFCURVE",
"415 380 OFFCURVE",
"355 380 CURVE SMOOTH",
"304 380 LINE",
"304 656 LINE SMOOTH",
"304 675 OFFCURVE",
"311 680 OFFCURVE",
"328 680 CURVE SMOOTH",
"438 680 LINE SMOOTH",
"487 680 OFFCURVE",
"527 647 OFFCURVE",
"558 594 CURVE SMOOTH",
"583 553 OFFCURVE",
"598 489 OFFCURVE",
"598 480 CURVE",
"630 480 LINE",
"624 712 LINE",
"62 712 LINE",
"62 680 LINE",
"132 680 LINE SMOOTH",
"151 680 OFFCURVE",
"156 675 OFFCURVE",
"156 656 CURVE SMOOTH",
"156 56 LINE SMOOTH",
"156 39 OFFCURVE",
"151 32 OFFCURVE",
"132 32 CURVE SMOOTH",
"62 32 LINE",
"62 0 LINE"
);
}
);
width = 690;
}
);
note = Egrave;
unicode = 00C8;
},
{
glyphname = F;
lastChange = "2017-06-04 13:29:24 +0000";
layers = (
{
layerId = "9ECE4C5B-AE6E-45F8-855F-54F501A6946D";
paths = (
{
closed = 1;
nodes = (
"368 0 LINE",
"368 32 LINE",
"280 32 LINE SMOOTH",
"261 32 OFFCURVE",
"253 45 OFFCURVE",
"253 65 CURVE SMOOTH",
"253 352 LINE",
"330 352 LINE SMOOTH",
"398 352 OFFCURVE",
"426 263 OFFCURVE",
"426 183 CURVE",
"452 183 LINE",
"452 553 LINE",
"426 553 LINE",
"426 473 OFFCURVE",
"398 384 OFFCURVE",
"330 384 CURVE SMOOTH",
"253 384 LINE",
"253 653 LINE SMOOTH",
"253 672 OFFCURVE",
"261 680 OFFCURVE",
"280 680 CURVE SMOOTH",
"439 680 LINE SMOOTH",
"490 680 OFFCURVE",
"529 659 OFFCURVE",
"557 616 CURVE SMOOTH",
"590 565 OFFCURVE",
"599 489 OFFCURVE",
"599 462 CURVE",
"624 462 LINE",
"620 712 LINE",
"62 712 LINE",
"62 680 LINE",
"134 680 LINE SMOOTH",
"153 680 OFFCURVE",
"161 672 OFFCURVE",
"161 653 CURVE SMOOTH",
"161 59 LINE SMOOTH",
"161 41 OFFCURVE",
"152 32 OFFCURVE",
"134 32 CURVE SMOOTH",
"62 32 LINE",
"62 0 LINE"
);
}
);
width = 676;
},
{
layerId = "6701A4D5-8A3D-41DD-8AA0-CFF5D98C5FFE";
paths = (
{
closed = 1;
nodes = (
"419 0 LINE",
"419 32 LINE",
"328 32 LINE SMOOTH",
"311 32 OFFCURVE",
"304 39 OFFCURVE",
"304 56 CURVE SMOOTH",
"304 344 LINE",
"355 344 LINE SMOOTH",
"409 344 OFFCURVE",
"455 268 OFFCURVE",
"455 205 CURVE",
"487 205 LINE",
"487 518 LINE",
"455 518 LINE",
"455 464 OFFCURVE",
"415 380 OFFCURVE",
"355 380 CURVE SMOOTH",
"304 380 LINE",
"304 656 LINE SMOOTH",
"304 675 OFFCURVE",
"311 680 OFFCURVE",
"328 680 CURVE SMOOTH",
"430 680 LINE SMOOTH",
"489 680 OFFCURVE",
"538 631 OFFCURVE",
"566 571 CURVE SMOOTH",
"587 527 OFFCURVE",
"602 449 OFFCURVE",
"602 438 CURVE",
"634 438 LINE",
"626 712 LINE",
"62 712 LINE",
"62 680 LINE",
"132 680 LINE SMOOTH",
"151 680 OFFCURVE",
"156 675 OFFCURVE",
"156 656 CURVE SMOOTH",
"156 56 LINE SMOOTH",
"156 39 OFFCURVE",
"151 32 OFFCURVE",
"132 32 CURVE SMOOTH",
"62 32 LINE",
"62 0 LINE"
);
}
);
width = 670;
}
);
note = F;
rightKerningGroup = F;
unicode = 0046;
},
{
glyphname = G;
lastChange = "2017-06-04 13:30:13 +0000";
layers = (
{
layerId = "9ECE4C5B-AE6E-45F8-855F-54F501A6946D";
paths = (
{
closed = 1;
nodes = (
"415 -18 OFFCURVE",
"475 33 OFFCURVE",
"506 82 CURVE",
"517 101 OFFCURVE",
"526 112 OFFCURVE",
"541 112 CURVE SMOOTH",
"553 112 OFFCURVE",
"558 101 OFFCURVE",
"558 78 CURVE SMOOTH",
"558 -13 LINE",
"590 -13 LINE",
"590 279 LINE SMOOTH",
"590 298 OFFCURVE",
"598 306 OFFCURVE",
"617 306 CURVE SMOOTH",
"690 306 LINE",
"690 338 LINE",
"360 338 LINE",
"360 306 LINE",
"471 306 LINE SMOOTH",
"490 306 OFFCURVE",
"498 298 OFFCURVE",
"498 279 CURVE SMOOTH",
"498 189 LINE SMOOTH",
"498 115 OFFCURVE",
"432 14 OFFCURVE",
"350 14 CURVE SMOOTH",
"209 14 OFFCURVE",
"176 147 OFFCURVE",
"176 356 CURVE SMOOTH",
"176 508 OFFCURVE",
"187 698 OFFCURVE",
"350 698 CURVE SMOOTH",
"445 698 OFFCURVE",
"527 583 OFFCURVE",
"566 412 CURVE",
"594 412 LINE",
"590 722 LINE",
"565 722 LINE",
"546 666 LINE SMOOTH",
"541 651 OFFCURVE",
"538 645 OFFCURVE",
"527 645 CURVE SMOOTH",
"514 645 OFFCURVE",
"428 730 OFFCURVE",
"348 730 CURVE SMOOTH",
"180 730 OFFCURVE",
"70 572 OFFCURVE",
"70 362 CURVE SMOOTH",
"70 186 OFFCURVE",
"151 -18 OFFCURVE",
"350 -18 CURVE SMOOTH"
);
}
);
width = 720;
},
{
layerId = "6701A4D5-8A3D-41DD-8AA0-CFF5D98C5FFE";
paths = (
{
closed = 1;
nodes = (
"417 -18 OFFCURVE",
"472 31 OFFCURVE",
"505 82 CURVE SMOOTH",
"514 96 OFFCURVE",
"524 103 OFFCURVE",
"536 103 CURVE SMOOTH",
"548 103 OFFCURVE",
"556 91 OFFCURVE",
"560 78 CURVE",
"584 -13 LINE",
"616 -13 LINE",
"616 298 LINE SMOOTH",
"616 317 OFFCURVE",
"623 322 OFFCURVE",
"640 322 CURVE SMOOTH",
"688 322 LINE",
"688 354 LINE",
"356 354 LINE",
"356 322 LINE",
"444 322 LINE SMOOTH",
"463 322 OFFCURVE",
"468 317 OFFCURVE",
"468 298 CURVE SMOOTH",
"468 161 LINE SMOOTH",
"468 82 OFFCURVE",
"419 14 OFFCURVE",
"350 14 CURVE SMOOTH",
"259 14 OFFCURVE",
"240 66 OFFCURVE",
"240 359 CURVE",
"240 655 OFFCURVE",
"265 698 OFFCURVE",
"368 698 CURVE SMOOTH",
"465 698 OFFCURVE",
"538 603 OFFCURVE",
"585 434 CURVE",
"616 434 LINE",
"616 722 LINE",
"583 722 LINE",
"566 685 LINE SMOOTH",
"560 672 OFFCURVE",
"553 666 OFFCURVE",
"544 666 CURVE SMOOTH",
"525 666 OFFCURVE",
"441 730 OFFCURVE",
"368 730 CURVE SMOOTH",
"197 730 OFFCURVE",
"70 566 OFFCURVE",
"70 356 CURVE SMOOTH",
"70 185 OFFCURVE",
"156 -18 OFFCURVE",
"350 -18 CURVE SMOOTH"
);
}
);
width = 720;
}
);
leftKerningGroup = C;
note = G;
rightKerningGroup = G;
unicode = 0047;
},
{
glyphname = H;
lastChange = "2017-06-04 12:55:10 +0000";
layers = (
{
layerId = "9ECE4C5B-AE6E-45F8-855F-54F501A6946D";
paths = (
{
closed = 1;
nodes = (
"352 0 LINE",
"352 32 LINE",
"280 32 LINE SMOOTH",
"262 32 OFFCURVE",
"253 41 OFFCURVE",
"253 59 CURVE SMOOTH",
"253 358 LINE",
"555 358 LINE",
"555 59 LINE SMOOTH",
"555 41 OFFCURVE",
"546 32 OFFCURVE",
"528 32 CURVE SMOOTH",
"456 32 LINE",
"456 0 LINE",
"746 0 LINE",
"746 32 LINE",
"674 32 LINE SMOOTH",
"656 32 OFFCURVE",
"647 41 OFFCURVE",
"647 59 CURVE SMOOTH",
"647 653 LINE SMOOTH",
"647 671 OFFCURVE",
"656 680 OFFCURVE",
"674 680 CURVE SMOOTH",
"746 680 LINE",
"746 712 LINE",
"456 712 LINE",
"456 680 LINE",
"528 680 LINE SMOOTH",
"546 680 OFFCURVE",
"555 671 OFFCURVE",
"555 653 CURVE SMOOTH",
"555 390 LINE",
"253 390 LINE",
"253 653 LINE SMOOTH",
"253 671 OFFCURVE",
"262 680 OFFCURVE",
"280 680 CURVE SMOOTH",
"352 680 LINE",
"352 712 LINE",
"62 712 LINE",
"62 680 LINE",
"134 680 LINE SMOOTH",
"152 680 OFFCURVE",
"161 671 OFFCURVE",
"161 653 CURVE SMOOTH",
"161 59 LINE SMOOTH",
"161 41 OFFCURVE",
"152 32 OFFCURVE",
"134 32 CURVE SMOOTH",
"62 32 LINE",
"62 0 LINE"
);
}
);
width = 788;
},
{
layerId = "6701A4D5-8A3D-41DD-8AA0-CFF5D98C5FFE";
paths = (
{
closed = 1;
nodes = (
"398 0 LINE",
"398 32 LINE",
"328 32 LINE SMOOTH",
"311 32 OFFCURVE",
"304 39 OFFCURVE",
"304 56 CURVE SMOOTH",
"304 356 LINE",
"540 356 LINE",
"540 56 LINE SMOOTH",
"540 39 OFFCURVE",
"535 32 OFFCURVE",
"516 32 CURVE SMOOTH",
"446 32 LINE",
"446 0 LINE",
"782 0 LINE",
"782 32 LINE",
"712 32 LINE SMOOTH",
"695 32 OFFCURVE",
"688 39 OFFCURVE",
"688 56 CURVE SMOOTH",
"688 656 LINE SMOOTH",
"688 675 OFFCURVE",
"695 680 OFFCURVE",
"712 680 CURVE SMOOTH",
"782 680 LINE",
"782 712 LINE",
"444 712 LINE",
"444 680 LINE",
"516 680 LINE SMOOTH",
"535 680 OFFCURVE",
"540 675 OFFCURVE",
"540 656 CURVE SMOOTH",
"540 392 LINE",
"304 392 LINE",
"304 656 LINE SMOOTH",
"304 675 OFFCURVE",
"311 680 OFFCURVE",
"328 680 CURVE SMOOTH",
"398 680 LINE",
"398 712 LINE",
"62 712 LINE",
"62 680 LINE",
"132 680 LINE SMOOTH",
"151 680 OFFCURVE",
"156 675 OFFCURVE",
"156 656 CURVE SMOOTH",
"156 56 LINE SMOOTH",
"156 39 OFFCURVE",
"151 32 OFFCURVE",
"132 32 CURVE SMOOTH",
"62 32 LINE",
"62 0 LINE"
);
}
);
width = 824;
}
);
note = H;
unicode = 0048;
},
{
glyphname = I;
lastChange = "2017-06-04 12:55:10 +0000";
layers = (
{
layerId = "9ECE4C5B-AE6E-45F8-855F-54F501A6946D";
paths = (
{
closed = 1;
nodes = (
"352 0 LINE",
"352 32 LINE",
"280 32 LINE SMOOTH",
"262 32 OFFCURVE",
"253 41 OFFCURVE",
"253 59 CURVE SMOOTH",
"253 653 LINE SMOOTH",
"253 672 OFFCURVE",
"261 680 OFFCURVE",
"280 680 CURVE SMOOTH",
"352 680 LINE",
"352 712 LINE",
"62 712 LINE",
"62 680 LINE",
"134 680 LINE SMOOTH",
"153 680 OFFCURVE",
"161 672 OFFCURVE",
"161 653 CURVE SMOOTH",
"161 59 LINE SMOOTH",
"161 41 OFFCURVE",
"152 32 OFFCURVE",
"134 32 CURVE SMOOTH",
"62 32 LINE",
"62 0 LINE"
);
}
);
width = 394;
},
{
layerId = "6701A4D5-8A3D-41DD-8AA0-CFF5D98C5FFE";
paths = (
{
closed = 1;
nodes = (
"398 0 LINE",
"398 32 LINE",
"328 32 LINE SMOOTH",
"311 32 OFFCURVE",
"304 39 OFFCURVE",
"304 56 CURVE SMOOTH",
"304 656 LINE SMOOTH",
"304 675 OFFCURVE",
"311 680 OFFCURVE",
"328 680 CURVE SMOOTH",
"398 680 LINE",
"398 712 LINE",
"62 712 LINE",
"62 680 LINE",
"132 680 LINE SMOOTH",
"151 680 OFFCURVE",
"156 675 OFFCURVE",
"156 656 CURVE SMOOTH",
"156 56 LINE SMOOTH",
"156 39 OFFCURVE",
"151 32 OFFCURVE",
"132 32 CURVE SMOOTH",
"62 32 LINE",
"62 0 LINE"
);
}
);
width = 440;
}
);
note = I;
unicode = 0049;
},
{
glyphname = Iacute;
lastChange = "2017-06-04 12:55:10 +0000";
layers = (
{
layerId = "9ECE4C5B-AE6E-45F8-855F-54F501A6946D";
paths = (
{
closed = 1;
nodes = (
"324 863 LINE SMOOTH",
"343 877 OFFCURVE",
"352 892 OFFCURVE",
"352 907 CURVE SMOOTH",
"352 926 OFFCURVE",
"341 938 OFFCURVE",
"324 938 CURVE SMOOTH",
"305 938 OFFCURVE",
"292 930 OFFCURVE",
"275 906 CURVE SMOOTH",
"183 773 LINE",
"196 762 LINE"
);
},
{
closed = 1;
nodes = (
"352 0 LINE",
"352 32 LINE",
"280 32 LINE SMOOTH",
"262 32 OFFCURVE",
"253 41 OFFCURVE",
"253 59 CURVE SMOOTH",
"253 653 LINE SMOOTH",
"253 672 OFFCURVE",
"261 680 OFFCURVE",
"280 680 CURVE SMOOTH",
"352 680 LINE",
"352 712 LINE",
"62 712 LINE",
"62 680 LINE",
"134 680 LINE SMOOTH",
"153 680 OFFCURVE",
"161 672 OFFCURVE",
"161 653 CURVE SMOOTH",
"161 59 LINE SMOOTH",
"161 41 OFFCURVE",
"152 32 OFFCURVE",
"134 32 CURVE SMOOTH",
"62 32 LINE",
"62 0 LINE"
);
}
);
width = 394;
},
{
layerId = "6701A4D5-8A3D-41DD-8AA0-CFF5D98C5FFE";
paths = (
{
closed = 1;
nodes = (
"350 860 LINE SMOOTH",
"369 874 OFFCURVE",
"378 890 OFFCURVE",
"378 908 CURVE SMOOTH",
"378 932 OFFCURVE",
"360 948 OFFCURVE",
"336 948 CURVE SMOOTH",
"317 948 OFFCURVE",
"302 940 OFFCURVE",
"287 916 CURVE SMOOTH",
"198 778 LINE",
"218 760 LINE"
);
},
{
closed = 1;
nodes = (
"398 0 LINE",
"398 32 LINE",
"328 32 LINE SMOOTH",
"311 32 OFFCURVE",
"304 39 OFFCURVE",
"304 56 CURVE SMOOTH",
"304 656 LINE SMOOTH",
"304 675 OFFCURVE",
"311 680 OFFCURVE",
"328 680 CURVE SMOOTH",
"398 680 LINE",
"398 712 LINE",
"62 712 LINE",
"62 680 LINE",
"132 680 LINE SMOOTH",
"151 680 OFFCURVE",
"156 675 OFFCURVE",
"156 656 CURVE SMOOTH",
"156 56 LINE SMOOTH",
"156 39 OFFCURVE",
"151 32 OFFCURVE",
"132 32 CURVE SMOOTH",
"62 32 LINE",
"62 0 LINE"
);
}
);
width = 440;
}
);
note = Iacute;
unicode = 00CD;
},
{
glyphname = Icircumflex;
lastChange = "2017-06-04 12:55:10 +0000";
layers = (
{
layerId = "9ECE4C5B-AE6E-45F8-855F-54F501A6946D";
paths = (
{
closed = 1;
nodes = (
"95 774 OFFCURVE",
"167 821 OFFCURVE",
"208 858 CURVE",
"249 821 OFFCURVE",
"321 774 OFFCURVE",
"356 762 CURVE",
"366 778 LINE",
"305 813 OFFCURVE",
"259 860 OFFCURVE",
"228 920 CURVE",
"188 920 LINE",
"157 860 OFFCURVE",
"111 813 OFFCURVE",
"50 778 CURVE",
"60 762 LINE"
);
},
{
closed = 1;
nodes = (
"352 0 LINE",
"352 32 LINE",
"280 32 LINE SMOOTH",
"262 32 OFFCURVE",
"253 41 OFFCURVE",
"253 59 CURVE SMOOTH",
"253 653 LINE SMOOTH",
"253 672 OFFCURVE",
"261 680 OFFCURVE",
"280 680 CURVE SMOOTH",
"352 680 LINE",
"352 712 LINE",
"62 712 LINE",
"62 680 LINE",
"134 680 LINE SMOOTH",
"153 680 OFFCURVE",
"161 672 OFFCURVE",
"161 653 CURVE SMOOTH",
"161 59 LINE SMOOTH",
"161 41 OFFCURVE",
"152 32 OFFCURVE",
"134 32 CURVE SMOOTH",
"62 32 LINE",
"62 0 LINE"
);
}
);
width = 394;
},
{
layerId = "6701A4D5-8A3D-41DD-8AA0-CFF5D98C5FFE";
paths = (
{
closed = 1;
nodes = (
"131 782 OFFCURVE",
"167 802 OFFCURVE",
"230 842 CURVE",
"293 802 OFFCURVE",
"329 782 OFFCURVE",
"386 762 CURVE",
"398 786 LINE",
"332 819 OFFCURVE",
"283 867 OFFCURVE",
"250 930 CURVE",
"210 930 LINE",
"176 868 OFFCURVE",
"127 820 OFFCURVE",
"62 786 CURVE",
"74 762 LINE"
);
},
{
closed = 1;
nodes = (
"398 0 LINE",
"398 32 LINE",
"328 32 LINE SMOOTH",
"311 32 OFFCURVE",
"304 39 OFFCURVE",
"304 56 CURVE SMOOTH",
"304 656 LINE SMOOTH",
"304 675 OFFCURVE",
"311 680 OFFCURVE",
"328 680 CURVE SMOOTH",
"398 680 LINE",
"398 712 LINE",
"62 712 LINE",
"62 680 LINE",
"132 680 LINE SMOOTH",
"151 680 OFFCURVE",
"156 675 OFFCURVE",
"156 656 CURVE SMOOTH",
"156 56 LINE SMOOTH",
"156 39 OFFCURVE",
"151 32 OFFCURVE",
"132 32 CURVE SMOOTH",
"62 32 LINE",
"62 0 LINE"
);
}
);
width = 440;
}
);
note = Icircumflex;
unicode = 00CE;
},
{
glyphname = Idieresis;
lastChange = "2017-06-04 12:55:10 +0000";
layers = (
{
layerId = "9ECE4C5B-AE6E-45F8-855F-54F501A6946D";
paths = (
{
closed = 1;
nodes = (
"137 798 OFFCURVE",
"158 821 OFFCURVE",
"158 850 CURVE SMOOTH",
"158 881 OFFCURVE",
"137 902 OFFCURVE",
"106 902 CURVE SMOOTH",
"77 902 OFFCURVE",
"54 881 OFFCURVE",
"54 850 CURVE SMOOTH",
"54 821 OFFCURVE",
"77 798 OFFCURVE",
"106 798 CURVE SMOOTH"
);
},
{
closed = 1;
nodes = (
"341 798 OFFCURVE",
"362 821 OFFCURVE",
"362 850 CURVE SMOOTH",
"362 881 OFFCURVE",
"341 902 OFFCURVE",
"310 902 CURVE SMOOTH",
"281 902 OFFCURVE",
"258 881 OFFCURVE",
"258 850 CURVE SMOOTH",
"258 821 OFFCURVE",
"281 798 OFFCURVE",
"310 798 CURVE SMOOTH"
);
},
{
closed = 1;
nodes = (
"352 0 LINE",
"352 32 LINE",
"280 32 LINE SMOOTH",
"262 32 OFFCURVE",
"253 41 OFFCURVE",
"253 59 CURVE SMOOTH",
"253 653 LINE SMOOTH",
"253 672 OFFCURVE",
"261 680 OFFCURVE",
"280 680 CURVE SMOOTH",
"352 680 LINE",
"352 712 LINE",
"62 712 LINE",
"62 680 LINE",
"134 680 LINE SMOOTH",
"153 680 OFFCURVE",
"161 672 OFFCURVE",
"161 653 CURVE SMOOTH",
"161 59 LINE SMOOTH",
"161 41 OFFCURVE",
"152 32 OFFCURVE",
"134 32 CURVE SMOOTH",
"62 32 LINE",
"62 0 LINE"
);
}
);
width = 394;
},
{
layerId = "6701A4D5-8A3D-41DD-8AA0-CFF5D98C5FFE";
paths = (
{
closed = 1;
nodes = (
"157 794 OFFCURVE",
"184 821 OFFCURVE",
"184 854 CURVE SMOOTH",
"184 887 OFFCURVE",
"157 914 OFFCURVE",
"124 914 CURVE SMOOTH",
"91 914 OFFCURVE",
"64 887 OFFCURVE",
"64 854 CURVE SMOOTH",
"64 821 OFFCURVE",
"91 794 OFFCURVE",
"124 794 CURVE SMOOTH"
);
},
{
closed = 1;
nodes = (
"369 794 OFFCURVE",
"396 821 OFFCURVE",
"396 854 CURVE SMOOTH",
"396 887 OFFCURVE",
"369 914 OFFCURVE",
"336 914 CURVE SMOOTH",
"303 914 OFFCURVE",
"276 887 OFFCURVE",
"276 854 CURVE SMOOTH",
"276 821 OFFCURVE",
"303 794 OFFCURVE",
"336 794 CURVE SMOOTH"
);
},
{
closed = 1;
nodes = (
"398 0 LINE",
"398 32 LINE",
"328 32 LINE SMOOTH",
"311 32 OFFCURVE",
"304 39 OFFCURVE",
"304 56 CURVE SMOOTH",
"304 656 LINE SMOOTH",
"304 675 OFFCURVE",
"311 680 OFFCURVE",
"328 680 CURVE SMOOTH",
"398 680 LINE",
"398 712 LINE",
"62 712 LINE",
"62 680 LINE",
"132 680 LINE SMOOTH",
"151 680 OFFCURVE",
"156 675 OFFCURVE",
"156 656 CURVE SMOOTH",
"156 56 LINE SMOOTH",
"156 39 OFFCURVE",
"151 32 OFFCURVE",
"132 32 CURVE SMOOTH",
"62 32 LINE",
"62 0 LINE"
);
}
);
width = 440;
}
);
note = Idieresis;
unicode = 00CF;
},
{
glyphname = Igrave;
lastChange = "2017-06-04 12:55:10 +0000";
layers = (
{
layerId = "9ECE4C5B-AE6E-45F8-855F-54F501A6946D";
paths = (
{
closed = 1;
nodes = (
"233 773 LINE",
"141 906 LINE SMOOTH",
"124 930 OFFCURVE",
"111 938 OFFCURVE",
"92 938 CURVE SMOOTH",
"75 938 OFFCURVE",
"64 926 OFFCURVE",
"64 907 CURVE SMOOTH",
"64 892 OFFCURVE",
"73 877 OFFCURVE",
"92 863 CURVE SMOOTH",
"220 762 LINE"
);
},
{
closed = 1;
nodes = (
"352 0 LINE",
"352 32 LINE",
"280 32 LINE SMOOTH",
"262 32 OFFCURVE",
"253 41 OFFCURVE",
"253 59 CURVE SMOOTH",
"253 653 LINE SMOOTH",
"253 672 OFFCURVE",
"261 680 OFFCURVE",
"280 680 CURVE SMOOTH",
"352 680 LINE",
"352 712 LINE",
"62 712 LINE",
"62 680 LINE",
"134 680 LINE SMOOTH",
"153 680 OFFCURVE",
"161 672 OFFCURVE",
"161 653 CURVE SMOOTH",
"161 59 LINE SMOOTH",
"161 41 OFFCURVE",
"152 32 OFFCURVE",
"134 32 CURVE SMOOTH",
"62 32 LINE",
"62 0 LINE"
);
}
);
width = 394;
},
{
layerId = "6701A4D5-8A3D-41DD-8AA0-CFF5D98C5FFE";
paths = (
{
closed = 1;
nodes = (
"262 778 LINE",
"173 916 LINE SMOOTH",
"158 940 OFFCURVE",
"143 948 OFFCURVE",
"124 948 CURVE SMOOTH",
"100 948 OFFCURVE",
"82 932 OFFCURVE",
"82 908 CURVE SMOOTH",
"82 890 OFFCURVE",
"91 874 OFFCURVE",
"110 860 CURVE SMOOTH",
"242 760 LINE"
);
},
{
closed = 1;
nodes = (
"398 0 LINE",
"398 32 LINE",
"328 32 LINE SMOOTH",
"311 32 OFFCURVE",
"304 39 OFFCURVE",
"304 56 CURVE SMOOTH",
"304 656 LINE SMOOTH",
"304 675 OFFCURVE",
"311 680 OFFCURVE",
"328 680 CURVE SMOOTH",
"398 680 LINE",
"398 712 LINE",
"62 712 LINE",
"62 680 LINE",
"132 680 LINE SMOOTH",
"151 680 OFFCURVE",
"156 675 OFFCURVE",
"156 656 CURVE SMOOTH",
"156 56 LINE SMOOTH",
"156 39 OFFCURVE",
"151 32 OFFCURVE",
"132 32 CURVE SMOOTH",
"62 32 LINE",
"62 0 LINE"
);
}
);
width = 440;
}
);
note = Igrave;
unicode = 00CC;
},
{
glyphname = J;
lastChange = "2017-06-04 13:30:33 +0000";
layers = (
{
layerId = "9ECE4C5B-AE6E-45F8-855F-54F501A6946D";
paths = (
{
closed = 1;
nodes = (
"249 -18 OFFCURVE",
"281 -10 OFFCURVE",
"311 7 CURVE SMOOTH",
"370 40 OFFCURVE",
"409 106 OFFCURVE",
"409 194 CURVE SMOOTH",
"409 653 LINE SMOOTH",
"409 672 OFFCURVE",
"417 680 OFFCURVE",
"436 680 CURVE SMOOTH",
"508 680 LINE",
"508 712 LINE",
"218 712 LINE",
"218 680 LINE",
"290 680 LINE SMOOTH",
"309 680 OFFCURVE",
"317 672 OFFCURVE",
"317 653 CURVE SMOOTH",
"317 143 LINE SMOOTH",
"317 72 OFFCURVE",
"279 14 OFFCURVE",
"214 14 CURVE SMOOTH",
"153 14 OFFCURVE",
"104 41 OFFCURVE",
"104 82 CURVE SMOOTH",
"104 102 OFFCURVE",
"113 109 OFFCURVE",
"136 116 CURVE SMOOTH",
"169 127 OFFCURVE",
"184 140 OFFCURVE",
"184 168 CURVE SMOOTH",
"184 196 OFFCURVE",
"166 218 OFFCURVE",
"127 218 CURVE SMOOTH",
"115 218 OFFCURVE",
"103 215 OFFCURVE",
"90 208 CURVE SMOOTH",
"64 194 OFFCURVE",
"44 165 OFFCURVE",
"44 125 CURVE SMOOTH",
"44 36 OFFCURVE",
"115 -18 OFFCURVE",
"214 -18 CURVE SMOOTH"
);
}
);
width = 540;
},
{
layerId = "6701A4D5-8A3D-41DD-8AA0-CFF5D98C5FFE";
paths = (
{
closed = 1;
nodes = (
"249 -18 OFFCURVE",
"283 -9 OFFCURVE",
"316 8 CURVE SMOOTH",
"380 42 OFFCURVE",
"426 107 OFFCURVE",
"426 194 CURVE SMOOTH",
"426 656 LINE SMOOTH",
"426 675 OFFCURVE",
"433 680 OFFCURVE",
"450 680 CURVE SMOOTH",
"512 680 LINE",
"512 712 LINE",
"174 712 LINE",
"174 680 LINE",
"254 680 LINE SMOOTH",
"273 680 OFFCURVE",
"278 675 OFFCURVE",
"278 656 CURVE SMOOTH",
"278 130 LINE SMOOTH",
"278 53 OFFCURVE",
"253 14 OFFCURVE",
"202 14 CURVE SMOOTH",
"161 14 OFFCURVE",
"104 39 OFFCURVE",
"104 76 CURVE SMOOTH",
"104 99 OFFCURVE",
"113 110 OFFCURVE",
"136 118 CURVE SMOOTH",
"169 130 OFFCURVE",
"197 157 OFFCURVE",
"197 202 CURVE SMOOTH",
"197 239 OFFCURVE",
"169 271 OFFCURVE",
"126 271 CURVE SMOOTH",
"111 271 OFFCURVE",
"97 266 OFFCURVE",
"83 257 CURVE",
"55 237 OFFCURVE",
"36 201 OFFCURVE",
"36 154 CURVE SMOOTH",
"36 55 OFFCURVE",
"103 -18 OFFCURVE",
"214 -18 CURVE SMOOTH"
);
}
);
width = 540;
}
);
leftKerningGroup = J;
note = J;
rightKerningGroup = J;
unicode = 004A;
},
{
glyphname = K;
lastChange = "2017-06-04 12:55:10 +0000";
layers = (
{
layerId = "9ECE4C5B-AE6E-45F8-855F-54F501A6946D";
paths = (
{
closed = 1;
nodes = (
"347 0 LINE",
"347 32 LINE",
"280 32 LINE SMOOTH",
"262 32 OFFCURVE",
"253 41 OFFCURVE",
"253 59 CURVE SMOOTH",
"253 300 LINE",
"336 384 LINE",
"499 78 LINE",
"503 73 OFFCURVE",
"506 61 OFFCURVE",
"506 53 CURVE SMOOTH",
"506 42 OFFCURVE",
"494 32 OFFCURVE",
"479 32 CURVE SMOOTH",
"412 32 LINE",
"412 0 LINE",
"714 0 LINE",
"714 32 LINE",
"681 32 LINE SMOOTH",
"641 32 OFFCURVE",
"623 43 OFFCURVE",
"606 76 CURVE SMOOTH",
"402 451 LINE",
"570 621 LINE SMOOTH",
"608 660 OFFCURVE",
"638 680 OFFCURVE",
"660 680 CURVE SMOOTH",
"700 680 LINE",
"700 712 LINE",
"436 712 LINE",
"436 680 LINE",
"463 680 LINE SMOOTH",
"488 680 OFFCURVE",
"508 662 OFFCURVE",
"508 638 CURVE SMOOTH",
"508 614 OFFCURVE",
"500 597 OFFCURVE",
"483 578 CURVE",
"253 343 LINE",
"253 653 LINE SMOOTH",
"253 672 OFFCURVE",
"261 680 OFFCURVE",
"280 680 CURVE SMOOTH",
"347 680 LINE",
"347 712 LINE",
"62 712 LINE",
"62 680 LINE",
"134 680 LINE SMOOTH",
"153 680 OFFCURVE",
"161 672 OFFCURVE",
"161 653 CURVE SMOOTH",
"161 59 LINE SMOOTH",
"161 41 OFFCURVE",
"152 32 OFFCURVE",
"134 32 CURVE SMOOTH",
"62 32 LINE",
"62 0 LINE"
);
}
);
width = 756;
},
{
layerId = "6701A4D5-8A3D-41DD-8AA0-CFF5D98C5FFE";
paths = (
{
closed = 1;
nodes = (
"390 0 LINE",
"390 32 LINE",
"328 32 LINE SMOOTH",
"311 32 OFFCURVE",
"304 39 OFFCURVE",
"304 56 CURVE SMOOTH",
"304 305 LINE",
"347 354 LINE",
"492 78 LINE",
"495 73 OFFCURVE",
"497 61 OFFCURVE",
"497 53 CURVE SMOOTH",
"497 42 OFFCURVE",
"488 32 OFFCURVE",
"476 32 CURVE SMOOTH",
"436 32 LINE",
"436 0 LINE",
"750 0 LINE",
"750 32 LINE",
"723 32 LINE SMOOTH",
"692 32 OFFCURVE",
"680 43 OFFCURVE",
"663 76 CURVE SMOOTH",
"452 475 LINE",
"586 630 LINE SMOOTH",
"609 658 OFFCURVE",
"641 680 OFFCURVE",
"669 680 CURVE SMOOTH",
"704 680 LINE",
"704 712 LINE",
"457 712 LINE",
"457 680 LINE",
"486 680 LINE SMOOTH",
"507 680 OFFCURVE",
"522 662 OFFCURVE",
"522 638 CURVE SMOOTH",
"522 618 OFFCURVE",
"516 605 OFFCURVE",
"497 584 CURVE SMOOTH",
"304 360 LINE",
"304 656 LINE SMOOTH",
"304 675 OFFCURVE",
"311 680 OFFCURVE",
"328 680 CURVE SMOOTH",
"390 680 LINE",
"390 712 LINE",
"62 712 LINE",
"62 680 LINE",
"132 680 LINE SMOOTH",
"151 680 OFFCURVE",
"156 675 OFFCURVE",
"156 656 CURVE SMOOTH",
"156 56 LINE SMOOTH",
"156 39 OFFCURVE",
"151 32 OFFCURVE",
"132 32 CURVE SMOOTH",
"62 32 LINE",
"62 0 LINE"
);
}
);
width = 770;
}
);
note = K;
rightKerningGroup = K;
unicode = 004B;
},
{
glyphname = L;
lastChange = "2017-06-04 13:30:38 +0000";
layers = (
{
layerId = "9ECE4C5B-AE6E-45F8-855F-54F501A6946D";
paths = (
{
closed = 1;
nodes = (
"603 0 LINE",
"612 298 LINE",
"587 298 LINE",
"586 293 OFFCURVE",
"584 282 OFFCURVE",
"581 264 CURVE SMOOTH",
"556 136 OFFCURVE",
"518 32 OFFCURVE",
"381 32 CURVE SMOOTH",
"280 32 LINE SMOOTH",
"262 32 OFFCURVE",
"253 41 OFFCURVE",
"253 59 CURVE SMOOTH",
"253 653 LINE SMOOTH",
"253 672 OFFCURVE",
"261 680 OFFCURVE",
"280 680 CURVE SMOOTH",
"368 680 LINE",
"368 712 LINE",
"62 712 LINE",
"62 680 LINE",
"134 680 LINE SMOOTH",
"153 680 OFFCURVE",
"161 672 OFFCURVE",
"161 653 CURVE SMOOTH",
"161 59 LINE SMOOTH",
"161 41 OFFCURVE",
"152 32 OFFCURVE",
"134 32 CURVE SMOOTH",
"62 32 LINE",
"62 0 LINE"
);
}
);
width = 670;
},
{
layerId = "6701A4D5-8A3D-41DD-8AA0-CFF5D98C5FFE";
paths = (
{
closed = 1;
nodes = (
"628 0 LINE",
"636 308 LINE",
"604 308 LINE",
"601 293 OFFCURVE",
"588 237 OFFCURVE",
"579 206 CURVE SMOOTH",
"554 123 OFFCURVE",
"501 32 OFFCURVE",
"429 32 CURVE SMOOTH",
"328 32 LINE SMOOTH",
"311 32 OFFCURVE",
"304 40 OFFCURVE",
"304 59 CURVE SMOOTH",
"304 656 LINE SMOOTH",
"304 675 OFFCURVE",
"311 680 OFFCURVE",
"328 680 CURVE SMOOTH",
"398 680 LINE",
"398 712 LINE",
"62 712 LINE",
"62 680 LINE",
"132 680 LINE SMOOTH",
"151 680 OFFCURVE",
"156 675 OFFCURVE",
"156 656 CURVE SMOOTH",
"156 59 LINE SMOOTH",
"156 40 OFFCURVE",
"149 32 OFFCURVE",
"132 32 CURVE SMOOTH",
"62 32 LINE",
"62 0 LINE"
);
}
);
width = 670;
}
);
note = L;
rightKerningGroup = L;
unicode = 004C;
},
{
glyphname = M;
lastChange = "2017-06-04 13:30:59 +0000";
layers = (
{
layerId = "9ECE4C5B-AE6E-45F8-855F-54F501A6946D";
paths = (
{
closed = 1;
nodes = (
"422 -12 LINE",
"605 649 LINE",
"605 59 LINE SMOOTH",
"605 41 OFFCURVE",
"596 32 OFFCURVE",
"578 32 CURVE SMOOTH",
"506 32 LINE",
"506 0 LINE",
"796 0 LINE",
"796 32 LINE",
"724 32 LINE SMOOTH",
"706 32 OFFCURVE",
"697 41 OFFCURVE",
"697 59 CURVE SMOOTH",
"697 653 LINE SMOOTH",
"697 672 OFFCURVE",
"705 680 OFFCURVE",
"724 680 CURVE SMOOTH",
"796 680 LINE",
"796 712 LINE",
"589 712 LINE",
"437 161 LINE",
"274 712 LINE",
"62 712 LINE",
"62 680 LINE",
"134 680 LINE SMOOTH",
"153 680 OFFCURVE",
"161 672 OFFCURVE",
"161 653 CURVE SMOOTH",
"161 112 LINE SMOOTH",
"161 52 OFFCURVE",
"141 32 OFFCURVE",
"62 32 CURVE",
"62 0 LINE",
"300 0 LINE",
"300 32 LINE",
"223 32 OFFCURVE",
"201 50 OFFCURVE",
"201 112 CURVE SMOOTH",
"201 622 LINE",
"207 622 LINE",
"398 -12 LINE"
);
}
);
width = 838;
},
{
layerId = "6701A4D5-8A3D-41DD-8AA0-CFF5D98C5FFE";
paths = (
{
closed = 1;
nodes = (
"442 -12 LINE",
"616 625 LINE",
"616 56 LINE SMOOTH",
"616 39 OFFCURVE",
"611 32 OFFCURVE",
"592 32 CURVE SMOOTH",
"522 32 LINE",
"522 0 LINE",
"858 0 LINE",
"858 32 LINE",
"788 32 LINE SMOOTH",
"771 32 OFFCURVE",
"764 39 OFFCURVE",
"764 56 CURVE SMOOTH",
"764 656 LINE SMOOTH",
"764 675 OFFCURVE",
"771 680 OFFCURVE",
"788 680 CURVE SMOOTH",
"858 680 LINE",
"858 712 LINE",
"604 712 LINE",
"470 220 LINE",
"287 712 LINE",
"48 712 LINE",
"48 680 LINE",
"128 680 LINE SMOOTH",
"147 680 OFFCURVE",
"152 675 OFFCURVE",
"152 656 CURVE SMOOTH",
"152 122 LINE SMOOTH",
"152 62 OFFCURVE",
"105 32 OFFCURVE",
"48 32 CURVE",
"48 0 LINE",
"296 0 LINE",
"296 32 LINE",
"239 32 OFFCURVE",
"192 62 OFFCURVE",
"192 122 CURVE SMOOTH",
"192 537 LINE",
"199 537 LINE",
"403 -12 LINE"
);
}
);
width = 890;
}
);
note = M;
unicode = 004D;
},
{
glyphname = N;
lastChange = "2017-06-04 13:32:27 +0000";
layers = (
{
layerId = "9ECE4C5B-AE6E-45F8-855F-54F501A6946D";
paths = (
{
closed = 1;
nodes = (
"638 -18 LINE",
"638 600 LINE SMOOTH",
"638 659 OFFCURVE",
"659 680 OFFCURVE",
"738 680 CURVE",
"738 712 LINE",
"500 712 LINE",
"500 680 LINE",
"577 680 OFFCURVE",
"598 662 OFFCURVE",
"598 600 CURVE SMOOTH",
"598 154 LINE",
"251 712 LINE",
"62 712 LINE",
"62 680 LINE",
"134 680 LINE SMOOTH",
"153 680 OFFCURVE",
"160 672 OFFCURVE",
"161 653 CURVE",
"161 112 LINE SMOOTH",
"161 52 OFFCURVE",
"143 32 OFFCURVE",
"62 32 CURVE",
"62 0 LINE",
"300 0 LINE",
"300 32 LINE",
"223 32 OFFCURVE",
"201 50 OFFCURVE",
"201 112 CURVE SMOOTH",
"201 603 LINE",
"205 603 LINE",
"598 -18 LINE"
);
}
);
width = 770;
},
{
layerId = "6701A4D5-8A3D-41DD-8AA0-CFF5D98C5FFE";
paths = (
{
closed = 1;
nodes = (
"630 -18 LINE",
"630 576 LINE SMOOTH",
"630 637 OFFCURVE",
"683 680 OFFCURVE",
"756 680 CURVE",
"756 712 LINE",
"464 712 LINE",
"464 680 LINE",
"537 680 OFFCURVE",
"590 637 OFFCURVE",
"590 576 CURVE SMOOTH",
"590 255 LINE",
"270 712 LINE",
"48 712 LINE",
"48 680 LINE",
"66 680 LINE SMOOTH",
"126 680 OFFCURVE",
"174 595 OFFCURVE",
"174 563 CURVE SMOOTH",
"174 136 LINE SMOOTH",
"174 75 OFFCURVE",
"121 32 OFFCURVE",
"48 32 CURVE",
"48 0 LINE",
"340 0 LINE",
"340 32 LINE",
"267 32 OFFCURVE",
"214 75 OFFCURVE",
"214 136 CURVE SMOOTH",
"214 517 LINE",
"218 517 LINE",
"592 -18 LINE"
);
}
);
width = 764;
}
);
note = N;
rightKerningGroup = G;
unicode = 004E;
},
{
glyphname = Ntilde;
lastChange = "2017-06-04 13:32:52 +0000";
layers = (
{
layerId = "9ECE4C5B-AE6E-45F8-855F-54F501A6946D";
paths = (
{
closed = 1;
nodes = (
"285 835 OFFCURVE",
"300 850 OFFCURVE",
"324 850 CURVE SMOOTH",
"339 850 OFFCURVE",
"363 844 OFFCURVE",
"396 833 CURVE SMOOTH",
"437 819 OFFCURVE",
"467 812 OFFCURVE",
"486 812 CURVE SMOOTH",
"537 812 OFFCURVE",
"568 853 OFFCURVE",
"572 904 CURVE",
"552 906 LINE",
"547 879 OFFCURVE",
"532 864 OFFCURVE",
"508 864 CURVE SMOOTH",
"493 864 OFFCURVE",
"469 870 OFFCURVE",
"436 881 CURVE SMOOTH",
"395 895 OFFCURVE",
"365 902 OFFCURVE",
"346 902 CURVE SMOOTH",
"295 902 OFFCURVE",
"264 861 OFFCURVE",
"260 810 CURVE",
"280 808 LINE"
);
},
{
closed = 1;
nodes = (
"638 -18 LINE",
"638 600 LINE SMOOTH",
"638 659 OFFCURVE",
"659 680 OFFCURVE",
"738 680 CURVE",
"738 712 LINE",
"500 712 LINE",
"500 680 LINE",
"577 680 OFFCURVE",
"598 662 OFFCURVE",
"598 600 CURVE SMOOTH",
"598 154 LINE",
"251 712 LINE",
"62 712 LINE",
"62 680 LINE",
"134 680 LINE SMOOTH",
"153 680 OFFCURVE",
"160 672 OFFCURVE",
"161 653 CURVE",
"161 112 LINE SMOOTH",
"161 52 OFFCURVE",
"143 32 OFFCURVE",
"62 32 CURVE",
"62 0 LINE",
"300 0 LINE",
"300 32 LINE",
"223 32 OFFCURVE",
"201 50 OFFCURVE",
"201 112 CURVE SMOOTH",
"201 603 LINE",
"205 603 LINE",
"598 -18 LINE"
);
}
);
width = 770;
},
{
layerId = "6701A4D5-8A3D-41DD-8AA0-CFF5D98C5FFE";
paths = (
{
closed = 1;
nodes = (
"297 827 OFFCURVE",
"310 840 OFFCURVE",
"332 840 CURVE SMOOTH",
"390 840 OFFCURVE",
"417 804 OFFCURVE",
"478 804 CURVE SMOOTH",
"495 804 OFFCURVE",
"511 810 OFFCURVE",
"524 821 CURVE SMOOTH",
"551 843 OFFCURVE",
"566 879 OFFCURVE",
"566 912 CURVE",
"544 912 LINE",
"539 885 OFFCURVE",
"526 872 OFFCURVE",
"504 872 CURVE SMOOTH",
"485 872 OFFCURVE",
"463 877 OFFCURVE",
"440 887 CURVE SMOOTH",
"405 902 OFFCURVE",
"387 908 OFFCURVE",
"358 908 CURVE SMOOTH",
"307 908 OFFCURVE",
"270 855 OFFCURVE",
"270 800 CURVE",
"292 800 LINE"
);
},
{
closed = 1;
nodes = (
"630 -18 LINE",
"630 576 LINE SMOOTH",
"630 637 OFFCURVE",
"683 680 OFFCURVE",
"756 680 CURVE",
"756 712 LINE",
"464 712 LINE",
"464 680 LINE",
"537 680 OFFCURVE",
"590 637 OFFCURVE",
"590 576 CURVE SMOOTH",
"590 255 LINE",
"270 712 LINE",
"48 712 LINE",
"48 680 LINE",
"66 680 LINE SMOOTH",
"126 680 OFFCURVE",
"174 595 OFFCURVE",
"174 563 CURVE SMOOTH",
"174 136 LINE SMOOTH",
"174 75 OFFCURVE",
"121 32 OFFCURVE",
"48 32 CURVE",
"48 0 LINE",
"340 0 LINE",
"340 32 LINE",
"267 32 OFFCURVE",
"214 75 OFFCURVE",
"214 136 CURVE SMOOTH",
"214 517 LINE",
"218 517 LINE",
"592 -18 LINE"
);
}
);
width = 764;
}
);
note = Ntilde;
rightKerningGroup = G;
unicode = 00D1;
},
{
glyphname = O;
lastChange = "2017-06-04 13:33:22 +0000";
layers = (
{
layerId = "9ECE4C5B-AE6E-45F8-855F-54F501A6946D";
paths = (
{
closed = 1;
nodes = (
"525 -18 OFFCURVE",
"650 154 OFFCURVE",
"650 356 CURVE SMOOTH",
"650 522 OFFCURVE",
"550 730 OFFCURVE",
"360 730 CURVE SMOOTH",
"195 730 OFFCURVE",
"70 558 OFFCURVE",
"70 356 CURVE SMOOTH",
"70 190 OFFCURVE",
"170 -18 OFFCURVE",
"360 -18 CURVE SMOOTH"
);
},
{
closed = 1;
nodes = (
"229 14 OFFCURVE",
"176 139 OFFCURVE",
"176 356 CURVE SMOOTH",
"176 575 OFFCURVE",
"229 698 OFFCURVE",
"360 698 CURVE SMOOTH",
"491 698 OFFCURVE",
"544 575 OFFCURVE",
"544 356 CURVE SMOOTH",
"544 139 OFFCURVE",
"491 14 OFFCURVE",
"360 14 CURVE SMOOTH"
);
}
);
width = 700;
},
{
layerId = "6701A4D5-8A3D-41DD-8AA0-CFF5D98C5FFE";
paths = (
{
closed = 1;
nodes = (
"522 -18 OFFCURVE",
"662 159 OFFCURVE",
"662 356 CURVE SMOOTH",
"662 519 OFFCURVE",
"547 730 OFFCURVE",
"366 730 CURVE SMOOTH",
"212 730 OFFCURVE",
"70 553 OFFCURVE",
"70 356 CURVE SMOOTH",
"70 194 OFFCURVE",
"186 -18 OFFCURVE",
"366 -18 CURVE SMOOTH"
);
},
{
closed = 1;
nodes = (
"264 14 OFFCURVE",
"240 54 OFFCURVE",
"240 357 CURVE",
"240 655 OFFCURVE",
"263 698 OFFCURVE",
"366 698 CURVE SMOOTH",
"468 698 OFFCURVE",
"492 659 OFFCURVE",
"492 352 CURVE",
"492 57 OFFCURVE",
"468 14 OFFCURVE",
"366 14 CURVE SMOOTH"
);
}
);
width = 712;
}
);
leftKerningGroup = O;
note = O;
rightKerningGroup = O;
unicode = 004F;
},
{
glyphname = Oacute;
lastChange = "2017-06-04 13:33:39 +0000";
layers = (
{
layerId = "9ECE4C5B-AE6E-45F8-855F-54F501A6946D";
paths = (
{
closed = 1;
nodes = (
"476 863 LINE SMOOTH",
"495 877 OFFCURVE",
"504 892 OFFCURVE",
"504 907 CURVE SMOOTH",
"504 926 OFFCURVE",
"493 938 OFFCURVE",
"476 938 CURVE SMOOTH",
"457 938 OFFCURVE",
"444 930 OFFCURVE",
"427 906 CURVE SMOOTH",
"335 773 LINE",
"348 762 LINE"
);
},
{
closed = 1;
nodes = (
"416 -18 OFFCURVE",
"466 0 OFFCURVE",
"510 35 CURVE SMOOTH",
"598 106 OFFCURVE",
"650 229 OFFCURVE",
"650 356 CURVE SMOOTH",
"650 419 OFFCURVE",
"638 480 OFFCURVE",
"613 538 CURVE SMOOTH",
"564 653 OFFCURVE",
"472 730 OFFCURVE",
"360 730 CURVE SMOOTH",
"304 730 OFFCURVE",
"254 712 OFFCURVE",
"210 677 CURVE SMOOTH",
"122 606 OFFCURVE",
"70 483 OFFCURVE",
"70 356 CURVE SMOOTH",
"70 293 OFFCURVE",
"82 232 OFFCURVE",
"107 175 CURVE SMOOTH",
"156 59 OFFCURVE",
"248 -18 OFFCURVE",
"360 -18 CURVE SMOOTH"
);
},
{
closed = 1;
nodes = (
"229 14 OFFCURVE",
"176 139 OFFCURVE",
"176 356 CURVE SMOOTH",
"176 575 OFFCURVE",
"229 698 OFFCURVE",
"360 698 CURVE SMOOTH",
"491 698 OFFCURVE",
"544 575 OFFCURVE",
"544 356 CURVE SMOOTH",
"544 139 OFFCURVE",
"491 14 OFFCURVE",
"360 14 CURVE SMOOTH"
);
}
);
width = 700;
},
{
layerId = "6701A4D5-8A3D-41DD-8AA0-CFF5D98C5FFE";
paths = (
{
closed = 1;
nodes = (
"486 860 LINE SMOOTH",
"505 874 OFFCURVE",
"514 890 OFFCURVE",
"514 908 CURVE SMOOTH",
"514 932 OFFCURVE",
"496 948 OFFCURVE",
"472 948 CURVE SMOOTH",
"453 948 OFFCURVE",
"438 940 OFFCURVE",
"423 916 CURVE SMOOTH",
"334 778 LINE",
"354 760 LINE"
);
},
{
closed = 1;
nodes = (
"417 -18 OFFCURVE",
"466 0 OFFCURVE",
"512 35 CURVE SMOOTH",
"603 106 OFFCURVE",
"662 229 OFFCURVE",
"662 356 CURVE SMOOTH",
"662 419 OFFCURVE",
"648 480 OFFCURVE",
"621 538 CURVE SMOOTH",
"566 653 OFFCURVE",
"469 730 OFFCURVE",
"366 730 CURVE SMOOTH",
"315 730 OFFCURVE",
"266 712 OFFCURVE",
"221 677 CURVE SMOOTH",
"129 606 OFFCURVE",
"70 483 OFFCURVE",
"70 356 CURVE SMOOTH",
"70 293 OFFCURVE",
"84 232 OFFCURVE",
"111 175 CURVE SMOOTH",
"166 59 OFFCURVE",
"263 -18 OFFCURVE",
"366 -18 CURVE SMOOTH"
);
},
{
closed = 1;
nodes = (
"264 14 OFFCURVE",
"240 53 OFFCURVE",
"240 363 CURVE",
"240 654 OFFCURVE",
"264 698 OFFCURVE",
"366 698 CURVE SMOOTH",
"467 698 OFFCURVE",
"492 658 OFFCURVE",
"492 357 CURVE",
"492 57 OFFCURVE",
"469 14 OFFCURVE",
"366 14 CURVE SMOOTH"
);
}
);
width = 712;
}
);
leftKerningGroup = O;
note = Oacute;
rightKerningGroup = O;
unicode = 00D3;
},
{
glyphname = Ocircumflex;
lastChange = "2017-06-04 13:33:53 +0000";
layers = (
{
layerId = "9ECE4C5B-AE6E-45F8-855F-54F501A6946D";
paths = (
{
closed = 1;
nodes = (
"247 774 OFFCURVE",
"319 821 OFFCURVE",
"360 858 CURVE",
"401 821 OFFCURVE",
"473 774 OFFCURVE",
"508 762 CURVE",
"518 778 LINE",
"457 813 OFFCURVE",
"411 860 OFFCURVE",
"380 920 CURVE",
"340 920 LINE",
"309 860 OFFCURVE",
"263 813 OFFCURVE",
"202 778 CURVE",
"212 762 LINE"
);
},
{
closed = 1;
nodes = (
"416 -18 OFFCURVE",
"466 0 OFFCURVE",
"510 35 CURVE SMOOTH",
"598 106 OFFCURVE",
"650 229 OFFCURVE",
"650 356 CURVE SMOOTH",
"650 419 OFFCURVE",
"638 480 OFFCURVE",
"613 538 CURVE SMOOTH",
"564 653 OFFCURVE",
"472 730 OFFCURVE",
"360 730 CURVE SMOOTH",
"304 730 OFFCURVE",
"254 712 OFFCURVE",
"210 677 CURVE SMOOTH",
"122 606 OFFCURVE",
"70 483 OFFCURVE",
"70 356 CURVE SMOOTH",
"70 293 OFFCURVE",
"82 232 OFFCURVE",
"107 175 CURVE SMOOTH",
"156 59 OFFCURVE",
"248 -18 OFFCURVE",
"360 -18 CURVE SMOOTH"
);
},
{
closed = 1;
nodes = (
"229 14 OFFCURVE",
"176 139 OFFCURVE",
"176 356 CURVE SMOOTH",
"176 575 OFFCURVE",
"229 698 OFFCURVE",
"360 698 CURVE SMOOTH",
"491 698 OFFCURVE",
"544 575 OFFCURVE",
"544 356 CURVE SMOOTH",
"544 139 OFFCURVE",
"491 14 OFFCURVE",
"360 14 CURVE SMOOTH"
);
}
);
width = 700;
},
{
layerId = "6701A4D5-8A3D-41DD-8AA0-CFF5D98C5FFE";
paths = (
{
closed = 1;
nodes = (
"267 782 OFFCURVE",
"303 802 OFFCURVE",
"366 842 CURVE",
"429 802 OFFCURVE",
"465 782 OFFCURVE",
"522 762 CURVE",
"534 786 LINE",
"468 819 OFFCURVE",
"419 867 OFFCURVE",
"386 930 CURVE",
"346 930 LINE",
"312 868 OFFCURVE",
"263 820 OFFCURVE",
"198 786 CURVE",
"210 762 LINE"
);
},
{
closed = 1;
nodes = (
"417 -18 OFFCURVE",
"466 0 OFFCURVE",
"512 35 CURVE SMOOTH",
"603 106 OFFCURVE",
"662 229 OFFCURVE",
"662 356 CURVE SMOOTH",
"662 419 OFFCURVE",
"648 480 OFFCURVE",
"621 538 CURVE SMOOTH",
"566 653 OFFCURVE",
"469 730 OFFCURVE",
"366 730 CURVE SMOOTH",
"315 730 OFFCURVE",
"266 712 OFFCURVE",
"221 677 CURVE SMOOTH",
"129 606 OFFCURVE",
"70 483 OFFCURVE",
"70 356 CURVE SMOOTH",
"70 293 OFFCURVE",
"84 232 OFFCURVE",
"111 175 CURVE SMOOTH",
"166 59 OFFCURVE",
"263 -18 OFFCURVE",
"366 -18 CURVE SMOOTH"
);
},
{
closed = 1;
nodes = (
"265 14 OFFCURVE",
"240 54 OFFCURVE",
"240 355 CURVE",
"240 655 OFFCURVE",
"263 698 OFFCURVE",
"366 698 CURVE SMOOTH",
"467 698 OFFCURVE",
"492 658 OFFCURVE",
"492 359 CURVE",
"492 57 OFFCURVE",
"469 14 OFFCURVE",
"366 14 CURVE SMOOTH"
);
}
);
width = 712;
}
);
leftKerningGroup = O;
note = Ocircumflex;
rightKerningGroup = O;
unicode = 00D4;
},
{
glyphname = Odieresis;
lastChange = "2017-06-04 13:34:07 +0000";
layers = (
{
layerId = "9ECE4C5B-AE6E-45F8-855F-54F501A6946D";
paths = (
{
closed = 1;
nodes = (
"289 798 OFFCURVE",
"310 821 OFFCURVE",
"310 850 CURVE SMOOTH",
"310 881 OFFCURVE",
"289 902 OFFCURVE",
"258 902 CURVE SMOOTH",
"229 902 OFFCURVE",
"206 881 OFFCURVE",
"206 850 CURVE SMOOTH",
"206 821 OFFCURVE",
"229 798 OFFCURVE",
"258 798 CURVE SMOOTH"
);
},
{
closed = 1;
nodes = (
"493 798 OFFCURVE",
"514 821 OFFCURVE",
"514 850 CURVE SMOOTH",
"514 881 OFFCURVE",
"493 902 OFFCURVE",
"462 902 CURVE SMOOTH",
"433 902 OFFCURVE",
"410 881 OFFCURVE",
"410 850 CURVE SMOOTH",
"410 821 OFFCURVE",
"433 798 OFFCURVE",
"462 798 CURVE SMOOTH"
);
},
{
closed = 1;
nodes = (
"416 -18 OFFCURVE",
"466 0 OFFCURVE",
"510 35 CURVE SMOOTH",
"598 106 OFFCURVE",
"650 229 OFFCURVE",
"650 356 CURVE SMOOTH",
"650 419 OFFCURVE",
"638 480 OFFCURVE",
"613 538 CURVE SMOOTH",
"564 653 OFFCURVE",
"472 730 OFFCURVE",
"360 730 CURVE SMOOTH",
"304 730 OFFCURVE",
"254 712 OFFCURVE",
"210 677 CURVE SMOOTH",
"122 606 OFFCURVE",
"70 483 OFFCURVE",
"70 356 CURVE SMOOTH",
"70 293 OFFCURVE",
"82 232 OFFCURVE",
"107 175 CURVE SMOOTH",
"156 59 OFFCURVE",
"248 -18 OFFCURVE",
"360 -18 CURVE SMOOTH"
);
},
{
closed = 1;
nodes = (
"229 14 OFFCURVE",
"176 139 OFFCURVE",
"176 356 CURVE SMOOTH",
"176 575 OFFCURVE",
"229 698 OFFCURVE",
"360 698 CURVE SMOOTH",
"491 698 OFFCURVE",
"544 575 OFFCURVE",
"544 356 CURVE SMOOTH",
"544 139 OFFCURVE",
"491 14 OFFCURVE",
"360 14 CURVE SMOOTH"
);
}
);
width = 700;
},
{
layerId = "6701A4D5-8A3D-41DD-8AA0-CFF5D98C5FFE";
paths = (
{
closed = 1;
nodes = (
"293 794 OFFCURVE",
"320 821 OFFCURVE",
"320 854 CURVE SMOOTH",
"320 887 OFFCURVE",
"293 914 OFFCURVE",
"260 914 CURVE SMOOTH",
"227 914 OFFCURVE",
"200 887 OFFCURVE",
"200 854 CURVE SMOOTH",
"200 821 OFFCURVE",
"227 794 OFFCURVE",
"260 794 CURVE SMOOTH"
);
},
{
closed = 1;
nodes = (
"505 794 OFFCURVE",
"532 821 OFFCURVE",
"532 854 CURVE SMOOTH",
"532 887 OFFCURVE",
"505 914 OFFCURVE",
"472 914 CURVE SMOOTH",
"439 914 OFFCURVE",
"412 887 OFFCURVE",
"412 854 CURVE SMOOTH",
"412 821 OFFCURVE",
"439 794 OFFCURVE",
"472 794 CURVE SMOOTH"
);
},
{
closed = 1;
nodes = (
"417 -18 OFFCURVE",
"466 0 OFFCURVE",
"512 35 CURVE SMOOTH",
"603 106 OFFCURVE",
"662 229 OFFCURVE",
"662 356 CURVE SMOOTH",
"662 419 OFFCURVE",
"648 480 OFFCURVE",
"621 538 CURVE SMOOTH",
"566 653 OFFCURVE",
"469 730 OFFCURVE",
"366 730 CURVE SMOOTH",
"315 730 OFFCURVE",
"266 712 OFFCURVE",
"221 677 CURVE SMOOTH",
"129 606 OFFCURVE",
"70 483 OFFCURVE",
"70 356 CURVE SMOOTH",
"70 293 OFFCURVE",
"84 232 OFFCURVE",
"111 175 CURVE SMOOTH",
"166 59 OFFCURVE",
"263 -18 OFFCURVE",
"366 -18 CURVE SMOOTH"
);
},
{
closed = 1;
nodes = (
"265 14 OFFCURVE",
"240 54 OFFCURVE",
"240 355 CURVE",
"240 655 OFFCURVE",
"263 698 OFFCURVE",
"366 698 CURVE SMOOTH",
"468 698 OFFCURVE",
"492 658 OFFCURVE",
"492 353 CURVE",
"492 57 OFFCURVE",
"468 14 OFFCURVE",
"366 14 CURVE SMOOTH"
);
}
);
width = 712;
}
);
leftKerningGroup = O;
note = Odieresis;
rightKerningGroup = O;
unicode = 00D6;
},
{
glyphname = Ograve;
lastChange = "2017-06-04 13:34:24 +0000";
layers = (
{
layerId = "9ECE4C5B-AE6E-45F8-855F-54F501A6946D";
paths = (
{
closed = 1;
nodes = (
"385 773 LINE",
"293 906 LINE SMOOTH",
"276 930 OFFCURVE",
"263 938 OFFCURVE",
"244 938 CURVE SMOOTH",
"227 938 OFFCURVE",
"216 926 OFFCURVE",
"216 907 CURVE SMOOTH",
"216 892 OFFCURVE",
"225 877 OFFCURVE",
"244 863 CURVE SMOOTH",
"372 762 LINE"
);
},
{
closed = 1;
nodes = (
"416 -18 OFFCURVE",
"466 0 OFFCURVE",
"510 35 CURVE SMOOTH",
"598 106 OFFCURVE",
"650 229 OFFCURVE",
"650 356 CURVE SMOOTH",
"650 419 OFFCURVE",
"638 480 OFFCURVE",
"613 538 CURVE SMOOTH",
"564 653 OFFCURVE",
"472 730 OFFCURVE",
"360 730 CURVE SMOOTH",
"304 730 OFFCURVE",
"254 712 OFFCURVE",
"210 677 CURVE SMOOTH",
"122 606 OFFCURVE",
"70 483 OFFCURVE",
"70 356 CURVE SMOOTH",
"70 293 OFFCURVE",
"82 232 OFFCURVE",
"107 175 CURVE SMOOTH",
"156 59 OFFCURVE",
"248 -18 OFFCURVE",
"360 -18 CURVE SMOOTH"
);
},
{
closed = 1;
nodes = (
"229 14 OFFCURVE",
"176 139 OFFCURVE",
"176 356 CURVE SMOOTH",
"176 575 OFFCURVE",
"229 698 OFFCURVE",
"360 698 CURVE SMOOTH",
"491 698 OFFCURVE",
"544 575 OFFCURVE",
"544 356 CURVE SMOOTH",
"544 139 OFFCURVE",
"491 14 OFFCURVE",
"360 14 CURVE SMOOTH"
);
}
);
width = 700;
},
{
layerId = "6701A4D5-8A3D-41DD-8AA0-CFF5D98C5FFE";
paths = (
{
closed = 1;
nodes = (
"398 778 LINE",
"309 916 LINE SMOOTH",
"294 940 OFFCURVE",
"279 948 OFFCURVE",
"260 948 CURVE SMOOTH",
"236 948 OFFCURVE",
"218 932 OFFCURVE",
"218 908 CURVE SMOOTH",
"218 890 OFFCURVE",
"227 874 OFFCURVE",
"246 860 CURVE SMOOTH",
"378 760 LINE"
);
},
{
closed = 1;
nodes = (
"417 -18 OFFCURVE",
"466 0 OFFCURVE",
"512 35 CURVE SMOOTH",
"603 106 OFFCURVE",
"662 229 OFFCURVE",
"662 356 CURVE SMOOTH",
"662 419 OFFCURVE",
"648 480 OFFCURVE",
"621 538 CURVE SMOOTH",
"566 653 OFFCURVE",
"469 730 OFFCURVE",
"366 730 CURVE SMOOTH",
"315 730 OFFCURVE",
"266 712 OFFCURVE",
"221 677 CURVE SMOOTH",
"129 606 OFFCURVE",
"70 483 OFFCURVE",
"70 356 CURVE SMOOTH",
"70 293 OFFCURVE",
"84 232 OFFCURVE",
"111 175 CURVE SMOOTH",
"166 59 OFFCURVE",
"263 -18 OFFCURVE",
"366 -18 CURVE SMOOTH"
);
},
{
closed = 1;
nodes = (
"265 14 OFFCURVE",
"240 54 OFFCURVE",
"240 355 CURVE",
"240 655 OFFCURVE",
"263 698 OFFCURVE",
"366 698 CURVE SMOOTH",
"467 698 OFFCURVE",
"492 658 OFFCURVE",
"492 360 CURVE",
"492 57 OFFCURVE",
"469 14 OFFCURVE",
"366 14 CURVE SMOOTH"
);
}
);
width = 712;
}
);
leftKerningGroup = O;
note = Ograve;
rightKerningGroup = O;
unicode = 00D2;
},
{
glyphname = Oslash;
lastChange = "2017-06-04 13:34:41 +0000";
layers = (
{
layerId = "9ECE4C5B-AE6E-45F8-855F-54F501A6946D";
paths = (
{
closed = 1;
nodes = (
"170 72 LINE",
"221 15 OFFCURVE",
"287 -18 OFFCURVE",
"360 -18 CURVE SMOOTH",
"416 -18 OFFCURVE",
"466 0 OFFCURVE",
"510 35 CURVE SMOOTH",
"598 106 OFFCURVE",
"650 229 OFFCURVE",
"650 356 CURVE SMOOTH",
"650 448 OFFCURVE",
"623 539 OFFCURVE",
"574 608 CURVE",
"648 706 LINE",
"616 730 LINE",
"549 641 LINE",
"498 697 OFFCURVE",
"433 730 OFFCURVE",
"360 730 CURVE SMOOTH",
"304 730 OFFCURVE",
"254 712 OFFCURVE",
"210 677 CURVE SMOOTH",
"121 606 OFFCURVE",
"70 483 OFFCURVE",
"70 356 CURVE SMOOTH",
"70 265 OFFCURVE",
"97 174 OFFCURVE",
"145 105 CURVE",
"70 6 LINE",
"102 -18 LINE"
);
},
{
closed = 1;
nodes = (
"182 223 OFFCURVE",
"176 285 OFFCURVE",
"176 356 CURVE SMOOTH",
"176 575 OFFCURVE",
"229 698 OFFCURVE",
"360 698 CURVE SMOOTH",
"431 698 OFFCURVE",
"481 662 OFFCURVE",
"510 589 CURVE",
"194 171 LINE"
);
},
{
closed = 1;
nodes = (
"289 14 OFFCURVE",
"239 51 OFFCURVE",
"209 124 CURVE",
"525 543 LINE",
"538 492 OFFCURVE",
"544 430 OFFCURVE",
"544 356 CURVE SMOOTH",
"544 139 OFFCURVE",
"491 14 OFFCURVE",
"360 14 CURVE SMOOTH"
);
}
);
width = 700;
},
{
layerId = "6701A4D5-8A3D-41DD-8AA0-CFF5D98C5FFE";
paths = (
{
closed = 1;
nodes = (
"175 78 LINE",
"228 18 OFFCURVE",
"297 -18 OFFCURVE",
"366 -18 CURVE SMOOTH",
"417 -18 OFFCURVE",
"466 0 OFFCURVE",
"512 35 CURVE SMOOTH",
"603 106 OFFCURVE",
"662 229 OFFCURVE",
"662 356 CURVE SMOOTH",
"662 445 OFFCURVE",
"633 534 OFFCURVE",
"582 603 CURVE",
"662 706 LINE",
"631 730 LINE",
"557 634 LINE",
"504 694 OFFCURVE",
"435 730 OFFCURVE",
"366 730 CURVE SMOOTH",
"315 730 OFFCURVE",
"266 712 OFFCURVE",
"221 677 CURVE SMOOTH",
"129 606 OFFCURVE",
"70 483 OFFCURVE",
"70 356 CURVE SMOOTH",
"70 267 OFFCURVE",
"99 178 OFFCURVE",
"150 109 CURVE",
"70 6 LINE",
"101 -18 LINE"
);
},
{
closed = 1;
nodes = (
"240 319 OFFCURVE",
"240 412 OFFCURVE",
"240 506 CURVE SMOOTH",
"240 643 OFFCURVE",
"285 698 OFFCURVE",
"366 698 CURVE SMOOTH",
"438 698 OFFCURVE",
"482 655 OFFCURVE",
"490 548 CURVE",
"240 225 LINE"
);
},
{
closed = 1;
nodes = (
"294 14 OFFCURVE",
"250 57 OFFCURVE",
"242 164 CURVE",
"492 487 LINE",
"492 393 OFFCURVE",
"492 300 OFFCURVE",
"492 206 CURVE SMOOTH",
"492 69 OFFCURVE",
"447 14 OFFCURVE",
"366 14 CURVE SMOOTH"
);
}
);
width = 712;
}
);
note = Oslash;
unicode = 00D8;
},
{
glyphname = Otilde;
lastChange = "2017-06-04 13:35:06 +0000";
layers = (
{
layerId = "9ECE4C5B-AE6E-45F8-855F-54F501A6946D";
paths = (
{
closed = 1;
nodes = (
"229 835 OFFCURVE",
"244 850 OFFCURVE",
"268 850 CURVE SMOOTH",
"283 850 OFFCURVE",
"307 844 OFFCURVE",
"340 833 CURVE SMOOTH",
"381 819 OFFCURVE",
"411 812 OFFCURVE",
"430 812 CURVE SMOOTH",
"481 812 OFFCURVE",
"512 853 OFFCURVE",
"516 904 CURVE",
"496 906 LINE",
"491 879 OFFCURVE",
"476 864 OFFCURVE",
"452 864 CURVE SMOOTH",
"437 864 OFFCURVE",
"413 870 OFFCURVE",
"380 881 CURVE SMOOTH",
"339 895 OFFCURVE",
"309 902 OFFCURVE",
"290 902 CURVE SMOOTH",
"239 902 OFFCURVE",
"208 861 OFFCURVE",
"204 810 CURVE",
"224 808 LINE"
);
},
{
closed = 1;
nodes = (
"416 -18 OFFCURVE",
"466 0 OFFCURVE",
"510 35 CURVE SMOOTH",
"598 106 OFFCURVE",
"650 229 OFFCURVE",
"650 356 CURVE SMOOTH",
"650 419 OFFCURVE",
"638 480 OFFCURVE",
"613 538 CURVE SMOOTH",
"564 653 OFFCURVE",
"472 730 OFFCURVE",
"360 730 CURVE SMOOTH",
"304 730 OFFCURVE",
"254 712 OFFCURVE",
"210 677 CURVE SMOOTH",
"122 606 OFFCURVE",
"70 483 OFFCURVE",
"70 356 CURVE SMOOTH",
"70 293 OFFCURVE",
"82 232 OFFCURVE",
"107 175 CURVE SMOOTH",
"156 59 OFFCURVE",
"248 -18 OFFCURVE",
"360 -18 CURVE SMOOTH"
);
},
{
closed = 1;
nodes = (
"229 14 OFFCURVE",
"176 139 OFFCURVE",
"176 356 CURVE SMOOTH",
"176 575 OFFCURVE",
"229 698 OFFCURVE",
"360 698 CURVE SMOOTH",
"491 698 OFFCURVE",
"544 575 OFFCURVE",
"544 356 CURVE SMOOTH",
"544 139 OFFCURVE",
"491 14 OFFCURVE",
"360 14 CURVE SMOOTH"
);
}
);
width = 700;
},
{
layerId = "6701A4D5-8A3D-41DD-8AA0-CFF5D98C5FFE";
paths = (
{
closed = 1;
nodes = (
"245 827 OFFCURVE",
"258 840 OFFCURVE",
"280 840 CURVE SMOOTH",
"299 840 OFFCURVE",
"321 835 OFFCURVE",
"344 825 CURVE SMOOTH",
"379 810 OFFCURVE",
"397 804 OFFCURVE",
"426 804 CURVE SMOOTH",
"474 804 OFFCURVE",
"514 857 OFFCURVE",
"514 912 CURVE",
"492 912 LINE",
"487 885 OFFCURVE",
"474 872 OFFCURVE",
"452 872 CURVE SMOOTH",
"433 872 OFFCURVE",
"411 877 OFFCURVE",
"388 887 CURVE SMOOTH",
"353 902 OFFCURVE",
"335 908 OFFCURVE",
"306 908 CURVE SMOOTH",
"255 908 OFFCURVE",
"218 855 OFFCURVE",
"218 800 CURVE",
"240 800 LINE"
);
},
{
closed = 1;
nodes = (
"417 -18 OFFCURVE",
"466 0 OFFCURVE",
"512 35 CURVE SMOOTH",
"603 106 OFFCURVE",
"662 229 OFFCURVE",
"662 356 CURVE SMOOTH",
"662 419 OFFCURVE",
"648 480 OFFCURVE",
"621 538 CURVE SMOOTH",
"566 653 OFFCURVE",
"469 730 OFFCURVE",
"366 730 CURVE SMOOTH",
"315 730 OFFCURVE",
"266 712 OFFCURVE",
"221 677 CURVE SMOOTH",
"129 606 OFFCURVE",
"70 483 OFFCURVE",
"70 356 CURVE SMOOTH",
"70 293 OFFCURVE",
"84 232 OFFCURVE",
"111 175 CURVE SMOOTH",
"166 59 OFFCURVE",
"263 -18 OFFCURVE",
"366 -18 CURVE SMOOTH"
);
},
{
closed = 1;
nodes = (
"265 14 OFFCURVE",
"240 54 OFFCURVE",
"240 352 CURVE",
"240 655 OFFCURVE",
"263 698 OFFCURVE",
"366 698 CURVE SMOOTH",
"468 698 OFFCURVE",
"492 659 OFFCURVE",
"492 345 CURVE",
"492 58 OFFCURVE",
"468 14 OFFCURVE",
"366 14 CURVE SMOOTH"
);
}
);
width = 712;
}
);
leftKerningGroup = O;
note = Otilde;
rightKerningGroup = O;
unicode = 00D5;
},
{
glyphname = OE;
lastChange = "2017-06-04 13:35:42 +0000";
layers = (
{
layerId = "9ECE4C5B-AE6E-45F8-855F-54F501A6946D";
paths = (
{
closed = 1;
nodes = (
"391 -18 OFFCURVE",
"452 0 OFFCURVE",
"519 0 CURVE SMOOTH",
"978 0 LINE",
"990 276 LINE",
"965 276 LINE",
"959 233 OFFCURVE",
"949 32 OFFCURVE",
"798 32 CURVE SMOOTH",
"638 32 LINE SMOOTH",
"620 32 OFFCURVE",
"611 41 OFFCURVE",
"611 59 CURVE SMOOTH",
"611 352 LINE",
"688 352 LINE SMOOTH",
"756 352 OFFCURVE",
"784 268 OFFCURVE",
"784 189 CURVE",
"810 189 LINE",
"810 547 LINE",
"784 547 LINE",
"784 468 OFFCURVE",
"756 384 OFFCURVE",
"688 384 CURVE SMOOTH",
"611 384 LINE",
"611 653 LINE SMOOTH",
"611 672 OFFCURVE",
"619 680 OFFCURVE",
"638 680 CURVE SMOOTH",
"797 680 LINE SMOOTH",
"906 680 OFFCURVE",
"957 570 OFFCURVE",
"957 462 CURVE",
"982 462 LINE",
"978 712 LINE",
"518 712 LINE SMOOTH",
"448 712 OFFCURVE",
"396 730 OFFCURVE",
"360 730 CURVE SMOOTH",
"304 730 OFFCURVE",
"254 712 OFFCURVE",
"210 677 CURVE SMOOTH",
"121 606 OFFCURVE",
"70 483 OFFCURVE",
"70 356 CURVE SMOOTH",
"70 293 OFFCURVE",
"82 232 OFFCURVE",
"107 175 CURVE SMOOTH",
"155 59 OFFCURVE",
"248 -18 OFFCURVE",
"360 -18 CURVE SMOOTH"
);
},
{
closed = 1;
nodes = (
"229 14 OFFCURVE",
"176 139 OFFCURVE",
"176 356 CURVE SMOOTH",
"176 575 OFFCURVE",
"229 698 OFFCURVE",
"360 698 CURVE SMOOTH",
"471 698 OFFCURVE",
"519 635 OFFCURVE",
"519 530 CURVE SMOOTH",
"519 181 LINE SMOOTH",
"519 78 OFFCURVE",
"461 14 OFFCURVE",
"360 14 CURVE SMOOTH"
);
}
);
width = 1048;
},
{
layerId = "6701A4D5-8A3D-41DD-8AA0-CFF5D98C5FFE";
paths = (
{
closed = 1;
nodes = (
"408 -18 OFFCURVE",
"444 0 OFFCURVE",
"502 0 CURVE SMOOTH",
"956 0 LINE",
"962 276 LINE",
"930 276 LINE",
"924 180 OFFCURVE",
"869 32 OFFCURVE",
"761 32 CURVE SMOOTH",
"652 32 LINE SMOOTH",
"635 32 OFFCURVE",
"628 39 OFFCURVE",
"628 56 CURVE SMOOTH",
"628 344 LINE",
"679 344 LINE SMOOTH",
"733 344 OFFCURVE",
"779 268 OFFCURVE",
"779 205 CURVE",
"811 205 LINE",
"811 518 LINE",
"779 518 LINE",
"779 464 OFFCURVE",
"739 380 OFFCURVE",
"679 380 CURVE SMOOTH",
"628 380 LINE",
"628 656 LINE SMOOTH",
"628 675 OFFCURVE",
"635 680 OFFCURVE",
"652 680 CURVE SMOOTH",
"762 680 LINE SMOOTH",
"839 680 OFFCURVE",
"922 564 OFFCURVE",
"922 480 CURVE",
"954 480 LINE",
"948 712 LINE",
"502 712 LINE SMOOTH",
"446 712 OFFCURVE",
"409 730 OFFCURVE",
"360 730 CURVE SMOOTH",
"309 730 OFFCURVE",
"261 712 OFFCURVE",
"216 677 CURVE SMOOTH",
"127 605 OFFCURVE",
"70 481 OFFCURVE",
"70 356 CURVE SMOOTH",
"70 293 OFFCURVE",
"83 233 OFFCURVE",
"110 176 CURVE SMOOTH",
"162 60 OFFCURVE",
"257 -18 OFFCURVE",
"360 -18 CURVE SMOOTH"
);
},
{
closed = 1;
nodes = (
"260 14 OFFCURVE",
"240 53 OFFCURVE",
"240 363 CURVE",
"240 655 OFFCURVE",
"260 698 OFFCURVE",
"360 698 CURVE SMOOTH",
"440 698 OFFCURVE",
"480 645 OFFCURVE",
"480 506 CURVE SMOOTH",
"480 206 LINE SMOOTH",
"480 67 OFFCURVE",
"440 14 OFFCURVE",
"360 14 CURVE SMOOTH"
);
}
);
width = 1014;
}
);
leftKerningGroup = O;
note = OE;
unicode = 0152;
},
{
glyphname = P;
lastChange = "2017-06-04 12:55:10 +0000";
layers = (
{
layerId = "9ECE4C5B-AE6E-45F8-855F-54F501A6946D";
paths = (
{
closed = 1;
nodes = (
"368 0 LINE",
"368 32 LINE",
"280 32 LINE SMOOTH",
"260 32 OFFCURVE",
"253 40 OFFCURVE",
"253 59 CURVE SMOOTH",
"253 336 LINE",
"396 336 LINE SMOOTH",
"443 336 OFFCURVE",
"484 344 OFFCURVE",
"521 361 CURVE SMOOTH",
"593 393 OFFCURVE",
"636 453 OFFCURVE",
"636 526 CURVE SMOOTH",
"636 562 OFFCURVE",
"626 594 OFFCURVE",
"606 623 CURVE SMOOTH",
"565 679 OFFCURVE",
"489 712 OFFCURVE",
"396 712 CURVE SMOOTH",
"62 712 LINE",
"62 680 LINE",
"134 680 LINE SMOOTH",
"153 680 OFFCURVE",
"161 672 OFFCURVE",
"161 653 CURVE SMOOTH",
"161 59 LINE SMOOTH",
"161 41 OFFCURVE",
"152 32 OFFCURVE",
"134 32 CURVE SMOOTH",
"62 32 LINE",
"62 0 LINE"
);
},
{
closed = 1;
nodes = (
"253 653 LINE SMOOTH",
"253 672 OFFCURVE",
"261 680 OFFCURVE",
"280 680 CURVE SMOOTH",
"409 680 LINE SMOOTH",
"482 680 OFFCURVE",
"530 613 OFFCURVE",
"530 526 CURVE SMOOTH",
"530 439 OFFCURVE",
"481 368 OFFCURVE",
"409 368 CURVE SMOOTH",
"253 368 LINE"
);
}
);
width = 680;
},
{
layerId = "6701A4D5-8A3D-41DD-8AA0-CFF5D98C5FFE";
paths = (
{
closed = 1;
nodes = (
"416 0 LINE",
"416 32 LINE",
"328 32 LINE SMOOTH",
"311 32 OFFCURVE",
"304 39 OFFCURVE",
"304 56 CURVE SMOOTH",
"304 336 LINE",
"418 336 LINE SMOOTH",
"465 336 OFFCURVE",
"506 344 OFFCURVE",
"543 361 CURVE SMOOTH",
"615 393 OFFCURVE",
"658 453 OFFCURVE",
"658 526 CURVE SMOOTH",
"658 562 OFFCURVE",
"648 594 OFFCURVE",
"628 623 CURVE SMOOTH",
"587 679 OFFCURVE",
"511 712 OFFCURVE",
"418 712 CURVE SMOOTH",
"62 712 LINE",
"62 680 LINE",
"132 680 LINE SMOOTH",
"151 680 OFFCURVE",
"156 675 OFFCURVE",
"156 656 CURVE SMOOTH",
"156 56 LINE SMOOTH",
"156 39 OFFCURVE",
"151 32 OFFCURVE",
"132 32 CURVE SMOOTH",
"62 32 LINE",
"62 0 LINE"
);
},
{
closed = 1;
nodes = (
"304 656 LINE SMOOTH",
"304 675 OFFCURVE",
"311 680 OFFCURVE",
"328 680 CURVE SMOOTH",
"403 680 LINE SMOOTH",
"474 680 OFFCURVE",
"498 623 OFFCURVE",
"498 526 CURVE SMOOTH",
"498 427 OFFCURVE",
"472 368 OFFCURVE",
"403 368 CURVE SMOOTH",
"304 368 LINE"
);
}
);
width = 702;
}
);
note = P;
rightKerningGroup = P;
unicode = 0050;
},
{
glyphname = Thorn;
lastChange = "2017-06-04 12:55:10 +0000";
layers = (
{
layerId = "9ECE4C5B-AE6E-45F8-855F-54F501A6946D";
paths = (
{
closed = 1;
nodes = (
"368 0 LINE",
"368 32 LINE",
"280 32 LINE SMOOTH",
"262 32 OFFCURVE",
"253 41 OFFCURVE",
"253 59 CURVE SMOOTH",
"253 210 LINE",
"396 210 LINE SMOOTH",
"443 210 OFFCURVE",
"484 218 OFFCURVE",
"521 235 CURVE SMOOTH",
"593 267 OFFCURVE",
"636 327 OFFCURVE",
"636 400 CURVE SMOOTH",
"636 436 OFFCURVE",
"626 468 OFFCURVE",
"606 497 CURVE SMOOTH",
"565 553 OFFCURVE",
"489 586 OFFCURVE",
"396 586 CURVE SMOOTH",
"253 586 LINE",
"253 653 LINE SMOOTH",
"253 672 OFFCURVE",
"261 680 OFFCURVE",
"280 680 CURVE SMOOTH",
"368 680 LINE",
"368 712 LINE",
"62 712 LINE",
"62 680 LINE",
"134 680 LINE SMOOTH",
"153 680 OFFCURVE",
"161 672 OFFCURVE",
"161 653 CURVE SMOOTH",
"161 59 LINE SMOOTH",
"161 41 OFFCURVE",
"152 32 OFFCURVE",
"134 32 CURVE SMOOTH",
"62 32 LINE",
"62 0 LINE"
);
},
{
closed = 1;
nodes = (
"253 527 LINE SMOOTH",
"253 546 OFFCURVE",
"261 554 OFFCURVE",
"280 554 CURVE SMOOTH",
"409 554 LINE SMOOTH",
"482 554 OFFCURVE",
"530 487 OFFCURVE",
"530 400 CURVE SMOOTH",
"530 313 OFFCURVE",
"481 242 OFFCURVE",
"409 242 CURVE SMOOTH",
"253 242 LINE"
);
}
);
width = 680;
},
{
layerId = "6701A4D5-8A3D-41DD-8AA0-CFF5D98C5FFE";
paths = (
{
closed = 1;
nodes = (
"416 0 LINE",
"416 32 LINE",
"328 32 LINE SMOOTH",
"311 32 OFFCURVE",
"304 39 OFFCURVE",
"304 56 CURVE SMOOTH",
"304 210 LINE",
"418 210 LINE SMOOTH",
"465 210 OFFCURVE",
"506 218 OFFCURVE",
"543 235 CURVE SMOOTH",
"615 267 OFFCURVE",
"658 327 OFFCURVE",
"658 400 CURVE SMOOTH",
"658 436 OFFCURVE",
"648 468 OFFCURVE",
"628 497 CURVE SMOOTH",
"587 553 OFFCURVE",
"511 586 OFFCURVE",
"418 586 CURVE SMOOTH",
"304 586 LINE",
"304 656 LINE SMOOTH",
"304 675 OFFCURVE",
"311 680 OFFCURVE",
"328 680 CURVE SMOOTH",
"416 680 LINE",
"416 712 LINE",
"62 712 LINE",
"62 680 LINE",
"132 680 LINE SMOOTH",
"151 680 OFFCURVE",
"156 675 OFFCURVE",
"156 656 CURVE SMOOTH",
"156 56 LINE SMOOTH",
"156 39 OFFCURVE",
"151 32 OFFCURVE",
"132 32 CURVE SMOOTH",
"62 32 LINE",
"62 0 LINE"
);
},
{
closed = 1;
nodes = (
"304 530 LINE SMOOTH",
"304 549 OFFCURVE",
"311 554 OFFCURVE",
"328 554 CURVE SMOOTH",
"403 554 LINE SMOOTH",
"474 554 OFFCURVE",
"498 497 OFFCURVE",
"498 400 CURVE SMOOTH",
"498 301 OFFCURVE",
"472 242 OFFCURVE",
"403 242 CURVE SMOOTH",
"304 242 LINE"
);
}
);
width = 702;
}
);
note = Thorn;
unicode = 00DE;
},
{
glyphname = Q;
lastChange = "2017-06-04 13:36:44 +0000";
layers = (
{
layerId = "9ECE4C5B-AE6E-45F8-855F-54F501A6946D";
paths = (
{
closed = 1;
nodes = (
"626 -168 OFFCURVE",
"650 -85 OFFCURVE",
"650 50 CURVE",
"631 50 LINE",
"631 -37 OFFCURVE",
"618 -96 OFFCURVE",
"567 -96 CURVE SMOOTH",
"524 -96 OFFCURVE",
"500 -50 OFFCURVE",
"485 19 CURVE",
"519 39 OFFCURVE",
"548 66 OFFCURVE",
"572 99 CURVE SMOOTH",
"623 168 OFFCURVE",
"650 261 OFFCURVE",
"650 360 CURVE SMOOTH",
"650 423 OFFCURVE",
"638 484 OFFCURVE",
"613 541 CURVE SMOOTH",
"564 655 OFFCURVE",
"472 730 OFFCURVE",
"360 730 CURVE SMOOTH",
"304 730 OFFCURVE",
"254 713 OFFCURVE",
"210 678 CURVE SMOOTH",
"122 609 OFFCURVE",
"70 487 OFFCURVE",
"70 360 CURVE SMOOTH",
"70 296 OFFCURVE",
"82 235 OFFCURVE",
"107 177 CURVE SMOOTH",
"155 61 OFFCURVE",
"248 -18 OFFCURVE",
"360 -18 CURVE SMOOTH",
"377 -18 OFFCURVE",
"398 -15 OFFCURVE",
"422 -8 CURVE",
"429 -101 OFFCURVE",
"455 -168 OFFCURVE",
"535 -168 CURVE SMOOTH"
);
},
{
closed = 1;
nodes = (
"195 106 OFFCURVE",
"176 223 OFFCURVE",
"176 360 CURVE SMOOTH",
"176 577 OFFCURVE",
"228 698 OFFCURVE",
"360 698 CURVE SMOOTH",
"492 698 OFFCURVE",
"544 577 OFFCURVE",
"544 360 CURVE SMOOTH",
"544 213 OFFCURVE",
"524 115 OFFCURVE",
"473 63 CURVE",
"456 127 OFFCURVE",
"420 171 OFFCURVE",
"357 171 CURVE SMOOTH",
"302 171 OFFCURVE",
"260 131 OFFCURVE",
"260 75 CURVE SMOOTH",
"260 64 OFFCURVE",
"262 55 OFFCURVE",
"265 47 CURVE",
"264 46 LINE"
);
},
{
closed = 1;
nodes = (
"316 14 OFFCURVE",
"294 34 OFFCURVE",
"294 74 CURVE SMOOTH",
"294 114 OFFCURVE",
"319 139 OFFCURVE",
"354 139 CURVE SMOOTH",
"402 139 OFFCURVE",
"415 93 OFFCURVE",
"419 25 CURVE",
"401 18 OFFCURVE",
"381 14 OFFCURVE",
"360 14 CURVE SMOOTH"
);
}
);
width = 700;
},
{
layerId = "6701A4D5-8A3D-41DD-8AA0-CFF5D98C5FFE";
paths = (
{
closed = 1;
nodes = (
"673 -238 OFFCURVE",
"674 -37 OFFCURVE",
"661 56 CURVE",
"631 56 LINE",
"638 -6 OFFCURVE",
"636 -110 OFFCURVE",
"555 -110 CURVE SMOOTH",
"503 -110 OFFCURVE",
"476 -67 OFFCURVE",
"471 9 CURVE",
"508 28 OFFCURVE",
"541 56 OFFCURVE",
"570 92 CURVE SMOOTH",
"628 164 OFFCURVE",
"662 260 OFFCURVE",
"662 356 CURVE SMOOTH",
"662 419 OFFCURVE",
"648 480 OFFCURVE",
"621 538 CURVE SMOOTH",
"566 653 OFFCURVE",
"469 730 OFFCURVE",
"366 730 CURVE SMOOTH",
"315 730 OFFCURVE",
"266 712 OFFCURVE",
"221 677 CURVE SMOOTH",
"129 606 OFFCURVE",
"70 483 OFFCURVE",
"70 356 CURVE SMOOTH",
"70 293 OFFCURVE",
"84 233 OFFCURVE",
"111 176 CURVE SMOOTH",
"165 60 OFFCURVE",
"262 -18 OFFCURVE",
"367 -18 CURVE SMOOTH",
"386 -18 OFFCURVE",
"403 -16 OFFCURVE",
"419 -11 CURVE",
"407 -109 OFFCURVE",
"412 -238 OFFCURVE",
"532 -238 CURVE SMOOTH"
);
},
{
closed = 1;
nodes = (
"242 100 OFFCURVE",
"240 126 OFFCURVE",
"240 359 CURVE",
"240 655 OFFCURVE",
"264 698 OFFCURVE",
"366 698 CURVE SMOOTH",
"467 698 OFFCURVE",
"492 658 OFFCURVE",
"492 356 CURVE",
"492 136 OFFCURVE",
"493 122 OFFCURVE",
"464 71 CURVE",
"456 126 OFFCURVE",
"418 166 OFFCURVE",
"362 166 CURVE SMOOTH",
"307 166 OFFCURVE",
"274 125 OFFCURVE",
"274 80 CURVE SMOOTH",
"274 72 OFFCURVE",
"275 64 OFFCURVE",
"277 56 CURVE",
"275 55 LINE"
);
},
{
closed = 1;
nodes = (
"329 14 OFFCURVE",
"302 22 OFFCURVE",
"302 75 CURVE SMOOTH",
"302 104 OFFCURVE",
"323 133 OFFCURVE",
"351 133 CURVE SMOOTH",
"408 133 OFFCURVE",
"421 92 OFFCURVE",
"421 25 CURVE",
"403 18 OFFCURVE",
"385 14 OFFCURVE",
"366 14 CURVE SMOOTH"
);
}
);
width = 712;
}
);
leftKerningGroup = O;
note = Q;
unicode = 0051;
},
{
glyphname = R;
lastChange = "2017-06-04 13:37:32 +0000";
layers = (
{
layerId = "9ECE4C5B-AE6E-45F8-855F-54F501A6946D";
paths = (
{
closed = 1;
nodes = (
"668 -12 OFFCURVE",
"684 73 OFFCURVE",
"684 160 CURVE",
"659 160 LINE",
"659 88 OFFCURVE",
"645 52 OFFCURVE",
"616 52 CURVE SMOOTH",
"593 52 OFFCURVE",
"584 64 OFFCURVE",
"577 99 CURVE SMOOTH",
"573 116 OFFCURVE",
"569 144 OFFCURVE",
"564 182 CURVE SMOOTH",
"548 315 OFFCURVE",
"498 361 OFFCURVE",
"422 376 CURVE",
"422 380 LINE",
"526 391 OFFCURVE",
"611 453 OFFCURVE",
"611 552 CURVE SMOOTH",
"611 667 OFFCURVE",
"519 712 OFFCURVE",
"390 712 CURVE SMOOTH",
"62 712 LINE",
"62 680 LINE",
"134 680 LINE SMOOTH",
"153 680 OFFCURVE",
"161 672 OFFCURVE",
"161 653 CURVE SMOOTH",
"161 59 LINE SMOOTH",
"161 41 OFFCURVE",
"152 32 OFFCURVE",
"134 32 CURVE SMOOTH",
"62 32 LINE",
"62 0 LINE",
"369 0 LINE",
"369 32 LINE",
"280 32 LINE SMOOTH",
"260 32 OFFCURVE",
"253 40 OFFCURVE",
"253 59 CURVE SMOOTH",
"253 368 LINE",
"362 368 LINE SMOOTH",
"430 368 OFFCURVE",
"459 301 OFFCURVE",
"460 212 CURVE SMOOTH",
"461 129 OFFCURVE",
"471 70 OFFCURVE",
"489 35 CURVE SMOOTH",
"506 2 OFFCURVE",
"536 -12 OFFCURVE",
"580 -12 CURVE SMOOTH"
);
},
{
closed = 1;
nodes = (
"253 653 LINE SMOOTH",
"253 672 OFFCURVE",
"261 680 OFFCURVE",
"280 680 CURVE SMOOTH",
"384 680 LINE SMOOTH",
"459 680 OFFCURVE",
"505 633 OFFCURVE",
"505 552 CURVE SMOOTH",
"505 457 OFFCURVE",
"462 400 OFFCURVE",
"350 400 CURVE SMOOTH",
"253 400 LINE"
);
}
);
width = 716;
},
{
layerId = "6701A4D5-8A3D-41DD-8AA0-CFF5D98C5FFE";
paths = (
{
closed = 1;
nodes = (
"684 -24 OFFCURVE",
"714 51 OFFCURVE",
"714 180 CURVE",
"682 180 LINE",
"682 120 OFFCURVE",
"673 32 OFFCURVE",
"632 32 CURVE SMOOTH",
"613 32 OFFCURVE",
"604 46 OFFCURVE",
"604 74 CURVE SMOOTH",
"604 111 OFFCURVE",
"604 148 OFFCURVE",
"604 185 CURVE SMOOTH",
"604 302 OFFCURVE",
"546 351 OFFCURVE",
"442 370 CURVE",
"442 377 LINE",
"553 390 OFFCURVE",
"626 444 OFFCURVE",
"626 536 CURVE SMOOTH",
"626 644 OFFCURVE",
"530 712 OFFCURVE",
"386 712 CURVE SMOOTH",
"62 712 LINE",
"62 680 LINE",
"132 680 LINE SMOOTH",
"151 680 OFFCURVE",
"156 675 OFFCURVE",
"156 656 CURVE SMOOTH",
"156 56 LINE SMOOTH",
"156 39 OFFCURVE",
"151 32 OFFCURVE",
"132 32 CURVE SMOOTH",
"62 32 LINE",
"62 0 LINE",
"416 0 LINE",
"416 32 LINE",
"328 32 LINE SMOOTH",
"311 32 OFFCURVE",
"304 39 OFFCURVE",
"304 56 CURVE SMOOTH",
"304 364 LINE",
"360 364 LINE SMOOTH",
"425 364 OFFCURVE",
"456 314 OFFCURVE",
"456 250 CURVE SMOOTH",
"456 209 OFFCURVE",
"456 167 OFFCURVE",
"456 126 CURVE SMOOTH",
"456 27 OFFCURVE",
"510 -24 OFFCURVE",
"595 -24 CURVE SMOOTH"
);
},
{
closed = 1;
nodes = (
"304 656 LINE SMOOTH",
"304 675 OFFCURVE",
"311 680 OFFCURVE",
"328 680 CURVE SMOOTH",
"371 680 LINE SMOOTH",
"442 680 OFFCURVE",
"466 635 OFFCURVE",
"466 544 CURVE SMOOTH",
"466 451 OFFCURVE",
"442 396 OFFCURVE",
"371 396 CURVE SMOOTH",
"304 396 LINE"
);
}
);
width = 730;
}
);
note = R;
rightKerningGroup = R;
unicode = 0052;
},
{
glyphname = S;
lastChange = "2017-06-04 13:37:48 +0000";
layers = (
{
layerId = "9ECE4C5B-AE6E-45F8-855F-54F501A6946D";
paths = (
{
closed = 1;
nodes = (
"400 -18 OFFCURVE",
"440 -8 OFFCURVE",
"473 12 CURVE SMOOTH",
"537 51 OFFCURVE",
"568 117 OFFCURVE",
"568 188 CURVE SMOOTH",
"568 261 OFFCURVE",
"523 334 OFFCURVE",
"434 370 CURVE SMOOTH",
"241 447 LINE SMOOTH",
"181 471 OFFCURVE",
"150 500 OFFCURVE",
"150 560 CURVE SMOOTH",
"150 647 OFFCURVE",
"203 698 OFFCURVE",
"278 698 CURVE SMOOTH",
"311 698 OFFCURVE",
"342 688 OFFCURVE",
"373 667 CURVE SMOOTH",
"434 626 OFFCURVE",
"483 548 OFFCURVE",
"504 452 CURVE",
"528 452 LINE",
"518 712 LINE",
"494 712 LINE",
"490 676 LINE SMOOTH",
"488 660 OFFCURVE",
"481 652 OFFCURVE",
"470 652 CURVE SMOOTH",
"459 652 OFFCURVE",
"445 661 OFFCURVE",
"432 670 CURVE",
"379 710 OFFCURVE",
"330 730 OFFCURVE",
"286 730 CURVE SMOOTH",
"174 730 OFFCURVE",
"90 670 OFFCURVE",
"90 542 CURVE SMOOTH",
"90 447 OFFCURVE",
"139 381 OFFCURVE",
"244 338 CURVE SMOOTH",
"396 277 LINE SMOOTH",
"469 248 OFFCURVE",
"508 215 OFFCURVE",
"508 150 CURVE SMOOTH",
"508 75 OFFCURVE",
"460 14 OFFCURVE",
"351 14 CURVE SMOOTH",
"314 14 OFFCURVE",
"277 28 OFFCURVE",
"242 56 CURVE SMOOTH",
"171 111 OFFCURVE",
"120 207 OFFCURVE",
"112 306 CURVE",
"88 306 LINE",
"95 -10 LINE",
"118 -10 LINE",
"122 30 LINE",
"126 59 OFFCURVE",
"135 73 OFFCURVE",
"148 73 CURVE SMOOTH",
"153 73 OFFCURVE",
"170 62 OFFCURVE",
"198 41 CURVE SMOOTH",
"238 12 OFFCURVE",
"295 -18 OFFCURVE",
"351 -18 CURVE SMOOTH"
);
}
);
width = 620;
},
{
layerId = "6701A4D5-8A3D-41DD-8AA0-CFF5D98C5FFE";
paths = (
{
closed = 1;
nodes = (
"396 -18 OFFCURVE",
"437 -8 OFFCURVE",
"470 12 CURVE SMOOTH",
"537 52 OFFCURVE",
"570 119 OFFCURVE",
"570 188 CURVE SMOOTH",
"570 256 OFFCURVE",
"535 324 OFFCURVE",
"480 360 CURVE SMOOTH",
"265 499 LINE SMOOTH",
"206 538 OFFCURVE",
"176 576 OFFCURVE",
"176 614 CURVE SMOOTH",
"176 670 OFFCURVE",
"209 698 OFFCURVE",
"280 698 CURVE SMOOTH",
"312 698 OFFCURVE",
"343 687 OFFCURVE",
"373 666 CURVE SMOOTH",
"432 622 OFFCURVE",
"479 544 OFFCURVE",
"504 452 CURVE",
"536 452 LINE",
"526 712 LINE",
"494 712 LINE",
"488 685 LINE SMOOTH",
"485 670 OFFCURVE",
"478 662 OFFCURVE",
"466 662 CURVE SMOOTH",
"457 662 OFFCURVE",
"445 668 OFFCURVE",
"430 680 CURVE",
"383 713 OFFCURVE",
"335 730 OFFCURVE",
"288 730 CURVE SMOOTH",
"177 730 OFFCURVE",
"92 667 OFFCURVE",
"92 538 CURVE SMOOTH",
"92 455 OFFCURVE",
"141 396 OFFCURVE",
"204 356 CURVE SMOOTH",
"418 218 LINE SMOOTH",
"465 187 OFFCURVE",
"490 163 OFFCURVE",
"490 128 CURVE SMOOTH",
"490 69 OFFCURVE",
"458 14 OFFCURVE",
"353 14 CURVE SMOOTH",
"316 14 OFFCURVE",
"282 28 OFFCURVE",
"251 55 CURVE SMOOTH",
"187 110 OFFCURVE",
"141 205 OFFCURVE",
"122 306 CURVE",
"90 306 LINE",
"96 -10 LINE",
"127 -10 LINE",
"132 22 LINE SMOOTH",
"135 45 OFFCURVE",
"144 56 OFFCURVE",
"158 56 CURVE SMOOTH",
"173 56 OFFCURVE",
"186 44 OFFCURVE",
"210 26 CURVE",
"241 1 OFFCURVE",
"288 -18 OFFCURVE",
"347 -18 CURVE SMOOTH"
);
}
);
width = 620;
}
);
note = S;
rightKerningGroup = S;
unicode = 0053;
},
{
glyphname = T;
lastChange = "2017-06-04 13:38:11 +0000";
layers = (
{
layerId = "9ECE4C5B-AE6E-45F8-855F-54F501A6946D";
paths = (
{
closed = 1;
nodes = (
"536 0 LINE",
"536 32 LINE",
"440 32 LINE SMOOTH",
"422 32 OFFCURVE",
"413 41 OFFCURVE",
"413 59 CURVE SMOOTH",
"413 656 LINE SMOOTH",
"413 675 OFFCURVE",
"420 683 OFFCURVE",
"440 683 CURVE SMOOTH",
"584 683 OFFCURVE",
"634 583 OFFCURVE",
"634 426 CURVE",
"662 426 LINE",
"654 712 LINE",
"80 712 LINE",
"72 426 LINE",
"100 426 LINE",
"100 584 OFFCURVE",
"150 683 OFFCURVE",
"294 683 CURVE SMOOTH",
"314 683 OFFCURVE",
"321 675 OFFCURVE",
"321 656 CURVE SMOOTH",
"321 59 LINE SMOOTH",
"321 41 OFFCURVE",
"312 32 OFFCURVE",
"294 32 CURVE SMOOTH",
"198 32 LINE",
"198 0 LINE"
);
}
);
width = 714;
},
{
layerId = "6701A4D5-8A3D-41DD-8AA0-CFF5D98C5FFE";
paths = (
{
closed = 1;
nodes = (
"546 0 LINE",
"546 32 LINE",
"466 32 LINE SMOOTH",
"449 32 OFFCURVE",
"442 39 OFFCURVE",
"442 56 CURVE SMOOTH",
"442 646 LINE SMOOTH",
"442 667 OFFCURVE",
"456 680 OFFCURVE",
"479 680 CURVE SMOOTH",
"572 680 OFFCURVE",
"607 561 OFFCURVE",
"644 414 CURVE",
"676 414 LINE",
"668 712 LINE",
"68 712 LINE",
"60 414 LINE",
"92 414 LINE",
"124 540 OFFCURVE",
"156 680 OFFCURVE",
"257 680 CURVE SMOOTH",
"280 680 OFFCURVE",
"294 667 OFFCURVE",
"294 646 CURVE SMOOTH",
"294 56 LINE SMOOTH",
"294 39 OFFCURVE",
"289 32 OFFCURVE",
"270 32 CURVE SMOOTH",
"190 32 LINE",
"190 0 LINE"
);
}
);
width = 716;
}
);
leftKerningGroup = T;
note = T;
rightKerningGroup = T;
unicode = 0054;
},
{
glyphname = U;
lastChange = "2017-06-04 13:38:29 +0000";
layers = (
{
layerId = "9ECE4C5B-AE6E-45F8-855F-54F501A6946D";
paths = (
{
closed = 1;
nodes = (
"463 -18 OFFCURVE",
"505 -8 OFFCURVE",
"542 12 CURVE SMOOTH",
"614 52 OFFCURVE",
"653 124 OFFCURVE",
"653 208 CURVE SMOOTH",
"653 599 LINE SMOOTH",
"653 658 OFFCURVE",
"674 680 OFFCURVE",
"752 680 CURVE",
"752 712 LINE",
"514 712 LINE",
"514 680 LINE",
"590 680 OFFCURVE",
"613 661 OFFCURVE",
"613 599 CURVE SMOOTH",
"613 198 LINE SMOOTH",
"613 165 OFFCURVE",
"605 135 OFFCURVE",
"590 107 CURVE SMOOTH",
"559 51 OFFCURVE",
"498 14 OFFCURVE",
"414 14 CURVE SMOOTH",
"306 14 OFFCURVE",
"243 86 OFFCURVE",
"243 210 CURVE SMOOTH",
"243 653 LINE SMOOTH",
"243 672 OFFCURVE",
"251 680 OFFCURVE",
"270 680 CURVE SMOOTH",
"343 680 LINE",
"343 712 LINE",
"52 712 LINE",
"52 680 LINE",
"124 680 LINE SMOOTH",
"143 680 OFFCURVE",
"151 672 OFFCURVE",
"151 653 CURVE SMOOTH",
"151 237 LINE SMOOTH",
"151 191 OFFCURVE",
"160 149 OFFCURVE",
"179 111 CURVE SMOOTH",
"215 34 OFFCURVE",
"294 -18 OFFCURVE",
"414 -18 CURVE SMOOTH"
);
}
);
width = 780;
},
{
layerId = "6701A4D5-8A3D-41DD-8AA0-CFF5D98C5FFE";
paths = (
{
closed = 1;
nodes = (
"468 -18 OFFCURVE",
"510 -8 OFFCURVE",
"547 12 CURVE SMOOTH",
"619 52 OFFCURVE",
"658 124 OFFCURVE",
"658 208 CURVE SMOOTH",
"658 590 LINE SMOOTH",
"658 650 OFFCURVE",
"705 680 OFFCURVE",
"762 680 CURVE",
"762 712 LINE",
"514 712 LINE",
"514 680 LINE",
"571 680 OFFCURVE",
"618 650 OFFCURVE",
"618 590 CURVE SMOOTH",
"618 198 LINE SMOOTH",
"618 166 OFFCURVE",
"611 137 OFFCURVE",
"596 110 CURVE SMOOTH",
"567 57 OFFCURVE",
"512 22 OFFCURVE",
"447 22 CURVE SMOOTH",
"350 22 OFFCURVE",
"304 75 OFFCURVE",
"304 198 CURVE SMOOTH",
"304 656 LINE SMOOTH",
"304 675 OFFCURVE",
"311 680 OFFCURVE",
"328 680 CURVE SMOOTH",
"392 680 LINE",
"392 712 LINE",
"68 712 LINE",
"68 680 LINE",
"132 680 LINE SMOOTH",
"151 680 OFFCURVE",
"156 675 OFFCURVE",
"156 656 CURVE SMOOTH",
"156 237 LINE SMOOTH",
"156 191 OFFCURVE",
"165 149 OFFCURVE",
"184 111 CURVE SMOOTH",
"220 34 OFFCURVE",
"299 -18 OFFCURVE",
"419 -18 CURVE SMOOTH"
);
}
);
width = 794;
}
);
leftKerningGroup = U;
note = U;
rightKerningGroup = U;
unicode = 0055;
},
{
glyphname = Uacute;
lastChange = "2017-06-04 13:38:37 +0000";
layers = (
{
layerId = "9ECE4C5B-AE6E-45F8-855F-54F501A6946D";
paths = (
{
closed = 1;
nodes = (
"528 863 LINE SMOOTH",
"547 877 OFFCURVE",
"556 892 OFFCURVE",
"556 907 CURVE SMOOTH",
"556 926 OFFCURVE",
"545 938 OFFCURVE",
"528 938 CURVE SMOOTH",
"509 938 OFFCURVE",
"496 930 OFFCURVE",
"479 906 CURVE SMOOTH",
"387 773 LINE",
"400 762 LINE"
);
},
{
closed = 1;
nodes = (
"463 -18 OFFCURVE",
"505 -8 OFFCURVE",
"542 12 CURVE SMOOTH",
"614 52 OFFCURVE",
"653 124 OFFCURVE",
"653 208 CURVE SMOOTH",
"653 599 LINE SMOOTH",
"653 658 OFFCURVE",
"674 680 OFFCURVE",
"752 680 CURVE",
"752 712 LINE",
"514 712 LINE",
"514 680 LINE",
"590 680 OFFCURVE",
"613 661 OFFCURVE",
"613 599 CURVE SMOOTH",
"613 198 LINE SMOOTH",
"613 165 OFFCURVE",
"605 135 OFFCURVE",
"590 107 CURVE SMOOTH",
"559 51 OFFCURVE",
"498 14 OFFCURVE",
"414 14 CURVE SMOOTH",
"306 14 OFFCURVE",
"243 86 OFFCURVE",
"243 210 CURVE SMOOTH",
"243 653 LINE SMOOTH",
"243 672 OFFCURVE",
"251 680 OFFCURVE",
"270 680 CURVE SMOOTH",
"343 680 LINE",
"343 712 LINE",
"52 712 LINE",
"52 680 LINE",
"124 680 LINE SMOOTH",
"143 680 OFFCURVE",
"151 672 OFFCURVE",
"151 653 CURVE SMOOTH",
"151 237 LINE SMOOTH",
"151 191 OFFCURVE",
"160 149 OFFCURVE",
"179 111 CURVE SMOOTH",
"215 34 OFFCURVE",
"294 -18 OFFCURVE",
"414 -18 CURVE SMOOTH"
);
}
);
width = 780;
},
{
layerId = "6701A4D5-8A3D-41DD-8AA0-CFF5D98C5FFE";
paths = (
{
closed = 1;
nodes = (
"550 860 LINE SMOOTH",
"569 874 OFFCURVE",
"578 890 OFFCURVE",
"578 908 CURVE SMOOTH",
"578 932 OFFCURVE",
"560 948 OFFCURVE",
"536 948 CURVE SMOOTH",
"517 948 OFFCURVE",
"502 940 OFFCURVE",
"487 916 CURVE SMOOTH",
"398 778 LINE",
"418 760 LINE"
);
},
{
closed = 1;
nodes = (
"468 -18 OFFCURVE",
"510 -8 OFFCURVE",
"547 12 CURVE SMOOTH",
"619 52 OFFCURVE",
"658 124 OFFCURVE",
"658 208 CURVE SMOOTH",
"658 590 LINE SMOOTH",
"658 650 OFFCURVE",
"705 680 OFFCURVE",
"762 680 CURVE",
"762 712 LINE",
"514 712 LINE",
"514 680 LINE",
"571 680 OFFCURVE",
"618 650 OFFCURVE",
"618 590 CURVE SMOOTH",
"618 198 LINE SMOOTH",
"618 166 OFFCURVE",
"611 137 OFFCURVE",
"596 110 CURVE SMOOTH",
"567 57 OFFCURVE",
"512 22 OFFCURVE",
"447 22 CURVE SMOOTH",
"350 22 OFFCURVE",
"304 75 OFFCURVE",
"304 198 CURVE SMOOTH",
"304 656 LINE SMOOTH",
"304 675 OFFCURVE",
"311 680 OFFCURVE",
"328 680 CURVE SMOOTH",
"392 680 LINE",
"392 712 LINE",
"68 712 LINE",
"68 680 LINE",
"132 680 LINE SMOOTH",
"151 680 OFFCURVE",
"156 675 OFFCURVE",
"156 656 CURVE SMOOTH",
"156 237 LINE SMOOTH",
"156 191 OFFCURVE",
"165 149 OFFCURVE",
"184 111 CURVE SMOOTH",
"220 34 OFFCURVE",
"299 -18 OFFCURVE",
"419 -18 CURVE SMOOTH"
);
}
);
width = 794;
}
);
leftKerningGroup = U;
note = Uacute;
rightKerningGroup = U;
unicode = 00DA;
},
{
glyphname = Ucircumflex;
lastChange = "2017-06-04 13:38:42 +0000";
layers = (
{
layerId = "9ECE4C5B-AE6E-45F8-855F-54F501A6946D";
paths = (
{
closed = 1;
nodes = (
"299 774 OFFCURVE",
"371 821 OFFCURVE",
"412 858 CURVE",
"453 821 OFFCURVE",
"525 774 OFFCURVE",
"560 762 CURVE",
"570 778 LINE",
"509 813 OFFCURVE",
"463 860 OFFCURVE",
"432 920 CURVE",
"392 920 LINE",
"361 860 OFFCURVE",
"315 813 OFFCURVE",
"254 778 CURVE",
"264 762 LINE"
);
},
{
closed = 1;
nodes = (
"463 -18 OFFCURVE",
"505 -8 OFFCURVE",
"542 12 CURVE SMOOTH",
"614 52 OFFCURVE",
"653 124 OFFCURVE",
"653 208 CURVE SMOOTH",
"653 599 LINE SMOOTH",
"653 658 OFFCURVE",
"674 680 OFFCURVE",
"752 680 CURVE",
"752 712 LINE",
"514 712 LINE",
"514 680 LINE",
"590 680 OFFCURVE",
"613 661 OFFCURVE",
"613 599 CURVE SMOOTH",
"613 198 LINE SMOOTH",
"613 165 OFFCURVE",
"605 135 OFFCURVE",
"590 107 CURVE SMOOTH",
"559 51 OFFCURVE",
"498 14 OFFCURVE",
"414 14 CURVE SMOOTH",
"306 14 OFFCURVE",
"243 86 OFFCURVE",
"243 210 CURVE SMOOTH",
"243 653 LINE SMOOTH",
"243 672 OFFCURVE",
"251 680 OFFCURVE",
"270 680 CURVE SMOOTH",
"343 680 LINE",
"343 712 LINE",
"52 712 LINE",
"52 680 LINE",
"124 680 LINE SMOOTH",
"143 680 OFFCURVE",
"151 672 OFFCURVE",
"151 653 CURVE SMOOTH",
"151 237 LINE SMOOTH",
"151 191 OFFCURVE",
"160 149 OFFCURVE",
"179 111 CURVE SMOOTH",
"215 34 OFFCURVE",
"294 -18 OFFCURVE",
"414 -18 CURVE SMOOTH"
);
}
);
width = 780;
},
{
layerId = "6701A4D5-8A3D-41DD-8AA0-CFF5D98C5FFE";
paths = (
{
closed = 1;
nodes = (
"331 782 OFFCURVE",
"367 802 OFFCURVE",
"430 842 CURVE",
"493 802 OFFCURVE",
"529 782 OFFCURVE",
"586 762 CURVE",
"598 786 LINE",
"532 819 OFFCURVE",
"483 867 OFFCURVE",
"450 930 CURVE",
"410 930 LINE",
"376 868 OFFCURVE",
"327 820 OFFCURVE",
"262 786 CURVE",
"274 762 LINE"
);
},
{
closed = 1;
nodes = (
"468 -18 OFFCURVE",
"510 -8 OFFCURVE",
"547 12 CURVE SMOOTH",
"619 52 OFFCURVE",
"658 124 OFFCURVE",
"658 208 CURVE SMOOTH",
"658 590 LINE SMOOTH",
"658 650 OFFCURVE",
"705 680 OFFCURVE",
"762 680 CURVE",
"762 712 LINE",
"514 712 LINE",
"514 680 LINE",
"571 680 OFFCURVE",
"618 650 OFFCURVE",
"618 590 CURVE SMOOTH",
"618 198 LINE SMOOTH",
"618 166 OFFCURVE",
"611 137 OFFCURVE",
"596 110 CURVE SMOOTH",
"567 57 OFFCURVE",
"512 22 OFFCURVE",
"447 22 CURVE SMOOTH",
"350 22 OFFCURVE",
"304 75 OFFCURVE",
"304 198 CURVE SMOOTH",
"304 656 LINE SMOOTH",
"304 675 OFFCURVE",
"311 680 OFFCURVE",
"328 680 CURVE SMOOTH",
"392 680 LINE",
"392 712 LINE",
"68 712 LINE",
"68 680 LINE",
"132 680 LINE SMOOTH",
"151 680 OFFCURVE",
"156 675 OFFCURVE",
"156 656 CURVE SMOOTH",
"156 237 LINE SMOOTH",
"156 191 OFFCURVE",
"165 149 OFFCURVE",
"184 111 CURVE SMOOTH",
"220 34 OFFCURVE",
"299 -18 OFFCURVE",
"419 -18 CURVE SMOOTH"
);
}
);
width = 794;
}
);
leftKerningGroup = U;
note = Ucircumflex;
rightKerningGroup = U;
unicode = 00DB;
},
{
glyphname = Udieresis;
lastChange = "2017-06-04 13:38:47 +0000";
layers = (
{
layerId = "9ECE4C5B-AE6E-45F8-855F-54F501A6946D";
paths = (
{
closed = 1;
nodes = (
"341 798 OFFCURVE",
"362 821 OFFCURVE",
"362 850 CURVE SMOOTH",
"362 881 OFFCURVE",
"341 902 OFFCURVE",
"310 902 CURVE SMOOTH",
"281 902 OFFCURVE",
"258 881 OFFCURVE",
"258 850 CURVE SMOOTH",
"258 821 OFFCURVE",
"281 798 OFFCURVE",
"310 798 CURVE SMOOTH"
);
},
{
closed = 1;
nodes = (
"545 798 OFFCURVE",
"566 821 OFFCURVE",
"566 850 CURVE SMOOTH",
"566 881 OFFCURVE",
"545 902 OFFCURVE",
"514 902 CURVE SMOOTH",
"485 902 OFFCURVE",
"462 881 OFFCURVE",
"462 850 CURVE SMOOTH",
"462 821 OFFCURVE",
"485 798 OFFCURVE",
"514 798 CURVE SMOOTH"
);
},
{
closed = 1;
nodes = (
"463 -18 OFFCURVE",
"505 -8 OFFCURVE",
"542 12 CURVE SMOOTH",
"614 52 OFFCURVE",
"653 124 OFFCURVE",
"653 208 CURVE SMOOTH",
"653 599 LINE SMOOTH",
"653 658 OFFCURVE",
"674 680 OFFCURVE",
"752 680 CURVE",
"752 712 LINE",
"514 712 LINE",
"514 680 LINE",
"590 680 OFFCURVE",
"613 661 OFFCURVE",
"613 599 CURVE SMOOTH",
"613 198 LINE SMOOTH",
"613 165 OFFCURVE",
"605 135 OFFCURVE",
"590 107 CURVE SMOOTH",
"559 51 OFFCURVE",
"498 14 OFFCURVE",
"414 14 CURVE SMOOTH",
"306 14 OFFCURVE",
"243 86 OFFCURVE",
"243 210 CURVE SMOOTH",
"243 653 LINE SMOOTH",
"243 672 OFFCURVE",
"251 680 OFFCURVE",
"270 680 CURVE SMOOTH",
"343 680 LINE",
"343 712 LINE",
"52 712 LINE",
"52 680 LINE",
"124 680 LINE SMOOTH",
"143 680 OFFCURVE",
"151 672 OFFCURVE",
"151 653 CURVE SMOOTH",
"151 237 LINE SMOOTH",
"151 191 OFFCURVE",
"160 149 OFFCURVE",
"179 111 CURVE SMOOTH",
"215 34 OFFCURVE",
"294 -18 OFFCURVE",
"414 -18 CURVE SMOOTH"
);
}
);
width = 780;
},
{
layerId = "6701A4D5-8A3D-41DD-8AA0-CFF5D98C5FFE";
paths = (
{
closed = 1;
nodes = (
"357 794 OFFCURVE",
"384 821 OFFCURVE",
"384 854 CURVE SMOOTH",
"384 887 OFFCURVE",
"357 914 OFFCURVE",
"324 914 CURVE SMOOTH",
"291 914 OFFCURVE",
"264 887 OFFCURVE",
"264 854 CURVE SMOOTH",
"264 821 OFFCURVE",
"291 794 OFFCURVE",
"324 794 CURVE SMOOTH"
);
},
{
closed = 1;
nodes = (
"569 794 OFFCURVE",
"596 821 OFFCURVE",
"596 854 CURVE SMOOTH",
"596 887 OFFCURVE",
"569 914 OFFCURVE",
"536 914 CURVE SMOOTH",
"503 914 OFFCURVE",
"476 887 OFFCURVE",
"476 854 CURVE SMOOTH",
"476 821 OFFCURVE",
"503 794 OFFCURVE",
"536 794 CURVE SMOOTH"
);
},
{
closed = 1;
nodes = (
"468 -18 OFFCURVE",
"510 -8 OFFCURVE",
"547 12 CURVE SMOOTH",
"619 52 OFFCURVE",
"658 124 OFFCURVE",
"658 208 CURVE SMOOTH",
"658 590 LINE SMOOTH",
"658 650 OFFCURVE",
"705 680 OFFCURVE",
"762 680 CURVE",
"762 712 LINE",
"514 712 LINE",
"514 680 LINE",
"571 680 OFFCURVE",
"618 650 OFFCURVE",
"618 590 CURVE SMOOTH",
"618 198 LINE SMOOTH",
"618 166 OFFCURVE",
"611 137 OFFCURVE",
"596 110 CURVE SMOOTH",
"567 57 OFFCURVE",
"512 22 OFFCURVE",
"447 22 CURVE SMOOTH",
"350 22 OFFCURVE",
"304 75 OFFCURVE",
"304 198 CURVE SMOOTH",
"304 656 LINE SMOOTH",
"304 675 OFFCURVE",
"311 680 OFFCURVE",
"328 680 CURVE SMOOTH",
"392 680 LINE",
"392 712 LINE",
"68 712 LINE",
"68 680 LINE",
"132 680 LINE SMOOTH",
"151 680 OFFCURVE",
"156 675 OFFCURVE",
"156 656 CURVE SMOOTH",
"156 237 LINE SMOOTH",
"156 191 OFFCURVE",
"165 149 OFFCURVE",
"184 111 CURVE SMOOTH",
"220 34 OFFCURVE",
"299 -18 OFFCURVE",
"419 -18 CURVE SMOOTH"
);
}
);
width = 794;
}
);
leftKerningGroup = U;
note = Udieresis;
rightKerningGroup = U;
unicode = 00DC;
},
{
glyphname = Ugrave;
lastChange = "2017-06-04 13:38:52 +0000";
layers = (
{
layerId = "9ECE4C5B-AE6E-45F8-855F-54F501A6946D";
paths = (
{
closed = 1;
nodes = (
"437 773 LINE",
"345 906 LINE SMOOTH",
"328 930 OFFCURVE",
"315 938 OFFCURVE",
"296 938 CURVE SMOOTH",
"279 938 OFFCURVE",
"268 926 OFFCURVE",
"268 907 CURVE SMOOTH",
"268 892 OFFCURVE",
"277 877 OFFCURVE",
"296 863 CURVE SMOOTH",
"424 762 LINE"
);
},
{
closed = 1;
nodes = (
"463 -18 OFFCURVE",
"505 -8 OFFCURVE",
"542 12 CURVE SMOOTH",
"614 52 OFFCURVE",
"653 124 OFFCURVE",
"653 208 CURVE SMOOTH",
"653 599 LINE SMOOTH",
"653 658 OFFCURVE",
"674 680 OFFCURVE",
"752 680 CURVE",
"752 712 LINE",
"514 712 LINE",
"514 680 LINE",
"590 680 OFFCURVE",
"613 661 OFFCURVE",
"613 599 CURVE SMOOTH",
"613 198 LINE SMOOTH",
"613 165 OFFCURVE",
"605 135 OFFCURVE",
"590 107 CURVE SMOOTH",
"559 51 OFFCURVE",
"498 14 OFFCURVE",
"414 14 CURVE SMOOTH",
"306 14 OFFCURVE",
"243 86 OFFCURVE",
"243 210 CURVE SMOOTH",
"243 653 LINE SMOOTH",
"243 672 OFFCURVE",
"251 680 OFFCURVE",
"270 680 CURVE SMOOTH",
"343 680 LINE",
"343 712 LINE",
"52 712 LINE",
"52 680 LINE",
"124 680 LINE SMOOTH",
"143 680 OFFCURVE",
"151 672 OFFCURVE",
"151 653 CURVE SMOOTH",
"151 237 LINE SMOOTH",
"151 191 OFFCURVE",
"160 149 OFFCURVE",
"179 111 CURVE SMOOTH",
"215 34 OFFCURVE",
"294 -18 OFFCURVE",
"414 -18 CURVE SMOOTH"
);
}
);
width = 780;
},
{
layerId = "6701A4D5-8A3D-41DD-8AA0-CFF5D98C5FFE";
paths = (
{
closed = 1;
nodes = (
"462 778 LINE",
"373 916 LINE SMOOTH",
"358 940 OFFCURVE",
"343 948 OFFCURVE",
"324 948 CURVE SMOOTH",
"300 948 OFFCURVE",
"282 932 OFFCURVE",
"282 908 CURVE SMOOTH",
"282 890 OFFCURVE",
"291 874 OFFCURVE",
"310 860 CURVE SMOOTH",
"442 760 LINE"
);
},
{
closed = 1;
nodes = (
"468 -18 OFFCURVE",
"510 -8 OFFCURVE",
"547 12 CURVE SMOOTH",
"619 52 OFFCURVE",
"658 124 OFFCURVE",
"658 208 CURVE SMOOTH",
"658 590 LINE SMOOTH",
"658 650 OFFCURVE",
"705 680 OFFCURVE",
"762 680 CURVE",
"762 712 LINE",
"514 712 LINE",
"514 680 LINE",
"571 680 OFFCURVE",
"618 650 OFFCURVE",
"618 590 CURVE SMOOTH",
"618 198 LINE SMOOTH",
"618 166 OFFCURVE",
"611 137 OFFCURVE",
"596 110 CURVE SMOOTH",
"567 57 OFFCURVE",
"512 22 OFFCURVE",
"447 22 CURVE SMOOTH",
"350 22 OFFCURVE",
"304 75 OFFCURVE",
"304 198 CURVE SMOOTH",
"304 656 LINE SMOOTH",
"304 675 OFFCURVE",
"311 680 OFFCURVE",
"328 680 CURVE SMOOTH",
"392 680 LINE",
"392 712 LINE",
"68 712 LINE",
"68 680 LINE",
"132 680 LINE SMOOTH",
"151 680 OFFCURVE",
"156 675 OFFCURVE",
"156 656 CURVE SMOOTH",
"156 237 LINE SMOOTH",
"156 191 OFFCURVE",
"165 149 OFFCURVE",
"184 111 CURVE SMOOTH",
"220 34 OFFCURVE",
"299 -18 OFFCURVE",
"419 -18 CURVE SMOOTH"
);
}
);
width = 794;
}
);
leftKerningGroup = U;
note = Ugrave;
rightKerningGroup = U;
unicode = 00D9;
},
{
glyphname = V;
lastChange = "2017-06-04 12:55:10 +0000";
layers = (
{
layerId = "9ECE4C5B-AE6E-45F8-855F-54F501A6946D";
paths = (
{
closed = 1;
nodes = (
"424 -18 LINE",
"627 607 LINE SMOOTH",
"642 650 OFFCURVE",
"664 680 OFFCURVE",
"711 680 CURVE SMOOTH",
"748 680 LINE",
"748 712 LINE",
"478 712 LINE",
"478 680 LINE",
"532 680 LINE SMOOTH",
"569 680 OFFCURVE",
"583 655 OFFCURVE",
"583 627 CURVE SMOOTH",
"583 607 OFFCURVE",
"579 584 OFFCURVE",
"571 558 CURVE SMOOTH",
"439 152 LINE",
"268 633 LINE",
"265 640 OFFCURVE",
"264 648 OFFCURVE",
"264 655 CURVE SMOOTH",
"264 668 OFFCURVE",
"279 680 OFFCURVE",
"298 680 CURVE SMOOTH",
"364 680 LINE",
"364 712 LINE",
"44 712 LINE",
"44 680 LINE",
"107 680 LINE SMOOTH",
"136 680 OFFCURVE",
"154 669 OFFCURVE",
"166 636 CURVE SMOOTH",
"399 -18 LINE"
);
}
);
width = 772;
},
{
layerId = "6701A4D5-8A3D-41DD-8AA0-CFF5D98C5FFE";
paths = (
{
closed = 1;
nodes = (
"426 -18 LINE",
"623 589 LINE SMOOTH",
"642 650 OFFCURVE",
"674 680 OFFCURVE",
"719 680 CURVE SMOOTH",
"750 680 LINE",
"750 712 LINE",
"480 712 LINE",
"480 680 LINE",
"530 680 LINE SMOOTH",
"567 680 OFFCURVE",
"586 649 OFFCURVE",
"586 620 CURVE SMOOTH",
"586 606 OFFCURVE",
"583 589 OFFCURVE",
"576 569 CURVE SMOOTH",
"461 212 LINE",
"313 633 LINE",
"310 640 OFFCURVE",
"309 648 OFFCURVE",
"309 655 CURVE SMOOTH",
"309 668 OFFCURVE",
"324 680 OFFCURVE",
"343 680 CURVE SMOOTH",
"393 680 LINE",
"393 712 LINE",
"46 712 LINE",
"46 680 LINE",
"79 680 LINE SMOOTH",
"123 680 OFFCURVE",
"143 666 OFFCURVE",
"158 622 CURVE SMOOTH",
"384 -18 LINE"
);
}
);
width = 772;
}
);
leftKerningGroup = V;
note = V;
rightKerningGroup = V;
unicode = 0056;
},
{
glyphname = W;
lastChange = "2017-06-04 12:55:10 +0000";
layers = (
{
layerId = "9ECE4C5B-AE6E-45F8-855F-54F501A6946D";
paths = (
{
closed = 1;
nodes = (
"374 -18 LINE",
"532 538 LINE",
"696 -18 LINE",
"721 -18 LINE",
"920 607 LINE SMOOTH",
"933 651 OFFCURVE",
"956 680 OFFCURVE",
"1001 680 CURVE SMOOTH",
"1044 680 LINE",
"1044 712 LINE",
"774 712 LINE",
"774 680 LINE",
"808 680 LINE SMOOTH",
"849 680 OFFCURVE",
"874 660 OFFCURVE",
"874 635 CURVE SMOOTH",
"874 607 OFFCURVE",
"871 594 OFFCURVE",
"862 558 CURVE",
"738 164 LINE",
"612 597 LINE",
"608 608 OFFCURVE",
"606 619 OFFCURVE",
"606 628 CURVE SMOOTH",
"606 663 OFFCURVE",
"623 680 OFFCURVE",
"657 680 CURVE SMOOTH",
"696 680 LINE",
"696 712 LINE",
"400 712 LINE",
"400 680 LINE",
"429 680 LINE SMOOTH",
"458 680 OFFCURVE",
"491 670 OFFCURVE",
"500 643 CURVE SMOOTH",
"510 611 LINE",
"389 173 LINE",
"256 633 LINE",
"253 642 OFFCURVE",
"252 650 OFFCURVE",
"252 655 CURVE SMOOTH",
"252 668 OFFCURVE",
"267 680 OFFCURVE",
"286 680 CURVE SMOOTH",
"334 680 LINE",
"334 712 LINE",
"38 712 LINE",
"38 680 LINE",
"100 680 LINE SMOOTH",
"129 680 OFFCURVE",
"147 669 OFFCURVE",
"159 636 CURVE",
"349 -18 LINE"
);
}
);
width = 1068;
},
{
layerId = "6701A4D5-8A3D-41DD-8AA0-CFF5D98C5FFE";
paths = (
{
closed = 1;
nodes = (
"408 -18 LINE",
"556 488 LINE",
"720 -18 LINE",
"762 -18 LINE",
"931 589 LINE SMOOTH",
"950 650 OFFCURVE",
"982 680 OFFCURVE",
"1027 680 CURVE SMOOTH",
"1058 680 LINE",
"1058 712 LINE",
"788 712 LINE",
"788 680 LINE",
"838 680 LINE SMOOTH",
"875 680 OFFCURVE",
"891 651 OFFCURVE",
"891 622 CURVE SMOOTH",
"891 606 OFFCURVE",
"887 577 OFFCURVE",
"884 568 CURVE",
"793 239 LINE",
"666 629 LINE",
"664 637 OFFCURVE",
"663 644 OFFCURVE",
"663 651 CURVE SMOOTH",
"663 666 OFFCURVE",
"676 680 OFFCURVE",
"695 680 CURVE SMOOTH",
"744 680 LINE",
"744 712 LINE",
"416 712 LINE",
"416 680 LINE",
"433 680 LINE SMOOTH",
"477 680 OFFCURVE",
"497 666 OFFCURVE",
"512 622 CURVE SMOOTH",
"534 555 LINE",
"440 235 LINE",
"314 620 LINE SMOOTH",
"311 629 OFFCURVE",
"309 637 OFFCURVE",
"309 645 CURVE SMOOTH",
"309 665 OFFCURVE",
"321 680 OFFCURVE",
"340 680 CURVE SMOOTH",
"369 680 LINE",
"369 712 LINE",
"44 712 LINE",
"44 680 LINE",
"63 680 LINE SMOOTH",
"119 680 OFFCURVE",
"143 659 OFFCURVE",
"158 615 CURVE SMOOTH",
"366 -18 LINE"
);
}
);
width = 1076;
}
);
leftKerningGroup = V;
note = W;
rightKerningGroup = V;
unicode = 0057;
},
{
glyphname = X;
lastChange = "2017-06-04 12:55:10 +0000";
layers = (
{
layerId = "9ECE4C5B-AE6E-45F8-855F-54F501A6946D";
paths = (
{
closed = 1;
nodes = (
"316 0 LINE",
"316 32 LINE",
"262 32 LINE SMOOTH",
"238 32 OFFCURVE",
"226 52 OFFCURVE",
"226 76 CURVE SMOOTH",
"226 93 OFFCURVE",
"234 114 OFFCURVE",
"251 139 CURVE SMOOTH",
"366 314 LINE",
"494 78 LINE SMOOTH",
"498 71 OFFCURVE",
"501 61 OFFCURVE",
"501 53 CURVE SMOOTH",
"501 41 OFFCURVE",
"493 32 OFFCURVE",
"474 32 CURVE SMOOTH",
"414 32 LINE",
"414 0 LINE",
"724 0 LINE",
"724 32 LINE",
"662 32 LINE SMOOTH",
"635 32 OFFCURVE",
"619 43 OFFCURVE",
"600 76 CURVE SMOOTH",
"423 401 LINE",
"576 631 LINE SMOOTH",
"599 666 OFFCURVE",
"624 680 OFFCURVE",
"664 680 CURVE SMOOTH",
"709 680 LINE",
"709 712 LINE",
"439 712 LINE",
"439 680 LINE",
"470 680 LINE SMOOTH",
"499 680 OFFCURVE",
"519 661 OFFCURVE",
"519 638 CURVE SMOOTH",
"519 620 OFFCURVE",
"512 601 OFFCURVE",
"499 581 CURVE SMOOTH",
"404 439 LINE",
"296 639 LINE",
"291 647 OFFCURVE",
"288 657 OFFCURVE",
"288 665 CURVE SMOOTH",
"288 675 OFFCURVE",
"294 680 OFFCURVE",
"306 680 CURVE SMOOTH",
"366 680 LINE",
"366 712 LINE",
"56 712 LINE",
"56 680 LINE",
"117 680 LINE SMOOTH",
"161 680 OFFCURVE",
"176 665 OFFCURVE",
"196 628 CURVE SMOOTH",
"345 352 LINE",
"176 99 LINE SMOOTH",
"148 56 OFFCURVE",
"121 32 OFFCURVE",
"77 32 CURVE SMOOTH",
"46 32 LINE",
"46 0 LINE"
);
}
);
width = 750;
},
{
layerId = "6701A4D5-8A3D-41DD-8AA0-CFF5D98C5FFE";
paths = (
{
closed = 1;
nodes = (
"312 0 LINE",
"312 32 LINE",
"268 32 LINE SMOOTH",
"244 32 OFFCURVE",
"232 52 OFFCURVE",
"232 76 CURVE SMOOTH",
"232 93 OFFCURVE",
"240 114 OFFCURVE",
"257 139 CURVE SMOOTH",
"353 284 LINE",
"450 104 LINE SMOOTH",
"458 90 OFFCURVE",
"462 78 OFFCURVE",
"462 68 CURVE SMOOTH",
"462 45 OFFCURVE",
"451 32 OFFCURVE",
"431 32 CURVE SMOOTH",
"398 32 LINE",
"398 0 LINE",
"730 0 LINE",
"730 32 LINE",
"710 32 LINE SMOOTH",
"679 32 OFFCURVE",
"649 49 OFFCURVE",
"629 85 CURVE SMOOTH",
"446 425 LINE",
"582 631 LINE SMOOTH",
"605 666 OFFCURVE",
"630 680 OFFCURVE",
"670 680 CURVE SMOOTH",
"700 680 LINE",
"700 712 LINE",
"446 712 LINE",
"446 680 LINE",
"476 680 LINE SMOOTH",
"504 680 OFFCURVE",
"520 659 OFFCURVE",
"520 636 CURVE SMOOTH",
"520 615 OFFCURVE",
"515 597 OFFCURVE",
"504 581 CURVE SMOOTH",
"426 462 LINE",
"338 624 LINE",
"333 635 OFFCURVE",
"330 644 OFFCURVE",
"330 652 CURVE SMOOTH",
"330 669 OFFCURVE",
"343 680 OFFCURVE",
"355 680 CURVE SMOOTH",
"376 680 LINE",
"376 712 LINE",
"62 712 LINE",
"62 680 LINE",
"77 680 LINE SMOOTH",
"122 680 OFFCURVE",
"148 661 OFFCURVE",
"167 628 CURVE SMOOTH",
"333 322 LINE",
"186 99 LINE SMOOTH",
"158 59 OFFCURVE",
"127 32 OFFCURVE",
"83 32 CURVE SMOOTH",
"52 32 LINE",
"52 0 LINE"
);
}
);
width = 750;
}
);
leftKerningGroup = X;
note = X;
rightKerningGroup = X;
unicode = 0058;
},
{
glyphname = Y;
lastChange = "2017-06-04 12:55:10 +0000";
layers = (
{
layerId = "9ECE4C5B-AE6E-45F8-855F-54F501A6946D";
paths = (
{
closed = 1;
nodes = (
"562 0 LINE",
"562 32 LINE",
"466 32 LINE SMOOTH",
"448 32 OFFCURVE",
"439 41 OFFCURVE",
"439 59 CURVE SMOOTH",
"439 335 LINE",
"582 607 LINE SMOOTH",
"607 652 OFFCURVE",
"630 680 OFFCURVE",
"673 680 CURVE SMOOTH",
"702 680 LINE",
"702 712 LINE",
"454 712 LINE",
"454 680 LINE",
"484 680 LINE SMOOTH",
"521 680 OFFCURVE",
"539 655 OFFCURVE",
"539 623 CURVE SMOOTH",
"539 607 OFFCURVE",
"529 571 OFFCURVE",
"522 562 CURVE",
"420 366 LINE",
"262 633 LINE SMOOTH",
"259 638 OFFCURVE",
"257 645 OFFCURVE",
"257 655 CURVE SMOOTH",
"257 670 OFFCURVE",
"272 680 OFFCURVE",
"292 680 CURVE SMOOTH",
"352 680 LINE",
"352 712 LINE",
"42 712 LINE",
"42 680 LINE",
"94 680 LINE SMOOTH",
"121 680 OFFCURVE",
"133 671 OFFCURVE",
"153 636 CURVE SMOOTH",
"347 318 LINE",
"347 59 LINE SMOOTH",
"347 41 OFFCURVE",
"338 32 OFFCURVE",
"320 32 CURVE SMOOTH",
"224 32 LINE",
"224 0 LINE"
);
}
);
width = 728;
},
{
layerId = "6701A4D5-8A3D-41DD-8AA0-CFF5D98C5FFE";
paths = (
{
closed = 1;
nodes = (
"546 0 LINE",
"546 32 LINE",
"482 32 LINE SMOOTH",
"465 32 OFFCURVE",
"458 39 OFFCURVE",
"458 56 CURVE SMOOTH",
"458 278 LINE",
"593 607 LINE SMOOTH",
"609 647 OFFCURVE",
"639 680 OFFCURVE",
"684 680 CURVE SMOOTH",
"714 680 LINE",
"714 712 LINE",
"466 712 LINE",
"466 680 LINE",
"494 680 LINE SMOOTH",
"531 680 OFFCURVE",
"548 651 OFFCURVE",
"548 619 CURVE SMOOTH",
"548 602 OFFCURVE",
"543 583 OFFCURVE",
"534 562 CURVE SMOOTH",
"442 333 LINE",
"310 620 LINE SMOOTH",
"306 628 OFFCURVE",
"304 637 OFFCURVE",
"304 648 CURVE SMOOTH",
"304 664 OFFCURVE",
"313 680 OFFCURVE",
"332 680 CURVE SMOOTH",
"360 680 LINE",
"360 712 LINE",
"46 712 LINE",
"46 680 LINE",
"81 680 LINE SMOOTH",
"109 680 OFFCURVE",
"124 669 OFFCURVE",
"140 636 CURVE SMOOTH",
"310 269 LINE",
"310 56 LINE SMOOTH",
"310 39 OFFCURVE",
"305 32 OFFCURVE",
"286 32 CURVE SMOOTH",
"222 32 LINE",
"222 0 LINE"
);
}
);
width = 736;
}
);
leftKerningGroup = Y;
note = Y;
rightKerningGroup = Y;
unicode = 0059;
},
{
glyphname = Yacute;
lastChange = "2017-06-04 12:55:10 +0000";
layers = (
{
layerId = "9ECE4C5B-AE6E-45F8-855F-54F501A6946D";
paths = (
{
closed = 1;
nodes = (
"508 863 LINE SMOOTH",
"527 877 OFFCURVE",
"536 892 OFFCURVE",
"536 907 CURVE SMOOTH",
"536 926 OFFCURVE",
"525 938 OFFCURVE",
"508 938 CURVE SMOOTH",
"489 938 OFFCURVE",
"476 930 OFFCURVE",
"459 906 CURVE SMOOTH",
"367 773 LINE",
"380 762 LINE"
);
},
{
closed = 1;
nodes = (
"562 0 LINE",
"562 32 LINE",
"466 32 LINE SMOOTH",
"448 32 OFFCURVE",
"439 41 OFFCURVE",
"439 59 CURVE SMOOTH",
"439 335 LINE",
"582 607 LINE SMOOTH",
"607 652 OFFCURVE",
"630 680 OFFCURVE",
"673 680 CURVE SMOOTH",
"702 680 LINE",
"702 712 LINE",
"454 712 LINE",
"454 680 LINE",
"484 680 LINE SMOOTH",
"521 680 OFFCURVE",
"539 655 OFFCURVE",
"539 623 CURVE SMOOTH",
"539 607 OFFCURVE",
"529 571 OFFCURVE",
"522 562 CURVE",
"420 366 LINE",
"262 633 LINE SMOOTH",
"259 638 OFFCURVE",
"257 645 OFFCURVE",
"257 655 CURVE SMOOTH",
"257 670 OFFCURVE",
"272 680 OFFCURVE",
"292 680 CURVE SMOOTH",
"352 680 LINE",
"352 712 LINE",
"42 712 LINE",
"42 680 LINE",
"94 680 LINE SMOOTH",
"121 680 OFFCURVE",
"133 671 OFFCURVE",
"153 636 CURVE SMOOTH",
"347 318 LINE",
"347 59 LINE SMOOTH",
"347 41 OFFCURVE",
"338 32 OFFCURVE",
"320 32 CURVE SMOOTH",
"224 32 LINE",
"224 0 LINE"
);
}
);
width = 728;
},
{
layerId = "6701A4D5-8A3D-41DD-8AA0-CFF5D98C5FFE";
paths = (
{
closed = 1;
nodes = (
"524 860 LINE SMOOTH",
"543 874 OFFCURVE",
"552 890 OFFCURVE",
"552 908 CURVE SMOOTH",
"552 932 OFFCURVE",
"534 948 OFFCURVE",
"510 948 CURVE SMOOTH",
"491 948 OFFCURVE",
"476 940 OFFCURVE",
"461 916 CURVE SMOOTH",
"372 778 LINE",
"392 760 LINE"
);
},
{
closed = 1;
nodes = (
"546 0 LINE",
"546 32 LINE",
"482 32 LINE SMOOTH",
"465 32 OFFCURVE",
"458 39 OFFCURVE",
"458 56 CURVE SMOOTH",
"458 278 LINE",
"593 607 LINE SMOOTH",
"609 647 OFFCURVE",
"639 680 OFFCURVE",
"684 680 CURVE SMOOTH",
"714 680 LINE",
"714 712 LINE",
"466 712 LINE",
"466 680 LINE",
"494 680 LINE SMOOTH",
"531 680 OFFCURVE",
"548 651 OFFCURVE",
"548 619 CURVE SMOOTH",
"548 602 OFFCURVE",
"543 583 OFFCURVE",
"534 562 CURVE SMOOTH",
"442 333 LINE",
"310 620 LINE SMOOTH",
"306 628 OFFCURVE",
"304 637 OFFCURVE",
"304 648 CURVE SMOOTH",
"304 664 OFFCURVE",
"313 680 OFFCURVE",
"332 680 CURVE SMOOTH",
"360 680 LINE",
"360 712 LINE",
"46 712 LINE",
"46 680 LINE",
"81 680 LINE SMOOTH",
"109 680 OFFCURVE",
"124 669 OFFCURVE",
"140 636 CURVE SMOOTH",
"310 269 LINE",
"310 56 LINE SMOOTH",
"310 39 OFFCURVE",
"305 32 OFFCURVE",
"286 32 CURVE SMOOTH",
"222 32 LINE",
"222 0 LINE"
);
}
);
width = 736;
}
);
leftKerningGroup = Y;
note = Yacute;
rightKerningGroup = Y;
unicode = 00DD;
},
{
glyphname = Z;
lastChange = "2017-06-04 13:39:02 +0000";
layers = (
{
layerId = "9ECE4C5B-AE6E-45F8-855F-54F501A6946D";
paths = (
{
closed = 1;
nodes = (
"590 0 LINE",
"606 302 LINE",
"581 302 LINE",
"581 299 OFFCURVE",
"578 286 OFFCURVE",
"573 263 CURVE SMOOTH",
"547 154 OFFCURVE",
"487 32 OFFCURVE",
"378 32 CURVE SMOOTH",
"178 32 LINE",
"588 680 LINE",
"588 712 LINE",
"112 712 LINE",
"88 456 LINE",
"113 456 LINE",
"113 459 OFFCURVE",
"116 470 OFFCURVE",
"121 491 CURVE SMOOTH",
"145 578 OFFCURVE",
"203 680 OFFCURVE",
"294 680 CURVE SMOOTH",
"482 680 LINE",
"68 32 LINE",
"68 0 LINE"
);
}
);
width = 652;
},
{
layerId = "6701A4D5-8A3D-41DD-8AA0-CFF5D98C5FFE";
paths = (
{
closed = 1;
nodes = (
"590 0 LINE",
"606 282 LINE",
"574 282 LINE",
"574 274 OFFCURVE",
"560 209 OFFCURVE",
"536 162 CURVE SMOOTH",
"504 98 OFFCURVE",
"443 32 OFFCURVE",
"374 32 CURVE SMOOTH",
"237 32 LINE",
"588 678 LINE",
"588 712 LINE",
"100 712 LINE",
"88 456 LINE",
"120 456 LINE",
"120 459 OFFCURVE",
"122 470 OFFCURVE",
"126 488 CURVE SMOOTH",
"143 563 OFFCURVE",
"211 680 OFFCURVE",
"294 680 CURVE SMOOTH",
"420 680 LINE",
"68 32 LINE",
"68 0 LINE"
);
}
);
width = 652;
}
);
note = Z;
unicode = 005A;
},
{
glyphname = a;
lastChange = "2017-06-04 13:39:23 +0000";
layers = (
{
layerId = "9ECE4C5B-AE6E-45F8-855F-54F501A6946D";
paths = (
{
closed = 1;
nodes = (
"236 -12 OFFCURVE",
"283 39 OFFCURVE",
"303 86 CURVE",
"308 84 LINE",
"311 24 OFFCURVE",
"339 -12 OFFCURVE",
"396 -12 CURVE SMOOTH",
"456 -12 OFFCURVE",
"476 50 OFFCURVE",
"476 130 CURVE",
"458 130 LINE",
"458 74 OFFCURVE",
"444 30 OFFCURVE",
"411 30 CURVE SMOOTH",
"390 30 OFFCURVE",
"380 47 OFFCURVE",
"380 80 CURVE SMOOTH",
"380 326 LINE SMOOTH",
"380 423 OFFCURVE",
"306 468 OFFCURVE",
"218 468 CURVE SMOOTH",
"195 468 OFFCURVE",
"173 464 OFFCURVE",
"152 455 CURVE SMOOTH",
"108 437 OFFCURVE",
"78 399 OFFCURVE",
"78 350 CURVE SMOOTH",
"78 307 OFFCURVE",
"107 284 OFFCURVE",
"136 284 CURVE SMOOTH",
"161 284 OFFCURVE",
"180 295 OFFCURVE",
"180 323 CURVE SMOOTH",
"180 344 OFFCURVE",
"167 355 OFFCURVE",
"143 362 CURVE",
"135 365 OFFCURVE",
"125 370 OFFCURVE",
"125 387 CURVE SMOOTH",
"125 416 OFFCURVE",
"170 444 OFFCURVE",
"215 444 CURVE SMOOTH",
"277 444 OFFCURVE",
"308 413 OFFCURVE",
"308 351 CURVE SMOOTH",
"308 266 LINE",
"216 249 LINE SMOOTH",
"141 235 OFFCURVE",
"46 214 OFFCURVE",
"46 106 CURVE SMOOTH",
"46 18 OFFCURVE",
"105 -12 OFFCURVE",
"176 -12 CURVE SMOOTH"
);
},
{
closed = 1;
nodes = (
"160 24 OFFCURVE",
"130 42 OFFCURVE",
"130 103 CURVE SMOOTH",
"130 175 OFFCURVE",
"157 213 OFFCURVE",
"221 226 CURVE SMOOTH",
"308 245 LINE",
"308 150 LINE",
"281 77 OFFCURVE",
"252 24 OFFCURVE",
"192 24 CURVE SMOOTH"
);
}
);
width = 494;
},
{
layerId = "6701A4D5-8A3D-41DD-8AA0-CFF5D98C5FFE";
paths = (
{
closed = 1;
nodes = (
"226 -12 OFFCURVE",
"263 6 OFFCURVE",
"290 42 CURVE",
"292 42 LINE",
"311 3 OFFCURVE",
"334 -12 OFFCURVE",
"389 -12 CURVE SMOOTH",
"465 -12 OFFCURVE",
"488 51 OFFCURVE",
"488 135 CURVE",
"460 135 LINE",
"460 83 OFFCURVE",
"448 36 OFFCURVE",
"424 36 CURVE SMOOTH",
"411 36 OFFCURVE",
"404 48 OFFCURVE",
"404 72 CURVE SMOOTH",
"404 325 LINE SMOOTH",
"404 437 OFFCURVE",
"320 486 OFFCURVE",
"224 486 CURVE SMOOTH",
"199 486 OFFCURVE",
"175 481 OFFCURVE",
"151 471 CURVE SMOOTH",
"103 450 OFFCURVE",
"69 409 OFFCURVE",
"69 358 CURVE SMOOTH",
"69 314 OFFCURVE",
"97 290 OFFCURVE",
"132 290 CURVE SMOOTH",
"160 290 OFFCURVE",
"188 309 OFFCURVE",
"188 341 CURVE SMOOTH",
"188 362 OFFCURVE",
"180 374 OFFCURVE",
"160 386 CURVE",
"148 394 OFFCURVE",
"144 407 OFFCURVE",
"144 415 CURVE SMOOTH",
"144 444 OFFCURVE",
"176 462 OFFCURVE",
"213 462 CURVE SMOOTH",
"257 462 OFFCURVE",
"288 433 OFFCURVE",
"288 365 CURVE SMOOTH",
"288 297 LINE",
"214 271 LINE SMOOTH",
"117 238 OFFCURVE",
"46 193 OFFCURVE",
"46 106 CURVE SMOOTH",
"46 21 OFFCURVE",
"105 -12 OFFCURVE",
"178 -12 CURVE SMOOTH"
);
},
{
closed = 1;
nodes = (
"196 28 OFFCURVE",
"168 50 OFFCURVE",
"168 115 CURVE SMOOTH",
"168 190 OFFCURVE",
"188 234 OFFCURVE",
"232 250 CURVE SMOOTH",
"288 270 LINE",
"288 72 LINE",
"273 43 OFFCURVE",
"253 28 OFFCURVE",
"227 28 CURVE SMOOTH"
);
}
);
width = 508;
}
);
leftKerningGroup = a;
note = a;
rightKerningGroup = a;
unicode = 0061;
},
{
glyphname = aacute;
lastChange = "2017-06-04 13:39:49 +0000";
layers = (
{
layerId = "9ECE4C5B-AE6E-45F8-855F-54F501A6946D";
paths = (
{
closed = 1;
nodes = (
"344 609 LINE SMOOTH",
"363 623 OFFCURVE",
"372 638 OFFCURVE",
"372 653 CURVE SMOOTH",
"372 672 OFFCURVE",
"361 684 OFFCURVE",
"344 684 CURVE SMOOTH",
"325 684 OFFCURVE",
"312 676 OFFCURVE",
"295 652 CURVE SMOOTH",
"203 519 LINE",
"216 508 LINE"
);
},
{
closed = 1;
nodes = (
"236 -12 OFFCURVE",
"283 39 OFFCURVE",
"303 86 CURVE",
"308 84 LINE",
"311 24 OFFCURVE",
"339 -12 OFFCURVE",
"396 -12 CURVE SMOOTH",
"456 -12 OFFCURVE",
"476 50 OFFCURVE",
"476 130 CURVE",
"458 130 LINE",
"458 74 OFFCURVE",
"444 30 OFFCURVE",
"411 30 CURVE SMOOTH",
"390 30 OFFCURVE",
"380 47 OFFCURVE",
"380 80 CURVE SMOOTH",
"380 326 LINE SMOOTH",
"380 423 OFFCURVE",
"306 468 OFFCURVE",
"218 468 CURVE SMOOTH",
"195 468 OFFCURVE",
"173 464 OFFCURVE",
"152 455 CURVE SMOOTH",
"108 437 OFFCURVE",
"78 399 OFFCURVE",
"78 350 CURVE SMOOTH",
"78 307 OFFCURVE",
"107 284 OFFCURVE",
"136 284 CURVE SMOOTH",
"161 284 OFFCURVE",
"180 295 OFFCURVE",
"180 323 CURVE SMOOTH",
"180 341 OFFCURVE",
"172 353 OFFCURVE",
"135 366 CURVE",
"129 370 OFFCURVE",
"125 374 OFFCURVE",
"125 387 CURVE SMOOTH",
"125 416 OFFCURVE",
"170 444 OFFCURVE",
"215 444 CURVE SMOOTH",
"277 444 OFFCURVE",
"308 413 OFFCURVE",
"308 351 CURVE SMOOTH",
"308 266 LINE",
"216 249 LINE SMOOTH",
"141 235 OFFCURVE",
"46 214 OFFCURVE",
"46 106 CURVE SMOOTH",
"46 18 OFFCURVE",
"105 -12 OFFCURVE",
"176 -12 CURVE SMOOTH"
);
},
{
closed = 1;
nodes = (
"160 24 OFFCURVE",
"130 42 OFFCURVE",
"130 103 CURVE SMOOTH",
"130 175 OFFCURVE",
"157 213 OFFCURVE",
"221 226 CURVE SMOOTH",
"308 245 LINE",
"308 150 LINE",
"281 77 OFFCURVE",
"252 24 OFFCURVE",
"192 24 CURVE SMOOTH"
);
}
);
width = 494;
},
{
layerId = "6701A4D5-8A3D-41DD-8AA0-CFF5D98C5FFE";
paths = (
{
closed = 1;
nodes = (
"340 624 LINE SMOOTH",
"359 638 OFFCURVE",
"368 654 OFFCURVE",
"368 672 CURVE SMOOTH",
"368 696 OFFCURVE",
"350 712 OFFCURVE",
"326 712 CURVE SMOOTH",
"307 712 OFFCURVE",
"292 704 OFFCURVE",
"277 680 CURVE SMOOTH",
"188 542 LINE",
"208 524 LINE"
);
},
{
closed = 1;
nodes = (
"226 -12 OFFCURVE",
"263 6 OFFCURVE",
"290 42 CURVE",
"292 42 LINE",
"311 3 OFFCURVE",
"334 -12 OFFCURVE",
"389 -12 CURVE SMOOTH",
"465 -12 OFFCURVE",
"488 51 OFFCURVE",
"488 135 CURVE",
"460 135 LINE",
"460 83 OFFCURVE",
"448 36 OFFCURVE",
"424 36 CURVE SMOOTH",
"411 36 OFFCURVE",
"404 48 OFFCURVE",
"404 72 CURVE SMOOTH",
"404 325 LINE SMOOTH",
"404 437 OFFCURVE",
"320 486 OFFCURVE",
"224 486 CURVE SMOOTH",
"199 486 OFFCURVE",
"175 481 OFFCURVE",
"151 471 CURVE SMOOTH",
"103 450 OFFCURVE",
"69 409 OFFCURVE",
"69 358 CURVE SMOOTH",
"69 314 OFFCURVE",
"97 290 OFFCURVE",
"132 290 CURVE SMOOTH",
"160 290 OFFCURVE",
"188 309 OFFCURVE",
"188 341 CURVE SMOOTH",
"188 362 OFFCURVE",
"180 374 OFFCURVE",
"160 386 CURVE",
"148 394 OFFCURVE",
"144 407 OFFCURVE",
"144 415 CURVE SMOOTH",
"144 444 OFFCURVE",
"176 462 OFFCURVE",
"213 462 CURVE SMOOTH",
"257 462 OFFCURVE",
"288 433 OFFCURVE",
"288 365 CURVE SMOOTH",
"288 297 LINE",
"214 271 LINE SMOOTH",
"117 238 OFFCURVE",
"46 193 OFFCURVE",
"46 106 CURVE SMOOTH",
"46 21 OFFCURVE",
"105 -12 OFFCURVE",
"178 -12 CURVE SMOOTH"
);
},
{
closed = 1;
nodes = (
"196 28 OFFCURVE",
"168 50 OFFCURVE",
"168 115 CURVE SMOOTH",
"168 190 OFFCURVE",
"188 234 OFFCURVE",
"232 250 CURVE SMOOTH",
"288 270 LINE",
"288 72 LINE",
"273 43 OFFCURVE",
"253 28 OFFCURVE",
"227 28 CURVE SMOOTH"
);
}
);
width = 508;
}
);
leftKerningGroup = a;
note = aacute;
rightKerningGroup = a;
unicode = 00E1;
},
{
glyphname = acircumflex;
lastChange = "2017-06-04 13:40:03 +0000";
layers = (
{
layerId = "9ECE4C5B-AE6E-45F8-855F-54F501A6946D";
paths = (
{
closed = 1;
nodes = (
"151 531 OFFCURVE",
"192 562 OFFCURVE",
"228 600 CURVE",
"263 563 OFFCURVE",
"304 532 OFFCURVE",
"350 508 CURVE",
"359 521 LINE",
"309 554 OFFCURVE",
"272 604 OFFCURVE",
"248 672 CURVE",
"208 672 LINE",
"184 604 OFFCURVE",
"147 554 OFFCURVE",
"97 521 CURVE",
"106 508 LINE"
);
},
{
closed = 1;
nodes = (
"236 -12 OFFCURVE",
"283 39 OFFCURVE",
"303 86 CURVE",
"308 84 LINE",
"311 24 OFFCURVE",
"339 -12 OFFCURVE",
"396 -12 CURVE SMOOTH",
"456 -12 OFFCURVE",
"476 50 OFFCURVE",
"476 130 CURVE",
"458 130 LINE",
"458 74 OFFCURVE",
"444 30 OFFCURVE",
"411 30 CURVE SMOOTH",
"390 30 OFFCURVE",
"380 47 OFFCURVE",
"380 80 CURVE SMOOTH",
"380 326 LINE SMOOTH",
"380 423 OFFCURVE",
"306 468 OFFCURVE",
"218 468 CURVE SMOOTH",
"195 468 OFFCURVE",
"173 464 OFFCURVE",
"152 455 CURVE SMOOTH",
"108 437 OFFCURVE",
"78 399 OFFCURVE",
"78 350 CURVE SMOOTH",
"78 307 OFFCURVE",
"107 284 OFFCURVE",
"136 284 CURVE SMOOTH",
"161 284 OFFCURVE",
"180 295 OFFCURVE",
"180 323 CURVE SMOOTH",
"180 344 OFFCURVE",
"167 355 OFFCURVE",
"143 362 CURVE",
"135 365 OFFCURVE",
"125 370 OFFCURVE",
"125 387 CURVE SMOOTH",
"125 416 OFFCURVE",
"170 444 OFFCURVE",
"215 444 CURVE SMOOTH",
"277 444 OFFCURVE",
"308 413 OFFCURVE",
"308 351 CURVE SMOOTH",
"308 266 LINE",
"216 249 LINE SMOOTH",
"141 235 OFFCURVE",
"46 214 OFFCURVE",
"46 106 CURVE SMOOTH",
"46 18 OFFCURVE",
"105 -12 OFFCURVE",
"176 -12 CURVE SMOOTH"
);
},
{
closed = 1;
nodes = (
"160 24 OFFCURVE",
"130 42 OFFCURVE",
"130 103 CURVE SMOOTH",
"130 175 OFFCURVE",
"157 213 OFFCURVE",
"221 226 CURVE SMOOTH",
"308 245 LINE",
"308 150 LINE",
"281 77 OFFCURVE",
"252 24 OFFCURVE",
"192 24 CURVE SMOOTH"
);
}
);
width = 494;
},
{
layerId = "6701A4D5-8A3D-41DD-8AA0-CFF5D98C5FFE";
paths = (
{
closed = 1;
nodes = (
"145 547 OFFCURVE",
"200 587 OFFCURVE",
"232 620 CURVE",
"264 587 OFFCURVE",
"319 547 OFFCURVE",
"366 524 CURVE",
"382 548 LINE",
"315 591 OFFCURVE",
"289 643 OFFCURVE",
"266 708 CURVE",
"198 708 LINE",
"175 643 OFFCURVE",
"149 591 OFFCURVE",
"82 548 CURVE",
"98 524 LINE"
);
},
{
closed = 1;
nodes = (
"226 -12 OFFCURVE",
"263 6 OFFCURVE",
"290 42 CURVE",
"292 42 LINE",
"311 3 OFFCURVE",
"334 -12 OFFCURVE",
"389 -12 CURVE SMOOTH",
"465 -12 OFFCURVE",
"488 51 OFFCURVE",
"488 135 CURVE",
"460 135 LINE",
"460 83 OFFCURVE",
"448 36 OFFCURVE",
"424 36 CURVE SMOOTH",
"411 36 OFFCURVE",
"404 48 OFFCURVE",
"404 72 CURVE SMOOTH",
"404 325 LINE SMOOTH",
"404 437 OFFCURVE",
"320 486 OFFCURVE",
"224 486 CURVE SMOOTH",
"199 486 OFFCURVE",
"175 481 OFFCURVE",
"151 471 CURVE SMOOTH",
"103 450 OFFCURVE",
"69 409 OFFCURVE",
"69 358 CURVE SMOOTH",
"69 314 OFFCURVE",
"97 290 OFFCURVE",
"132 290 CURVE SMOOTH",
"160 290 OFFCURVE",
"188 309 OFFCURVE",
"188 341 CURVE SMOOTH",
"188 362 OFFCURVE",
"180 374 OFFCURVE",
"160 386 CURVE",
"148 394 OFFCURVE",
"144 407 OFFCURVE",
"144 415 CURVE SMOOTH",
"144 444 OFFCURVE",
"176 462 OFFCURVE",
"213 462 CURVE SMOOTH",
"257 462 OFFCURVE",
"288 433 OFFCURVE",
"288 365 CURVE SMOOTH",
"288 297 LINE",
"214 271 LINE SMOOTH",
"117 238 OFFCURVE",
"46 193 OFFCURVE",
"46 106 CURVE SMOOTH",
"46 21 OFFCURVE",
"105 -12 OFFCURVE",
"178 -12 CURVE SMOOTH"
);
},
{
closed = 1;
nodes = (
"196 28 OFFCURVE",
"168 50 OFFCURVE",
"168 115 CURVE SMOOTH",
"168 190 OFFCURVE",
"188 234 OFFCURVE",
"232 250 CURVE SMOOTH",
"288 270 LINE",
"288 72 LINE",
"273 43 OFFCURVE",
"253 28 OFFCURVE",
"227 28 CURVE SMOOTH"
);
}
);
width = 508;
}
);
leftKerningGroup = abreve;
note = acircumflex;
rightKerningGroup = a;
unicode = 00E2;
},
{
glyphname = adieresis;
lastChange = "2017-06-04 13:40:11 +0000";
layers = (
{
layerId = "9ECE4C5B-AE6E-45F8-855F-54F501A6946D";
paths = (
{
closed = 1;
nodes = (
"161 548 OFFCURVE",
"182 571 OFFCURVE",
"182 596 CURVE SMOOTH",
"182 623 OFFCURVE",
"161 644 OFFCURVE",
"134 644 CURVE SMOOTH",
"109 644 OFFCURVE",
"86 623 OFFCURVE",
"86 596 CURVE SMOOTH",
"86 571 OFFCURVE",
"109 548 OFFCURVE",
"134 548 CURVE SMOOTH"
);
},
{
closed = 1;
nodes = (
"349 548 OFFCURVE",
"370 571 OFFCURVE",
"370 596 CURVE SMOOTH",
"370 623 OFFCURVE",
"349 644 OFFCURVE",
"322 644 CURVE SMOOTH",
"297 644 OFFCURVE",
"274 623 OFFCURVE",
"274 596 CURVE SMOOTH",
"274 571 OFFCURVE",
"297 548 OFFCURVE",
"322 548 CURVE SMOOTH"
);
},
{
closed = 1;
nodes = (
"236 -12 OFFCURVE",
"283 39 OFFCURVE",
"303 86 CURVE",
"308 84 LINE",
"311 24 OFFCURVE",
"339 -12 OFFCURVE",
"396 -12 CURVE SMOOTH",
"456 -12 OFFCURVE",
"476 50 OFFCURVE",
"476 130 CURVE",
"458 130 LINE",
"458 74 OFFCURVE",
"444 30 OFFCURVE",
"411 30 CURVE SMOOTH",
"390 30 OFFCURVE",
"380 47 OFFCURVE",
"380 80 CURVE SMOOTH",
"380 326 LINE SMOOTH",
"380 423 OFFCURVE",
"306 468 OFFCURVE",
"218 468 CURVE SMOOTH",
"195 468 OFFCURVE",
"173 464 OFFCURVE",
"152 455 CURVE SMOOTH",
"108 437 OFFCURVE",
"78 399 OFFCURVE",
"78 350 CURVE SMOOTH",
"78 307 OFFCURVE",
"107 284 OFFCURVE",
"136 284 CURVE SMOOTH",
"161 284 OFFCURVE",
"180 295 OFFCURVE",
"180 323 CURVE SMOOTH",
"180 344 OFFCURVE",
"167 355 OFFCURVE",
"143 362 CURVE",
"135 365 OFFCURVE",
"125 370 OFFCURVE",
"125 387 CURVE SMOOTH",
"125 416 OFFCURVE",
"170 444 OFFCURVE",
"215 444 CURVE SMOOTH",
"277 444 OFFCURVE",
"308 413 OFFCURVE",
"308 351 CURVE SMOOTH",
"308 266 LINE",
"216 249 LINE SMOOTH",
"141 235 OFFCURVE",
"46 214 OFFCURVE",
"46 106 CURVE SMOOTH",
"46 18 OFFCURVE",
"105 -12 OFFCURVE",
"176 -12 CURVE SMOOTH"
);
},
{
closed = 1;
nodes = (
"160 24 OFFCURVE",
"130 42 OFFCURVE",
"130 103 CURVE SMOOTH",
"130 175 OFFCURVE",
"157 213 OFFCURVE",
"221 226 CURVE SMOOTH",
"308 245 LINE",
"308 150 LINE",
"281 77 OFFCURVE",
"252 24 OFFCURVE",
"192 24 CURVE SMOOTH"
);
}
);
width = 494;
},
{
layerId = "6701A4D5-8A3D-41DD-8AA0-CFF5D98C5FFE";
paths = (
{
closed = 1;
nodes = (
"169 558 OFFCURVE",
"196 585 OFFCURVE",
"196 618 CURVE SMOOTH",
"196 651 OFFCURVE",
"169 678 OFFCURVE",
"136 678 CURVE SMOOTH",
"103 678 OFFCURVE",
"76 651 OFFCURVE",
"76 618 CURVE SMOOTH",
"76 585 OFFCURVE",
"103 558 OFFCURVE",
"136 558 CURVE SMOOTH"
);
},
{
closed = 1;
nodes = (
"361 558 OFFCURVE",
"388 585 OFFCURVE",
"388 618 CURVE SMOOTH",
"388 651 OFFCURVE",
"361 678 OFFCURVE",
"328 678 CURVE SMOOTH",
"295 678 OFFCURVE",
"268 651 OFFCURVE",
"268 618 CURVE SMOOTH",
"268 585 OFFCURVE",
"295 558 OFFCURVE",
"328 558 CURVE SMOOTH"
);
},
{
closed = 1;
nodes = (
"226 -12 OFFCURVE",
"263 6 OFFCURVE",
"290 42 CURVE",
"292 42 LINE",
"311 3 OFFCURVE",
"334 -12 OFFCURVE",
"389 -12 CURVE SMOOTH",
"465 -12 OFFCURVE",
"488 51 OFFCURVE",
"488 135 CURVE",
"460 135 LINE",
"460 83 OFFCURVE",
"448 36 OFFCURVE",
"424 36 CURVE SMOOTH",
"411 36 OFFCURVE",
"404 48 OFFCURVE",
"404 72 CURVE SMOOTH",
"404 325 LINE SMOOTH",
"404 437 OFFCURVE",
"320 486 OFFCURVE",
"224 486 CURVE SMOOTH",
"199 486 OFFCURVE",
"175 481 OFFCURVE",
"151 471 CURVE SMOOTH",
"103 450 OFFCURVE",
"69 409 OFFCURVE",
"69 358 CURVE SMOOTH",
"69 314 OFFCURVE",
"97 290 OFFCURVE",
"132 290 CURVE SMOOTH",
"160 290 OFFCURVE",
"188 309 OFFCURVE",
"188 341 CURVE SMOOTH",
"188 362 OFFCURVE",
"180 374 OFFCURVE",
"160 386 CURVE",
"148 394 OFFCURVE",
"144 407 OFFCURVE",
"144 415 CURVE SMOOTH",
"144 444 OFFCURVE",
"176 462 OFFCURVE",
"213 462 CURVE SMOOTH",
"257 462 OFFCURVE",
"288 433 OFFCURVE",
"288 365 CURVE SMOOTH",
"288 297 LINE",
"214 271 LINE SMOOTH",
"117 238 OFFCURVE",
"46 193 OFFCURVE",
"46 106 CURVE SMOOTH",
"46 21 OFFCURVE",
"105 -12 OFFCURVE",
"178 -12 CURVE SMOOTH"
);
},
{
closed = 1;
nodes = (
"196 28 OFFCURVE",
"168 50 OFFCURVE",
"168 115 CURVE SMOOTH",
"168 190 OFFCURVE",
"188 234 OFFCURVE",
"232 250 CURVE SMOOTH",
"288 270 LINE",
"288 72 LINE",
"273 43 OFFCURVE",
"253 28 OFFCURVE",
"227 28 CURVE SMOOTH"
);
}
);
width = 508;
}
);
leftKerningGroup = abreve;
note = adieresis;
rightKerningGroup = a;
unicode = 00E4;
},
{
glyphname = agrave;
lastChange = "2017-06-04 13:40:18 +0000";
layers = (
{
layerId = "9ECE4C5B-AE6E-45F8-855F-54F501A6946D";
paths = (
{
closed = 1;
nodes = (
"253 519 LINE",
"161 652 LINE SMOOTH",
"144 676 OFFCURVE",
"131 684 OFFCURVE",
"112 684 CURVE SMOOTH",
"95 684 OFFCURVE",
"84 672 OFFCURVE",
"84 653 CURVE SMOOTH",
"84 638 OFFCURVE",
"93 623 OFFCURVE",
"112 609 CURVE SMOOTH",
"240 508 LINE"
);
},
{
closed = 1;
nodes = (
"236 -12 OFFCURVE",
"283 39 OFFCURVE",
"303 86 CURVE",
"308 84 LINE",
"311 24 OFFCURVE",
"339 -12 OFFCURVE",
"396 -12 CURVE SMOOTH",
"456 -12 OFFCURVE",
"476 50 OFFCURVE",
"476 130 CURVE",
"458 130 LINE",
"458 74 OFFCURVE",
"444 30 OFFCURVE",
"411 30 CURVE SMOOTH",
"390 30 OFFCURVE",
"380 47 OFFCURVE",
"380 80 CURVE SMOOTH",
"380 326 LINE SMOOTH",
"380 423 OFFCURVE",
"306 468 OFFCURVE",
"218 468 CURVE SMOOTH",
"195 468 OFFCURVE",
"173 464 OFFCURVE",
"152 455 CURVE SMOOTH",
"108 437 OFFCURVE",
"78 399 OFFCURVE",
"78 350 CURVE SMOOTH",
"78 307 OFFCURVE",
"107 284 OFFCURVE",
"136 284 CURVE SMOOTH",
"161 284 OFFCURVE",
"180 295 OFFCURVE",
"180 323 CURVE SMOOTH",
"180 344 OFFCURVE",
"167 355 OFFCURVE",
"143 362 CURVE",
"135 365 OFFCURVE",
"125 370 OFFCURVE",
"125 387 CURVE SMOOTH",
"125 416 OFFCURVE",
"170 444 OFFCURVE",
"215 444 CURVE SMOOTH",
"277 444 OFFCURVE",
"308 413 OFFCURVE",
"308 351 CURVE SMOOTH",
"308 266 LINE",
"216 249 LINE SMOOTH",
"141 235 OFFCURVE",
"46 214 OFFCURVE",
"46 106 CURVE SMOOTH",
"46 18 OFFCURVE",
"105 -12 OFFCURVE",
"176 -12 CURVE SMOOTH"
);
},
{
closed = 1;
nodes = (
"160 24 OFFCURVE",
"130 42 OFFCURVE",
"130 103 CURVE SMOOTH",
"130 175 OFFCURVE",
"157 213 OFFCURVE",
"221 226 CURVE SMOOTH",
"308 245 LINE",
"308 150 LINE",
"281 77 OFFCURVE",
"252 24 OFFCURVE",
"192 24 CURVE SMOOTH"
);
}
);
width = 494;
},
{
layerId = "6701A4D5-8A3D-41DD-8AA0-CFF5D98C5FFE";
paths = (
{
closed = 1;
nodes = (
"276 542 LINE",
"187 680 LINE SMOOTH",
"172 704 OFFCURVE",
"157 712 OFFCURVE",
"138 712 CURVE SMOOTH",
"114 712 OFFCURVE",
"96 696 OFFCURVE",
"96 672 CURVE SMOOTH",
"96 654 OFFCURVE",
"105 638 OFFCURVE",
"124 624 CURVE SMOOTH",
"256 524 LINE"
);
},
{
closed = 1;
nodes = (
"226 -12 OFFCURVE",
"263 6 OFFCURVE",
"290 42 CURVE",
"292 42 LINE",
"311 3 OFFCURVE",
"334 -12 OFFCURVE",
"389 -12 CURVE SMOOTH",
"465 -12 OFFCURVE",
"488 51 OFFCURVE",
"488 135 CURVE",
"460 135 LINE",
"460 83 OFFCURVE",
"448 36 OFFCURVE",
"424 36 CURVE SMOOTH",
"411 36 OFFCURVE",
"404 48 OFFCURVE",
"404 72 CURVE SMOOTH",
"404 325 LINE SMOOTH",
"404 437 OFFCURVE",
"320 486 OFFCURVE",
"224 486 CURVE SMOOTH",
"199 486 OFFCURVE",
"175 481 OFFCURVE",
"151 471 CURVE SMOOTH",
"103 450 OFFCURVE",
"69 409 OFFCURVE",
"69 358 CURVE SMOOTH",
"69 314 OFFCURVE",
"97 290 OFFCURVE",
"132 290 CURVE SMOOTH",
"160 290 OFFCURVE",
"188 309 OFFCURVE",
"188 341 CURVE SMOOTH",
"188 362 OFFCURVE",
"180 374 OFFCURVE",
"160 386 CURVE",
"148 394 OFFCURVE",
"144 407 OFFCURVE",
"144 415 CURVE SMOOTH",
"144 444 OFFCURVE",
"176 462 OFFCURVE",
"213 462 CURVE SMOOTH",
"257 462 OFFCURVE",
"288 433 OFFCURVE",
"288 365 CURVE SMOOTH",
"288 297 LINE",
"214 271 LINE SMOOTH",
"117 238 OFFCURVE",
"46 193 OFFCURVE",
"46 106 CURVE SMOOTH",
"46 21 OFFCURVE",
"105 -12 OFFCURVE",
"178 -12 CURVE SMOOTH"
);
},
{
closed = 1;
nodes = (
"196 28 OFFCURVE",
"168 50 OFFCURVE",
"168 115 CURVE SMOOTH",
"168 190 OFFCURVE",
"188 234 OFFCURVE",
"232 250 CURVE SMOOTH",
"288 270 LINE",
"288 72 LINE",
"273 43 OFFCURVE",
"253 28 OFFCURVE",
"227 28 CURVE SMOOTH"
);
}
);
width = 508;
}
);
leftKerningGroup = abreve;
note = agrave;
rightKerningGroup = a;
unicode = 00E0;
},
{
glyphname = aring;
lastChange = "2017-06-04 13:40:28 +0000";
layers = (
{
layerId = "9ECE4C5B-AE6E-45F8-855F-54F501A6946D";
paths = (
{
closed = 1;
nodes = (
"283 500 OFFCURVE",
"326 545 OFFCURVE",
"326 598 CURVE SMOOTH",
"326 653 OFFCURVE",
"283 696 OFFCURVE",
"228 696 CURVE SMOOTH",
"175 696 OFFCURVE",
"130 653 OFFCURVE",
"130 598 CURVE SMOOTH",
"130 545 OFFCURVE",
"175 500 OFFCURVE",
"228 500 CURVE SMOOTH"
);
},
{
closed = 1;
nodes = (
"187 524 OFFCURVE",
"154 557 OFFCURVE",
"154 598 CURVE SMOOTH",
"154 639 OFFCURVE",
"187 672 OFFCURVE",
"228 672 CURVE SMOOTH",
"269 672 OFFCURVE",
"302 639 OFFCURVE",
"302 598 CURVE SMOOTH",
"302 557 OFFCURVE",
"269 524 OFFCURVE",
"228 524 CURVE SMOOTH"
);
},
{
closed = 1;
nodes = (
"236 -12 OFFCURVE",
"283 39 OFFCURVE",
"303 86 CURVE",
"308 84 LINE",
"311 24 OFFCURVE",
"339 -12 OFFCURVE",
"396 -12 CURVE SMOOTH",
"456 -12 OFFCURVE",
"476 50 OFFCURVE",
"476 130 CURVE",
"458 130 LINE",
"458 74 OFFCURVE",
"444 30 OFFCURVE",
"411 30 CURVE SMOOTH",
"390 30 OFFCURVE",
"380 47 OFFCURVE",
"380 80 CURVE SMOOTH",
"380 326 LINE SMOOTH",
"380 423 OFFCURVE",
"306 468 OFFCURVE",
"218 468 CURVE SMOOTH",
"195 468 OFFCURVE",
"173 464 OFFCURVE",
"152 455 CURVE SMOOTH",
"108 437 OFFCURVE",
"78 399 OFFCURVE",
"78 350 CURVE SMOOTH",
"78 307 OFFCURVE",
"107 284 OFFCURVE",
"136 284 CURVE SMOOTH",
"161 284 OFFCURVE",
"180 295 OFFCURVE",
"180 323 CURVE SMOOTH",
"180 344 OFFCURVE",
"167 355 OFFCURVE",
"143 362 CURVE",
"135 365 OFFCURVE",
"125 370 OFFCURVE",
"125 387 CURVE SMOOTH",
"125 416 OFFCURVE",
"170 444 OFFCURVE",
"215 444 CURVE SMOOTH",
"277 444 OFFCURVE",
"308 413 OFFCURVE",
"308 351 CURVE SMOOTH",
"308 266 LINE",
"216 249 LINE SMOOTH",
"141 235 OFFCURVE",
"46 214 OFFCURVE",
"46 106 CURVE SMOOTH",
"46 18 OFFCURVE",
"105 -12 OFFCURVE",
"176 -12 CURVE SMOOTH"
);
},
{
closed = 1;
nodes = (
"160 24 OFFCURVE",
"130 42 OFFCURVE",
"130 103 CURVE SMOOTH",
"130 175 OFFCURVE",
"157 213 OFFCURVE",
"221 226 CURVE SMOOTH",
"308 245 LINE",
"308 150 LINE",
"281 77 OFFCURVE",
"252 24 OFFCURVE",
"192 24 CURVE SMOOTH"
);
}
);
width = 494;
},
{
layerId = "6701A4D5-8A3D-41DD-8AA0-CFF5D98C5FFE";
paths = (
{
closed = 1;
nodes = (
"292 516 OFFCURVE",
"339 563 OFFCURVE",
"339 623 CURVE SMOOTH",
"339 683 OFFCURVE",
"292 730 OFFCURVE",
"232 730 CURVE SMOOTH",
"172 730 OFFCURVE",
"125 683 OFFCURVE",
"125 623 CURVE SMOOTH",
"125 563 OFFCURVE",
"172 516 OFFCURVE",
"232 516 CURVE SMOOTH"
);
},
{
closed = 1;
nodes = (
"195 560 OFFCURVE",
"169 586 OFFCURVE",
"169 623 CURVE SMOOTH",
"169 662 OFFCURVE",
"195 686 OFFCURVE",
"232 686 CURVE SMOOTH",
"271 686 OFFCURVE",
"295 662 OFFCURVE",
"295 623 CURVE SMOOTH",
"295 586 OFFCURVE",
"271 560 OFFCURVE",
"232 560 CURVE SMOOTH"
);
},
{
closed = 1;
nodes = (
"226 -12 OFFCURVE",
"263 6 OFFCURVE",
"290 42 CURVE",
"292 42 LINE",
"311 3 OFFCURVE",
"334 -12 OFFCURVE",
"389 -12 CURVE SMOOTH",
"465 -12 OFFCURVE",
"488 51 OFFCURVE",
"488 135 CURVE",
"460 135 LINE",
"460 83 OFFCURVE",
"448 36 OFFCURVE",
"424 36 CURVE SMOOTH",
"411 36 OFFCURVE",
"404 48 OFFCURVE",
"404 72 CURVE SMOOTH",
"404 325 LINE SMOOTH",
"404 437 OFFCURVE",
"320 486 OFFCURVE",
"224 486 CURVE SMOOTH",
"199 486 OFFCURVE",
"175 481 OFFCURVE",
"151 471 CURVE SMOOTH",
"103 450 OFFCURVE",
"69 409 OFFCURVE",
"69 358 CURVE SMOOTH",
"69 314 OFFCURVE",
"97 290 OFFCURVE",
"132 290 CURVE SMOOTH",
"160 290 OFFCURVE",
"188 309 OFFCURVE",
"188 341 CURVE SMOOTH",
"188 362 OFFCURVE",
"180 374 OFFCURVE",
"160 386 CURVE",
"148 394 OFFCURVE",
"144 407 OFFCURVE",
"144 415 CURVE SMOOTH",
"144 444 OFFCURVE",
"176 462 OFFCURVE",
"213 462 CURVE SMOOTH",
"257 462 OFFCURVE",
"288 433 OFFCURVE",
"288 365 CURVE SMOOTH",
"288 297 LINE",
"214 271 LINE SMOOTH",
"117 238 OFFCURVE",
"46 193 OFFCURVE",
"46 106 CURVE SMOOTH",
"46 21 OFFCURVE",
"105 -12 OFFCURVE",
"178 -12 CURVE SMOOTH"
);
},
{
closed = 1;
nodes = (
"196 28 OFFCURVE",
"168 50 OFFCURVE",
"168 115 CURVE SMOOTH",
"168 190 OFFCURVE",
"188 234 OFFCURVE",
"232 250 CURVE SMOOTH",
"288 270 LINE",
"288 72 LINE",
"273 43 OFFCURVE",
"253 28 OFFCURVE",
"227 28 CURVE SMOOTH"
);
}
);
width = 508;
}
);
leftKerningGroup = abreve;
note = aring;
rightKerningGroup = a;
unicode = 00E5;
},
{
glyphname = atilde;
lastChange = "2017-06-04 13:41:43 +0000";
layers = (
{
layerId = "9ECE4C5B-AE6E-45F8-855F-54F501A6946D";
paths = (
{
closed = 1;
nodes = (
"111 582 OFFCURVE",
"126 596 OFFCURVE",
"149 596 CURVE SMOOTH",
"169 596 OFFCURVE",
"184 591 OFFCURVE",
"209 580 CURVE SMOOTH",
"238 568 OFFCURVE",
"259 560 OFFCURVE",
"284 560 CURVE SMOOTH",
"332 560 OFFCURVE",
"362 600 OFFCURVE",
"370 648 CURVE",
"353 652 LINE",
"345 624 OFFCURVE",
"330 610 OFFCURVE",
"307 610 CURVE SMOOTH",
"287 610 OFFCURVE",
"272 615 OFFCURVE",
"247 626 CURVE SMOOTH",
"218 638 OFFCURVE",
"197 646 OFFCURVE",
"172 646 CURVE SMOOTH",
"124 646 OFFCURVE",
"94 606 OFFCURVE",
"86 558 CURVE",
"103 554 LINE"
);
},
{
closed = 1;
nodes = (
"236 -12 OFFCURVE",
"283 39 OFFCURVE",
"303 86 CURVE",
"308 84 LINE",
"311 24 OFFCURVE",
"339 -12 OFFCURVE",
"396 -12 CURVE SMOOTH",
"456 -12 OFFCURVE",
"476 50 OFFCURVE",
"476 130 CURVE",
"458 130 LINE",
"458 74 OFFCURVE",
"444 30 OFFCURVE",
"411 30 CURVE SMOOTH",
"390 30 OFFCURVE",
"380 47 OFFCURVE",
"380 80 CURVE SMOOTH",
"380 326 LINE SMOOTH",
"380 423 OFFCURVE",
"306 468 OFFCURVE",
"218 468 CURVE SMOOTH",
"195 468 OFFCURVE",
"173 464 OFFCURVE",
"152 455 CURVE SMOOTH",
"108 437 OFFCURVE",
"78 399 OFFCURVE",
"78 350 CURVE SMOOTH",
"78 307 OFFCURVE",
"107 284 OFFCURVE",
"136 284 CURVE SMOOTH",
"161 284 OFFCURVE",
"180 295 OFFCURVE",
"180 323 CURVE SMOOTH",
"180 357 OFFCURVE",
"157 352 OFFCURVE",
"135 366 CURVE SMOOTH",
"129 370 OFFCURVE",
"125 374 OFFCURVE",
"125 387 CURVE SMOOTH",
"125 416 OFFCURVE",
"170 444 OFFCURVE",
"215 444 CURVE SMOOTH",
"277 444 OFFCURVE",
"308 413 OFFCURVE",
"308 351 CURVE SMOOTH",
"308 266 LINE",
"216 249 LINE SMOOTH",
"141 235 OFFCURVE",
"46 214 OFFCURVE",
"46 106 CURVE SMOOTH",
"46 18 OFFCURVE",
"105 -12 OFFCURVE",
"176 -12 CURVE SMOOTH"
);
},
{
closed = 1;
nodes = (
"160 24 OFFCURVE",
"130 42 OFFCURVE",
"130 103 CURVE SMOOTH",
"130 175 OFFCURVE",
"157 213 OFFCURVE",
"221 226 CURVE SMOOTH",
"308 245 LINE",
"308 150 LINE",
"281 77 OFFCURVE",
"252 24 OFFCURVE",
"192 24 CURVE SMOOTH"
);
}
);
width = 494;
},
{
layerId = "6701A4D5-8A3D-41DD-8AA0-CFF5D98C5FFE";
paths = (
{
closed = 1;
nodes = (
"111 591 OFFCURVE",
"124 604 OFFCURVE",
"146 604 CURVE SMOOTH",
"165 604 OFFCURVE",
"187 599 OFFCURVE",
"210 589 CURVE SMOOTH",
"245 574 OFFCURVE",
"263 568 OFFCURVE",
"292 568 CURVE SMOOTH",
"340 568 OFFCURVE",
"380 621 OFFCURVE",
"380 676 CURVE",
"358 676 LINE",
"353 649 OFFCURVE",
"340 636 OFFCURVE",
"318 636 CURVE SMOOTH",
"299 636 OFFCURVE",
"277 641 OFFCURVE",
"254 651 CURVE SMOOTH",
"219 666 OFFCURVE",
"201 672 OFFCURVE",
"172 672 CURVE SMOOTH",
"121 672 OFFCURVE",
"84 619 OFFCURVE",
"84 564 CURVE",
"106 564 LINE"
);
},
{
closed = 1;
nodes = (
"226 -12 OFFCURVE",
"263 6 OFFCURVE",
"290 42 CURVE",
"292 42 LINE",
"311 3 OFFCURVE",
"334 -12 OFFCURVE",
"389 -12 CURVE SMOOTH",
"465 -12 OFFCURVE",
"488 51 OFFCURVE",
"488 135 CURVE",
"460 135 LINE",
"460 83 OFFCURVE",
"448 36 OFFCURVE",
"424 36 CURVE SMOOTH",
"411 36 OFFCURVE",
"404 48 OFFCURVE",
"404 72 CURVE SMOOTH",
"404 325 LINE SMOOTH",
"404 437 OFFCURVE",
"320 486 OFFCURVE",
"224 486 CURVE SMOOTH",
"199 486 OFFCURVE",
"175 481 OFFCURVE",
"151 471 CURVE SMOOTH",
"103 450 OFFCURVE",
"69 409 OFFCURVE",
"69 358 CURVE SMOOTH",
"69 314 OFFCURVE",
"97 290 OFFCURVE",
"132 290 CURVE SMOOTH",
"160 290 OFFCURVE",
"188 309 OFFCURVE",
"188 341 CURVE SMOOTH",
"188 362 OFFCURVE",
"180 374 OFFCURVE",
"160 386 CURVE",
"148 394 OFFCURVE",
"144 407 OFFCURVE",
"144 415 CURVE SMOOTH",
"144 444 OFFCURVE",
"176 462 OFFCURVE",
"213 462 CURVE SMOOTH",
"257 462 OFFCURVE",
"288 433 OFFCURVE",
"288 365 CURVE SMOOTH",
"288 297 LINE",
"214 271 LINE SMOOTH",
"117 238 OFFCURVE",
"46 193 OFFCURVE",
"46 106 CURVE SMOOTH",
"46 21 OFFCURVE",
"105 -12 OFFCURVE",
"178 -12 CURVE SMOOTH"
);
},
{
closed = 1;
nodes = (
"196 28 OFFCURVE",
"168 50 OFFCURVE",
"168 115 CURVE SMOOTH",
"168 190 OFFCURVE",
"188 234 OFFCURVE",
"232 250 CURVE SMOOTH",
"288 270 LINE",
"288 72 LINE",
"273 43 OFFCURVE",
"253 28 OFFCURVE",
"227 28 CURVE SMOOTH"
);
}
);
width = 508;
}
);
leftKerningGroup = abreve;
note = atilde;
rightKerningGroup = a;
unicode = 00E3;
},
{
glyphname = ae;
lastChange = "2017-06-04 13:41:29 +0000";
layers = (
{
layerId = "9ECE4C5B-AE6E-45F8-855F-54F501A6946D";
paths = (
{
closed = 1;
nodes = (
"237 -12 OFFCURVE",
"300 46 OFFCURVE",
"323 92 CURVE",
"352 32 OFFCURVE",
"406 -12 OFFCURVE",
"494 -12 CURVE SMOOTH",
"589 -12 OFFCURVE",
"652 59 OFFCURVE",
"660 156 CURVE",
"636 156 LINE",
"621 57 OFFCURVE",
"559 12 OFFCURVE",
"498 12 CURVE SMOOTH",
"413 12 OFFCURVE",
"380 95 OFFCURVE",
"380 230 CURVE",
"656 230 LINE",
"656 265 OFFCURVE",
"650 318 OFFCURVE",
"639 352 CURVE SMOOTH",
"615 419 OFFCURVE",
"563 468 OFFCURVE",
"482 468 CURVE SMOOTH",
"432 468 OFFCURVE",
"390 448 OFFCURVE",
"357 408 CURVE",
"328 449 OFFCURVE",
"275 468 OFFCURVE",
"218 468 CURVE SMOOTH",
"195 468 OFFCURVE",
"173 464 OFFCURVE",
"152 455 CURVE SMOOTH",
"108 437 OFFCURVE",
"78 399 OFFCURVE",
"78 350 CURVE SMOOTH",
"78 307 OFFCURVE",
"107 284 OFFCURVE",
"136 284 CURVE SMOOTH",
"161 284 OFFCURVE",
"180 295 OFFCURVE",
"180 323 CURVE SMOOTH",
"180 341 OFFCURVE",
"172 353 OFFCURVE",
"135 366 CURVE",
"129 370 OFFCURVE",
"125 374 OFFCURVE",
"125 387 CURVE SMOOTH",
"125 416 OFFCURVE",
"170 444 OFFCURVE",
"215 444 CURVE SMOOTH",
"277 444 OFFCURVE",
"308 413 OFFCURVE",
"308 351 CURVE SMOOTH",
"308 266 LINE",
"216 249 LINE SMOOTH",
"141 235 OFFCURVE",
"46 214 OFFCURVE",
"46 106 CURVE SMOOTH",
"46 18 OFFCURVE",
"105 -12 OFFCURVE",
"176 -12 CURVE SMOOTH"
);
},
{
closed = 1;
nodes = (
"380 359 OFFCURVE",
"413 444 OFFCURVE",
"480 444 CURVE SMOOTH",
"544 444 OFFCURVE",
"570 361 OFFCURVE",
"570 254 CURVE",
"380 254 LINE"
);
},
{
closed = 1;
nodes = (
"160 24 OFFCURVE",
"130 42 OFFCURVE",
"130 103 CURVE SMOOTH",
"130 175 OFFCURVE",
"157 214 OFFCURVE",
"221 226 CURVE SMOOTH",
"308 242 LINE",
"308 186 OFFCURVE",
"310 143 OFFCURVE",
"314 114 CURVE",
"295 67 OFFCURVE",
"253 24 OFFCURVE",
"192 24 CURVE SMOOTH"
);
}
);
width = 700;
},
{
layerId = "6701A4D5-8A3D-41DD-8AA0-CFF5D98C5FFE";
paths = (
{
closed = 1;
nodes = (
"246 -12 OFFCURVE",
"292 17 OFFCURVE",
"328 66 CURVE",
"361 17 OFFCURVE",
"424 -12 OFFCURVE",
"489 -12 CURVE SMOOTH",
"592 -12 OFFCURVE",
"642 70 OFFCURVE",
"650 162 CURVE",
"624 162 LINE",
"616 85 OFFCURVE",
"574 18 OFFCURVE",
"509 18 CURVE SMOOTH",
"414 18 OFFCURVE",
"404 122 OFFCURVE",
"404 228 CURVE",
"648 228 LINE",
"648 273 OFFCURVE",
"646 307 OFFCURVE",
"641 328 CURVE",
"622 423 OFFCURVE",
"559 486 OFFCURVE",
"478 486 CURVE SMOOTH",
"431 486 OFFCURVE",
"383 473 OFFCURVE",
"350 442 CURVE",
"315 471 OFFCURVE",
"271 486 OFFCURVE",
"218 486 CURVE SMOOTH",
"193 486 OFFCURVE",
"170 481 OFFCURVE",
"147 471 CURVE SMOOTH",
"102 450 OFFCURVE",
"69 410 OFFCURVE",
"69 358 CURVE SMOOTH",
"69 314 OFFCURVE",
"97 290 OFFCURVE",
"132 290 CURVE SMOOTH",
"160 290 OFFCURVE",
"188 309 OFFCURVE",
"188 341 CURVE SMOOTH",
"188 362 OFFCURVE",
"180 374 OFFCURVE",
"160 386 CURVE",
"148 394 OFFCURVE",
"144 407 OFFCURVE",
"144 415 CURVE SMOOTH",
"144 444 OFFCURVE",
"175 462 OFFCURVE",
"211 462 CURVE SMOOTH",
"255 462 OFFCURVE",
"288 433 OFFCURVE",
"288 365 CURVE SMOOTH",
"288 297 LINE",
"214 271 LINE SMOOTH",
"118 238 OFFCURVE",
"46 195 OFFCURVE",
"46 107 CURVE SMOOTH",
"46 23 OFFCURVE",
"105 -12 OFFCURVE",
"174 -12 CURVE SMOOTH"
);
},
{
closed = 1;
nodes = (
"404 353 OFFCURVE",
"408 462 OFFCURVE",
"468 462 CURVE SMOOTH",
"529 462 OFFCURVE",
"532 358 OFFCURVE",
"532 256 CURVE",
"404 256 LINE"
);
},
{
closed = 1;
nodes = (
"197 28 OFFCURVE",
"168 50 OFFCURVE",
"168 115 CURVE SMOOTH",
"168 190 OFFCURVE",
"189 235 OFFCURVE",
"232 250 CURVE SMOOTH",
"288 269 LINE",
"288 201 OFFCURVE",
"288 134 OFFCURVE",
"288 66 CURVE",
"271 41 OFFCURVE",
"250 28 OFFCURVE",
"224 28 CURVE SMOOTH"
);
}
);
width = 700;
}
);
leftKerningGroup = a;
note = ae;
unicode = 00E6;
},
{
glyphname = b;
lastChange = "2017-06-04 13:42:25 +0000";
layers = (
{
layerId = "9ECE4C5B-AE6E-45F8-855F-54F501A6946D";
paths = (
{
closed = 1;
nodes = (
"319 -12 OFFCURVE",
"349 -1 OFFCURVE",
"376 20 CURVE SMOOTH",
"430 62 OFFCURVE",
"464 139 OFFCURVE",
"464 228 CURVE SMOOTH",
"464 273 OFFCURVE",
"456 313 OFFCURVE",
"440 350 CURVE SMOOTH",
"408 423 OFFCURVE",
"351 468 OFFCURVE",
"288 468 CURVE SMOOTH",
"236 468 OFFCURVE",
"192 429 OFFCURVE",
"172 381 CURVE",
"168 382 LINE",
"168 712 LINE",
"22 712 LINE",
"22 688 LINE",
"74 688 LINE SMOOTH",
"90 688 OFFCURVE",
"96 682 OFFCURVE",
"96 666 CURVE SMOOTH",
"96 0 LINE",
"114 0 LINE",
"156 86 LINE",
"160 86 LINE",
"187 27 OFFCURVE",
"235 -12 OFFCURVE",
"288 -12 CURVE SMOOTH"
);
},
{
closed = 1;
nodes = (
"257 16 OFFCURVE",
"239 23 OFFCURVE",
"222 38 CURVE SMOOTH",
"189 67 OFFCURVE",
"168 122 OFFCURVE",
"168 182 CURVE SMOOTH",
"168 309 OFFCURVE",
"167 317 OFFCURVE",
"183 358 CURVE SMOOTH",
"202 409 OFFCURVE",
"237 440 OFFCURVE",
"277 440 CURVE SMOOTH",
"342 440 OFFCURVE",
"376 364 OFFCURVE",
"376 228 CURVE SMOOTH",
"376 92 OFFCURVE",
"342 16 OFFCURVE",
"277 16 CURVE SMOOTH"
);
}
);
width = 512;
},
{
layerId = "6701A4D5-8A3D-41DD-8AA0-CFF5D98C5FFE";
paths = (
{
closed = 1;
nodes = (
"335 -12 OFFCURVE",
"366 0 OFFCURVE",
"393 24 CURVE SMOOTH",
"448 71 OFFCURVE",
"480 153 OFFCURVE",
"480 237 CURVE SMOOTH",
"480 280 OFFCURVE",
"473 320 OFFCURVE",
"458 358 CURVE SMOOTH",
"429 434 OFFCURVE",
"373 486 OFFCURVE",
"304 486 CURVE SMOOTH",
"261 486 OFFCURVE",
"227 459 OFFCURVE",
"206 415 CURVE",
"200 417 LINE",
"200 712 LINE",
"12 712 LINE",
"12 688 LINE",
"68 688 LINE SMOOTH",
"80 688 OFFCURVE",
"84 684 OFFCURVE",
"84 672 CURVE SMOOTH",
"84 0 LINE",
"129 0 LINE",
"160 82 LINE",
"171 82 LINE",
"196 43 OFFCURVE",
"252 -12 OFFCURVE",
"300 -12 CURVE SMOOTH"
);
},
{
closed = 1;
nodes = (
"271 20 OFFCURVE",
"257 30 OFFCURVE",
"244 49 CURVE SMOOTH",
"218 87 OFFCURVE",
"200 155 OFFCURVE",
"200 234 CURVE SMOOTH",
"200 330 OFFCURVE",
"221 398 OFFCURVE",
"248 430 CURVE SMOOTH",
"261 446 OFFCURVE",
"274 454 OFFCURVE",
"286 454 CURVE SMOOTH",
"330 454 OFFCURVE",
"352 382 OFFCURVE",
"352 237 CURVE SMOOTH",
"352 92 OFFCURVE",
"330 20 OFFCURVE",
"286 20 CURVE SMOOTH"
);
}
);
width = 528;
}
);
note = b;
rightKerningGroup = b;
unicode = 0062;
},
{
glyphname = c;
lastChange = "2017-06-04 13:43:16 +0000";
layers = (
{
layerId = "9ECE4C5B-AE6E-45F8-855F-54F501A6946D";
paths = (
{
closed = 1;
nodes = (
"334 -12 OFFCURVE",
"395 59 OFFCURVE",
"402 156 CURVE",
"378 156 LINE",
"369 79 OFFCURVE",
"325 12 OFFCURVE",
"244 12 CURVE SMOOTH",
"159 12 OFFCURVE",
"136 84 OFFCURVE",
"136 228 CURVE SMOOTH",
"136 372 OFFCURVE",
"160 444 OFFCURVE",
"244 444 CURVE SMOOTH",
"289 444 OFFCURVE",
"342 418 OFFCURVE",
"342 379 CURVE SMOOTH",
"342 356 OFFCURVE",
"292 358 OFFCURVE",
"292 315 CURVE SMOOTH",
"292 291 OFFCURVE",
"312 271 OFFCURVE",
"339 271 CURVE SMOOTH",
"370 271 OFFCURVE",
"394 296 OFFCURVE",
"394 337 CURVE SMOOTH",
"394 400 OFFCURVE",
"338 468 OFFCURVE",
"244 468 CURVE SMOOTH",
"134 468 OFFCURVE",
"48 367 OFFCURVE",
"48 228 CURVE SMOOTH",
"48 113 OFFCURVE",
"113 -12 OFFCURVE",
"244 -12 CURVE SMOOTH"
);
}
);
width = 436;
},
{
layerId = "6701A4D5-8A3D-41DD-8AA0-CFF5D98C5FFE";
paths = (
{
closed = 1;
nodes = (
"364 -12 OFFCURVE",
"414 70 OFFCURVE",
"422 162 CURVE",
"396 162 LINE",
"388 85 OFFCURVE",
"346 18 OFFCURVE",
"281 18 CURVE SMOOTH",
"183 18 OFFCURVE",
"176 125 OFFCURVE",
"176 237 CURVE SMOOTH",
"176 341 OFFCURVE",
"191 462 OFFCURVE",
"267 462 CURVE SMOOTH",
"312 462 OFFCURVE",
"332 434 OFFCURVE",
"332 406 CURVE SMOOTH",
"332 367 OFFCURVE",
"276 359 OFFCURVE",
"276 312 CURVE SMOOTH",
"276 281 OFFCURVE",
"298 262 OFFCURVE",
"329 262 CURVE SMOOTH",
"370 262 OFFCURVE",
"404 303 OFFCURVE",
"404 351 CURVE SMOOTH",
"404 416 OFFCURVE",
"357 486 OFFCURVE",
"259 486 CURVE SMOOTH",
"140 486 OFFCURVE",
"48 382 OFFCURVE",
"48 237 CURVE SMOOTH",
"48 116 OFFCURVE",
"122 -12 OFFCURVE",
"261 -12 CURVE SMOOTH"
);
}
);
width = 468;
}
);
leftKerningGroup = c;
note = c;
unicode = 0063;
},
{
glyphname = ccedilla;
lastChange = "2017-06-04 13:43:41 +0000";
layers = (
{
layerId = "9ECE4C5B-AE6E-45F8-855F-54F501A6946D";
paths = (
{
closed = 1;
nodes = (
"316 -212 OFFCURVE",
"346 -171 OFFCURVE",
"346 -122 CURVE SMOOTH",
"346 -75 OFFCURVE",
"310 -50 OFFCURVE",
"266 -50 CURVE SMOOTH",
"240 -50 LINE",
"246 -12 LINE",
"336 -12 OFFCURVE",
"395 60 OFFCURVE",
"402 156 CURVE",
"378 156 LINE",
"369 79 OFFCURVE",
"325 12 OFFCURVE",
"244 12 CURVE SMOOTH",
"159 12 OFFCURVE",
"136 84 OFFCURVE",
"136 228 CURVE SMOOTH",
"136 372 OFFCURVE",
"160 444 OFFCURVE",
"244 444 CURVE SMOOTH",
"289 444 OFFCURVE",
"342 418 OFFCURVE",
"342 379 CURVE SMOOTH",
"342 370 OFFCURVE",
"337 364 OFFCURVE",
"326 361 CURVE SMOOTH",
"307 356 OFFCURVE",
"292 339 OFFCURVE",
"292 315 CURVE SMOOTH",
"292 291 OFFCURVE",
"312 271 OFFCURVE",
"339 271 CURVE SMOOTH",
"370 271 OFFCURVE",
"394 296 OFFCURVE",
"394 337 CURVE SMOOTH",
"394 400 OFFCURVE",
"338 468 OFFCURVE",
"244 468 CURVE SMOOTH",
"134 468 OFFCURVE",
"48 367 OFFCURVE",
"48 228 CURVE SMOOTH",
"48 124 OFFCURVE",
"102 3 OFFCURVE",
"223 -11 CURVE",
"209 -98 LINE",
"250 -98 LINE SMOOTH",
"289 -98 OFFCURVE",
"308 -114 OFFCURVE",
"308 -146 CURVE SMOOTH",
"308 -177 OFFCURVE",
"287 -194 OFFCURVE",
"251 -194 CURVE SMOOTH",
"229 -194 OFFCURVE",
"216 -181 OFFCURVE",
"211 -154 CURVE",
"208 -133 OFFCURVE",
"199 -122 OFFCURVE",
"184 -122 CURVE SMOOTH",
"171 -122 OFFCURVE",
"160 -134 OFFCURVE",
"160 -149 CURVE SMOOTH",
"160 -189 OFFCURVE",
"200 -212 OFFCURVE",
"244 -212 CURVE SMOOTH"
);
}
);
width = 436;
},
{
layerId = "6701A4D5-8A3D-41DD-8AA0-CFF5D98C5FFE";
paths = (
{
closed = 1;
nodes = (
"326 -208 OFFCURVE",
"360 -168 OFFCURVE",
"360 -117 CURVE SMOOTH",
"360 -74 OFFCURVE",
"324 -42 OFFCURVE",
"276 -42 CURVE SMOOTH",
"251 -42 LINE",
"255 -12 LINE",
"366 -12 OFFCURVE",
"414 68 OFFCURVE",
"422 162 CURVE",
"396 162 LINE",
"388 85 OFFCURVE",
"346 18 OFFCURVE",
"281 18 CURVE SMOOTH",
"183 18 OFFCURVE",
"176 125 OFFCURVE",
"176 237 CURVE SMOOTH",
"176 341 OFFCURVE",
"191 462 OFFCURVE",
"267 462 CURVE SMOOTH",
"312 462 OFFCURVE",
"332 434 OFFCURVE",
"332 406 CURVE SMOOTH",
"332 392 OFFCURVE",
"324 378 OFFCURVE",
"308 365 CURVE SMOOTH",
"287 348 OFFCURVE",
"276 330 OFFCURVE",
"276 312 CURVE SMOOTH",
"276 281 OFFCURVE",
"298 262 OFFCURVE",
"329 262 CURVE SMOOTH",
"370 262 OFFCURVE",
"404 303 OFFCURVE",
"404 351 CURVE SMOOTH",
"404 416 OFFCURVE",
"357 486 OFFCURVE",
"259 486 CURVE SMOOTH",
"140 486 OFFCURVE",
"48 382 OFFCURVE",
"48 237 CURVE SMOOTH",
"48 128 OFFCURVE",
"107 9 OFFCURVE",
"231 -10 CURVE",
"217 -98 LINE",
"264 -98 LINE SMOOTH",
"296 -98 OFFCURVE",
"312 -115 OFFCURVE",
"312 -140 CURVE SMOOTH",
"312 -167 OFFCURVE",
"294 -186 OFFCURVE",
"265 -186 CURVE SMOOTH",
"238 -186 OFFCURVE",
"221 -173 OFFCURVE",
"216 -148 CURVE SMOOTH",
"211 -123 OFFCURVE",
"205 -111 OFFCURVE",
"185 -111 CURVE SMOOTH",
"166 -111 OFFCURVE",
"156 -123 OFFCURVE",
"156 -143 CURVE SMOOTH",
"156 -184 OFFCURVE",
"204 -208 OFFCURVE",
"251 -208 CURVE SMOOTH"
);
}
);
width = 468;
}
);
leftKerningGroup = c;
note = ccedilla;
unicode = 00E7;
},
{
glyphname = d;
lastChange = "2017-06-04 13:44:00 +0000";
layers = (
{
layerId = "9ECE4C5B-AE6E-45F8-855F-54F501A6946D";
paths = (
{
closed = 1;
nodes = (
"275 -12 OFFCURVE",
"315 22 OFFCURVE",
"340 75 CURVE",
"344 74 LINE",
"344 0 LINE",
"490 0 LINE",
"490 24 LINE",
"438 24 LINE SMOOTH",
"422 24 OFFCURVE",
"416 30 OFFCURVE",
"416 46 CURVE SMOOTH",
"416 712 LINE",
"250 712 LINE",
"250 688 LINE",
"322 688 LINE SMOOTH",
"338 688 OFFCURVE",
"344 682 OFFCURVE",
"344 666 CURVE SMOOTH",
"344 382 LINE",
"340 381 LINE",
"320 429 OFFCURVE",
"276 468 OFFCURVE",
"224 468 CURVE SMOOTH",
"193 468 OFFCURVE",
"164 458 OFFCURVE",
"137 437 CURVE SMOOTH",
"83 395 OFFCURVE",
"48 317 OFFCURVE",
"48 228 CURVE SMOOTH",
"48 183 OFFCURVE",
"56 143 OFFCURVE",
"72 106 CURVE SMOOTH",
"104 33 OFFCURVE",
"161 -12 OFFCURVE",
"224 -12 CURVE SMOOTH"
);
},
{
closed = 1;
nodes = (
"170 16 OFFCURVE",
"136 92 OFFCURVE",
"136 228 CURVE SMOOTH",
"136 364 OFFCURVE",
"170 440 OFFCURVE",
"235 440 CURVE SMOOTH",
"255 440 OFFCURVE",
"273 433 OFFCURVE",
"290 418 CURVE SMOOTH",
"323 389 OFFCURVE",
"344 334 OFFCURVE",
"344 274 CURVE SMOOTH",
"344 243 OFFCURVE",
"344 213 OFFCURVE",
"344 182 CURVE SMOOTH",
"344 101 OFFCURVE",
"304 16 OFFCURVE",
"235 16 CURVE SMOOTH"
);
}
);
width = 522;
},
{
layerId = "6701A4D5-8A3D-41DD-8AA0-CFF5D98C5FFE";
paths = (
{
closed = 1;
nodes = (
"271 -12 OFFCURVE",
"305 21 OFFCURVE",
"322 58 CURVE",
"328 58 LINE",
"328 0 LINE",
"516 0 LINE",
"516 24 LINE",
"460 24 LINE SMOOTH",
"448 24 OFFCURVE",
"444 28 OFFCURVE",
"444 40 CURVE SMOOTH",
"444 712 LINE",
"256 712 LINE",
"256 688 LINE",
"312 688 LINE SMOOTH",
"324 688 OFFCURVE",
"328 684 OFFCURVE",
"328 672 CURVE SMOOTH",
"328 417 LINE",
"322 415 LINE",
"301 459 OFFCURVE",
"267 486 OFFCURVE",
"224 486 CURVE SMOOTH",
"189 486 OFFCURVE",
"159 474 OFFCURVE",
"132 451 CURVE SMOOTH",
"79 403 OFFCURVE",
"48 322 OFFCURVE",
"48 237 CURVE SMOOTH",
"48 195 OFFCURVE",
"56 155 OFFCURVE",
"71 117 CURVE SMOOTH",
"102 40 OFFCURVE",
"159 -12 OFFCURVE",
"228 -12 CURVE SMOOTH"
);
},
{
closed = 1;
nodes = (
"198 20 OFFCURVE",
"176 92 OFFCURVE",
"176 237 CURVE SMOOTH",
"176 382 OFFCURVE",
"198 454 OFFCURVE",
"242 454 CURVE SMOOTH",
"254 454 OFFCURVE",
"267 446 OFFCURVE",
"280 430 CURVE SMOOTH",
"307 398 OFFCURVE",
"328 330 OFFCURVE",
"328 234 CURVE SMOOTH",
"328 195 OFFCURVE",
"324 159 OFFCURVE",
"316 126 CURVE SMOOTH",
"300 61 OFFCURVE",
"273 20 OFFCURVE",
"242 20 CURVE SMOOTH"
);
}
);
width = 538;
}
);
leftKerningGroup = c;
note = d;
unicode = 0064;
},
{
glyphname = eth;
lastChange = "2017-06-04 13:44:43 +0000";
layers = (
{
layerId = "9ECE4C5B-AE6E-45F8-855F-54F501A6946D";
paths = (
{
closed = 1;
nodes = (
"285 -12 OFFCURVE",
"318 -1 OFFCURVE",
"349 20 CURVE SMOOTH",
"409 62 OFFCURVE",
"448 145 OFFCURVE",
"448 258 CURVE SMOOTH",
"448 341 OFFCURVE",
"417 430 OFFCURVE",
"356 525 CURVE SMOOTH",
"335 558 OFFCURVE",
"312 588 OFFCURVE",
"289 617 CURVE",
"394 683 LINE",
"379 706 LINE",
"271 638 LINE",
"244 672 OFFCURVE",
"221 697 OFFCURVE",
"204 712 CURVE",
"108 712 LINE",
"147 676 OFFCURVE",
"181 639 OFFCURVE",
"211 601 CURVE",
"107 536 LINE",
"122 513 LINE",
"230 580 LINE",
"271 529 OFFCURVE",
"299 489 OFFCURVE",
"314 460 CURVE",
"311 456 LINE",
"290 464 OFFCURVE",
"269 468 OFFCURVE",
"248 468 CURVE SMOOTH",
"211 468 OFFCURVE",
"178 457 OFFCURVE",
"147 436 CURVE SMOOTH",
"86 392 OFFCURVE",
"48 315 OFFCURVE",
"48 228 CURVE SMOOTH",
"48 185 OFFCURVE",
"57 145 OFFCURVE",
"75 108 CURVE SMOOTH",
"110 35 OFFCURVE",
"175 -12 OFFCURVE",
"248 -12 CURVE SMOOTH"
);
},
{
closed = 1;
nodes = (
"168 12 OFFCURVE",
"136 91 OFFCURVE",
"136 228 CURVE SMOOTH",
"136 365 OFFCURVE",
"168 444 OFFCURVE",
"248 444 CURVE SMOOTH",
"328 444 OFFCURVE",
"360 365 OFFCURVE",
"360 228 CURVE SMOOTH",
"360 91 OFFCURVE",
"328 12 OFFCURVE",
"248 12 CURVE SMOOTH"
);
}
);
width = 500;
},
{
layerId = "6701A4D5-8A3D-41DD-8AA0-CFF5D98C5FFE";
paths = (
{
closed = 1;
nodes = (
"293 -12 OFFCURVE",
"328 -2 OFFCURVE",
"359 17 CURVE SMOOTH",
"422 56 OFFCURVE",
"462 134 OFFCURVE",
"462 243 CURVE SMOOTH",
"462 294 OFFCURVE",
"456 343 OFFCURVE",
"444 392 CURVE SMOOTH",
"420 489 OFFCURVE",
"353 585 OFFCURVE",
"312 638 CURVE",
"404 692 LINE",
"390 716 LINE",
"294 660 LINE",
"276 681 OFFCURVE",
"260 698 OFFCURVE",
"247 712 CURVE",
"127 712 LINE",
"160 679 OFFCURVE",
"179 650 OFFCURVE",
"205 608 CURVE",
"114 554 LINE",
"128 530 LINE",
"222 585 LINE",
"247 551 OFFCURVE",
"269 518 OFFCURVE",
"287 486 CURVE",
"282 481 LINE",
"270 484 OFFCURVE",
"257 486 OFFCURVE",
"242 486 CURVE SMOOTH",
"207 486 OFFCURVE",
"175 475 OFFCURVE",
"146 453 CURVE SMOOTH",
"86 409 OFFCURVE",
"48 329 OFFCURVE",
"48 237 CURVE SMOOTH",
"48 191 OFFCURVE",
"57 149 OFFCURVE",
"76 111 CURVE SMOOTH",
"112 35 OFFCURVE",
"179 -12 OFFCURVE",
"255 -12 CURVE SMOOTH"
);
},
{
closed = 1;
nodes = (
"188 12 OFFCURVE",
"176 128 OFFCURVE",
"176 237 CURVE SMOOTH",
"176 346 OFFCURVE",
"187 462 OFFCURVE",
"255 462 CURVE SMOOTH",
"322 462 OFFCURVE",
"334 350 OFFCURVE",
"334 237 CURVE SMOOTH",
"334 128 OFFCURVE",
"322 12 OFFCURVE",
"255 12 CURVE SMOOTH"
);
}
);
width = 510;
}
);
note = eth;
unicode = 00F0;
},
{
glyphname = e;
lastChange = "2017-06-04 13:45:14 +0000";
layers = (
{
layerId = "9ECE4C5B-AE6E-45F8-855F-54F501A6946D";
paths = (
{
closed = 1;
nodes = (
"349 -12 OFFCURVE",
"412 59 OFFCURVE",
"420 156 CURVE",
"396 156 LINE",
"381 57 OFFCURVE",
"319 12 OFFCURVE",
"258 12 CURVE SMOOTH",
"171 12 OFFCURVE",
"136 97 OFFCURVE",
"136 230 CURVE",
"416 230 LINE",
"416 276 OFFCURVE",
"412 312 OFFCURVE",
"399 352 CURVE SMOOTH",
"375 419 OFFCURVE",
"323 468 OFFCURVE",
"242 468 CURVE SMOOTH",
"205 468 OFFCURVE",
"172 457 OFFCURVE",
"143 435 CURVE SMOOTH",
"83 390 OFFCURVE",
"48 311 OFFCURVE",
"48 226 CURVE SMOOTH",
"48 77 OFFCURVE",
"130 -12 OFFCURVE",
"254 -12 CURVE SMOOTH"
);
},
{
closed = 1;
nodes = (
"136 359 OFFCURVE",
"172 444 OFFCURVE",
"240 444 CURVE SMOOTH",
"304 444 OFFCURVE",
"330 361 OFFCURVE",
"330 254 CURVE",
"136 254 LINE"
);
}
);
width = 460;
},
{
layerId = "6701A4D5-8A3D-41DD-8AA0-CFF5D98C5FFE";
paths = (
{
closed = 1;
nodes = (
"364 -12 OFFCURVE",
"414 70 OFFCURVE",
"422 162 CURVE",
"396 162 LINE",
"388 85 OFFCURVE",
"346 18 OFFCURVE",
"281 18 CURVE SMOOTH",
"186 18 OFFCURVE",
"176 122 OFFCURVE",
"176 228 CURVE",
"420 228 LINE",
"420 273 OFFCURVE",
"418 307 OFFCURVE",
"413 328 CURVE",
"394 423 OFFCURVE",
"331 486 OFFCURVE",
"250 486 CURVE SMOOTH",
"213 486 OFFCURVE",
"180 475 OFFCURVE",
"149 454 CURVE SMOOTH",
"87 410 OFFCURVE",
"48 330 OFFCURVE",
"48 237 CURVE SMOOTH",
"48 116 OFFCURVE",
"122 -12 OFFCURVE",
"261 -12 CURVE SMOOTH"
);
},
{
closed = 1;
nodes = (
"176 353 OFFCURVE",
"180 462 OFFCURVE",
"240 462 CURVE SMOOTH",
"301 462 OFFCURVE",
"304 358 OFFCURVE",
"304 256 CURVE",
"176 256 LINE"
);
}
);
width = 472;
}
);
leftKerningGroup = c;
note = e;
unicode = 0065;
},
{
glyphname = eacute;
lastChange = "2017-06-04 13:45:49 +0000";
layers = (
{
layerId = "9ECE4C5B-AE6E-45F8-855F-54F501A6946D";
paths = (
{
closed = 1;
nodes = (
"356 609 LINE SMOOTH",
"375 623 OFFCURVE",
"384 638 OFFCURVE",
"384 653 CURVE SMOOTH",
"384 672 OFFCURVE",
"373 684 OFFCURVE",
"356 684 CURVE SMOOTH",
"337 684 OFFCURVE",
"324 676 OFFCURVE",
"307 652 CURVE SMOOTH",
"215 519 LINE",
"228 508 LINE"
);
},
{
closed = 1;
nodes = (
"349 -12 OFFCURVE",
"412 59 OFFCURVE",
"420 156 CURVE",
"396 156 LINE",
"381 57 OFFCURVE",
"319 12 OFFCURVE",
"258 12 CURVE SMOOTH",
"171 12 OFFCURVE",
"136 97 OFFCURVE",
"136 230 CURVE",
"416 230 LINE",
"416 265 OFFCURVE",
"410 318 OFFCURVE",
"399 352 CURVE SMOOTH",
"375 419 OFFCURVE",
"323 468 OFFCURVE",
"242 468 CURVE SMOOTH",
"205 468 OFFCURVE",
"172 457 OFFCURVE",
"143 435 CURVE SMOOTH",
"83 390 OFFCURVE",
"48 311 OFFCURVE",
"48 226 CURVE SMOOTH",
"48 77 OFFCURVE",
"130 -12 OFFCURVE",
"254 -12 CURVE SMOOTH"
);
},
{
closed = 1;
nodes = (
"136 359 OFFCURVE",
"172 444 OFFCURVE",
"240 444 CURVE SMOOTH",
"304 444 OFFCURVE",
"330 361 OFFCURVE",
"330 254 CURVE",
"136 254 LINE"
);
}
);
width = 460;
},
{
layerId = "6701A4D5-8A3D-41DD-8AA0-CFF5D98C5FFE";
paths = (
{
closed = 1;
nodes = (
"348 624 LINE SMOOTH",
"367 638 OFFCURVE",
"376 654 OFFCURVE",
"376 672 CURVE SMOOTH",
"376 696 OFFCURVE",
"358 712 OFFCURVE",
"334 712 CURVE SMOOTH",
"315 712 OFFCURVE",
"300 704 OFFCURVE",
"285 680 CURVE SMOOTH",
"196 542 LINE",
"216 524 LINE"
);
},
{
closed = 1;
nodes = (
"364 -12 OFFCURVE",
"414 70 OFFCURVE",
"422 162 CURVE",
"396 162 LINE",
"388 85 OFFCURVE",
"346 18 OFFCURVE",
"281 18 CURVE SMOOTH",
"186 18 OFFCURVE",
"176 122 OFFCURVE",
"176 228 CURVE",
"420 228 LINE",
"420 273 OFFCURVE",
"418 307 OFFCURVE",
"413 328 CURVE",
"394 423 OFFCURVE",
"331 486 OFFCURVE",
"250 486 CURVE SMOOTH",
"213 486 OFFCURVE",
"180 475 OFFCURVE",
"149 454 CURVE SMOOTH",
"87 410 OFFCURVE",
"48 330 OFFCURVE",
"48 237 CURVE SMOOTH",
"48 103 OFFCURVE",
"133 -12 OFFCURVE",
"261 -12 CURVE SMOOTH"
);
},
{
closed = 1;
nodes = (
"176 353 OFFCURVE",
"180 462 OFFCURVE",
"240 462 CURVE SMOOTH",
"301 462 OFFCURVE",
"304 358 OFFCURVE",
"304 256 CURVE",
"176 256 LINE"
);
}
);
width = 472;
}
);
leftKerningGroup = c;
note = eacute;
unicode = 00E9;
},
{
glyphname = ecircumflex;
lastChange = "2017-06-04 13:46:10 +0000";
layers = (
{
layerId = "9ECE4C5B-AE6E-45F8-855F-54F501A6946D";
paths = (
{
closed = 1;
nodes = (
"163 531 OFFCURVE",
"204 562 OFFCURVE",
"240 600 CURVE",
"275 563 OFFCURVE",
"316 532 OFFCURVE",
"362 508 CURVE",
"371 521 LINE",
"321 554 OFFCURVE",
"284 604 OFFCURVE",
"260 672 CURVE",
"220 672 LINE",
"196 604 OFFCURVE",
"159 554 OFFCURVE",
"109 521 CURVE",
"118 508 LINE"
);
},
{
closed = 1;
nodes = (
"349 -12 OFFCURVE",
"412 59 OFFCURVE",
"420 156 CURVE",
"396 156 LINE",
"381 57 OFFCURVE",
"319 12 OFFCURVE",
"258 12 CURVE SMOOTH",
"171 12 OFFCURVE",
"136 97 OFFCURVE",
"136 230 CURVE",
"416 230 LINE",
"416 265 OFFCURVE",
"410 318 OFFCURVE",
"399 352 CURVE SMOOTH",
"375 419 OFFCURVE",
"323 468 OFFCURVE",
"242 468 CURVE SMOOTH",
"205 468 OFFCURVE",
"172 457 OFFCURVE",
"143 435 CURVE SMOOTH",
"83 390 OFFCURVE",
"48 311 OFFCURVE",
"48 226 CURVE SMOOTH",
"48 77 OFFCURVE",
"130 -12 OFFCURVE",
"254 -12 CURVE SMOOTH"
);
},
{
closed = 1;
nodes = (
"136 359 OFFCURVE",
"172 444 OFFCURVE",
"240 444 CURVE SMOOTH",
"304 444 OFFCURVE",
"330 361 OFFCURVE",
"330 254 CURVE",
"136 254 LINE"
);
}
);
width = 460;
},
{
layerId = "6701A4D5-8A3D-41DD-8AA0-CFF5D98C5FFE";
paths = (
{
closed = 1;
nodes = (
"153 547 OFFCURVE",
"208 587 OFFCURVE",
"240 620 CURVE",
"272 587 OFFCURVE",
"327 547 OFFCURVE",
"374 524 CURVE",
"390 548 LINE",
"323 591 OFFCURVE",
"297 643 OFFCURVE",
"274 708 CURVE",
"206 708 LINE",
"183 643 OFFCURVE",
"157 591 OFFCURVE",
"90 548 CURVE",
"106 524 LINE"
);
},
{
closed = 1;
nodes = (
"364 -12 OFFCURVE",
"414 70 OFFCURVE",
"422 162 CURVE",
"396 162 LINE",
"388 85 OFFCURVE",
"346 18 OFFCURVE",
"281 18 CURVE SMOOTH",
"186 18 OFFCURVE",
"176 122 OFFCURVE",
"176 228 CURVE",
"420 228 LINE",
"420 273 OFFCURVE",
"418 307 OFFCURVE",
"413 328 CURVE",
"394 423 OFFCURVE",
"331 486 OFFCURVE",
"250 486 CURVE SMOOTH",
"213 486 OFFCURVE",
"180 475 OFFCURVE",
"149 454 CURVE SMOOTH",
"87 410 OFFCURVE",
"48 330 OFFCURVE",
"48 237 CURVE SMOOTH",
"48 116 OFFCURVE",
"122 -12 OFFCURVE",
"261 -12 CURVE SMOOTH"
);
},
{
closed = 1;
nodes = (
"176 353 OFFCURVE",
"180 462 OFFCURVE",
"240 462 CURVE SMOOTH",
"301 462 OFFCURVE",
"304 358 OFFCURVE",
"304 256 CURVE",
"176 256 LINE"
);
}
);
width = 472;
}
);
leftKerningGroup = cacute;
note = ecircumflex;
unicode = 00EA;
},
{
glyphname = edieresis;
lastChange = "2017-06-04 13:46:32 +0000";
layers = (
{
layerId = "9ECE4C5B-AE6E-45F8-855F-54F501A6946D";
paths = (
{
closed = 1;
nodes = (
"173 548 OFFCURVE",
"194 571 OFFCURVE",
"194 596 CURVE SMOOTH",
"194 623 OFFCURVE",
"173 644 OFFCURVE",
"146 644 CURVE SMOOTH",
"121 644 OFFCURVE",
"98 623 OFFCURVE",
"98 596 CURVE SMOOTH",
"98 571 OFFCURVE",
"121 548 OFFCURVE",
"146 548 CURVE SMOOTH"
);
},
{
closed = 1;
nodes = (
"361 548 OFFCURVE",
"382 571 OFFCURVE",
"382 596 CURVE SMOOTH",
"382 623 OFFCURVE",
"361 644 OFFCURVE",
"334 644 CURVE SMOOTH",
"309 644 OFFCURVE",
"286 623 OFFCURVE",
"286 596 CURVE SMOOTH",
"286 571 OFFCURVE",
"309 548 OFFCURVE",
"334 548 CURVE SMOOTH"
);
},
{
closed = 1;
nodes = (
"349 -12 OFFCURVE",
"412 59 OFFCURVE",
"420 156 CURVE",
"396 156 LINE",
"381 57 OFFCURVE",
"319 12 OFFCURVE",
"258 12 CURVE SMOOTH",
"171 12 OFFCURVE",
"136 97 OFFCURVE",
"136 230 CURVE",
"416 230 LINE",
"416 265 OFFCURVE",
"410 318 OFFCURVE",
"399 352 CURVE SMOOTH",
"375 419 OFFCURVE",
"323 468 OFFCURVE",
"242 468 CURVE SMOOTH",
"205 468 OFFCURVE",
"172 457 OFFCURVE",
"143 435 CURVE SMOOTH",
"83 390 OFFCURVE",
"48 311 OFFCURVE",
"48 226 CURVE SMOOTH",
"48 77 OFFCURVE",
"130 -12 OFFCURVE",
"254 -12 CURVE SMOOTH"
);
},
{
closed = 1;
nodes = (
"136 359 OFFCURVE",
"172 444 OFFCURVE",
"240 444 CURVE SMOOTH",
"304 444 OFFCURVE",
"330 361 OFFCURVE",
"330 254 CURVE",
"136 254 LINE"
);
}
);
width = 460;
},
{
layerId = "6701A4D5-8A3D-41DD-8AA0-CFF5D98C5FFE";
paths = (
{
closed = 1;
nodes = (
"177 558 OFFCURVE",
"204 585 OFFCURVE",
"204 618 CURVE SMOOTH",
"204 651 OFFCURVE",
"177 678 OFFCURVE",
"144 678 CURVE SMOOTH",
"111 678 OFFCURVE",
"84 651 OFFCURVE",
"84 618 CURVE SMOOTH",
"84 585 OFFCURVE",
"111 558 OFFCURVE",
"144 558 CURVE SMOOTH"
);
},
{
closed = 1;
nodes = (
"369 558 OFFCURVE",
"396 585 OFFCURVE",
"396 618 CURVE SMOOTH",
"396 651 OFFCURVE",
"369 678 OFFCURVE",
"336 678 CURVE SMOOTH",
"303 678 OFFCURVE",
"276 651 OFFCURVE",
"276 618 CURVE SMOOTH",
"276 585 OFFCURVE",
"303 558 OFFCURVE",
"336 558 CURVE SMOOTH"
);
},
{
closed = 1;
nodes = (
"364 -12 OFFCURVE",
"414 70 OFFCURVE",
"422 162 CURVE",
"396 162 LINE",
"388 85 OFFCURVE",
"346 18 OFFCURVE",
"281 18 CURVE SMOOTH",
"186 18 OFFCURVE",
"176 122 OFFCURVE",
"176 228 CURVE",
"420 228 LINE",
"420 273 OFFCURVE",
"418 307 OFFCURVE",
"413 328 CURVE",
"394 423 OFFCURVE",
"331 486 OFFCURVE",
"250 486 CURVE SMOOTH",
"213 486 OFFCURVE",
"180 475 OFFCURVE",
"149 454 CURVE SMOOTH",
"87 410 OFFCURVE",
"48 330 OFFCURVE",
"48 237 CURVE SMOOTH",
"48 116 OFFCURVE",
"122 -12 OFFCURVE",
"261 -12 CURVE SMOOTH"
);
},
{
closed = 1;
nodes = (
"176 353 OFFCURVE",
"180 462 OFFCURVE",
"240 462 CURVE SMOOTH",
"301 462 OFFCURVE",
"304 358 OFFCURVE",
"304 256 CURVE",
"176 256 LINE"
);
}
);
width = 472;
}
);
leftKerningGroup = cacute;
note = edieresis;
unicode = 00EB;
},
{
glyphname = egrave;
lastChange = "2017-06-04 13:46:56 +0000";
layers = (
{
layerId = "9ECE4C5B-AE6E-45F8-855F-54F501A6946D";
paths = (
{
closed = 1;
nodes = (
"265 519 LINE",
"173 652 LINE SMOOTH",
"156 676 OFFCURVE",
"143 684 OFFCURVE",
"124 684 CURVE SMOOTH",
"107 684 OFFCURVE",
"96 672 OFFCURVE",
"96 653 CURVE SMOOTH",
"96 638 OFFCURVE",
"105 623 OFFCURVE",
"124 609 CURVE SMOOTH",
"252 508 LINE"
);
},
{
closed = 1;
nodes = (
"349 -12 OFFCURVE",
"412 59 OFFCURVE",
"420 156 CURVE",
"396 156 LINE",
"381 57 OFFCURVE",
"319 12 OFFCURVE",
"258 12 CURVE SMOOTH",
"171 12 OFFCURVE",
"136 97 OFFCURVE",
"136 230 CURVE",
"416 230 LINE",
"416 265 OFFCURVE",
"410 318 OFFCURVE",
"399 352 CURVE SMOOTH",
"375 419 OFFCURVE",
"323 468 OFFCURVE",
"242 468 CURVE SMOOTH",
"205 468 OFFCURVE",
"172 457 OFFCURVE",
"143 435 CURVE SMOOTH",
"83 390 OFFCURVE",
"48 311 OFFCURVE",
"48 226 CURVE SMOOTH",
"48 77 OFFCURVE",
"130 -12 OFFCURVE",
"254 -12 CURVE SMOOTH"
);
},
{
closed = 1;
nodes = (
"136 359 OFFCURVE",
"172 444 OFFCURVE",
"240 444 CURVE SMOOTH",
"304 444 OFFCURVE",
"330 361 OFFCURVE",
"330 254 CURVE",
"136 254 LINE"
);
}
);
width = 460;
},
{
layerId = "6701A4D5-8A3D-41DD-8AA0-CFF5D98C5FFE";
paths = (
{
closed = 1;
nodes = (
"284 542 LINE",
"195 680 LINE SMOOTH",
"180 704 OFFCURVE",
"165 712 OFFCURVE",
"146 712 CURVE SMOOTH",
"122 712 OFFCURVE",
"104 696 OFFCURVE",
"104 672 CURVE SMOOTH",
"104 654 OFFCURVE",
"113 638 OFFCURVE",
"132 624 CURVE SMOOTH",
"264 524 LINE"
);
},
{
closed = 1;
nodes = (
"364 -12 OFFCURVE",
"414 70 OFFCURVE",
"422 162 CURVE",
"396 162 LINE",
"388 85 OFFCURVE",
"346 18 OFFCURVE",
"281 18 CURVE SMOOTH",
"186 18 OFFCURVE",
"176 122 OFFCURVE",
"176 228 CURVE",
"420 228 LINE",
"420 273 OFFCURVE",
"418 307 OFFCURVE",
"413 328 CURVE",
"394 423 OFFCURVE",
"331 486 OFFCURVE",
"250 486 CURVE SMOOTH",
"213 486 OFFCURVE",
"180 475 OFFCURVE",
"149 454 CURVE SMOOTH",
"87 410 OFFCURVE",
"48 330 OFFCURVE",
"48 237 CURVE SMOOTH",
"48 116 OFFCURVE",
"122 -12 OFFCURVE",
"261 -12 CURVE SMOOTH"
);
},
{
closed = 1;
nodes = (
"176 353 OFFCURVE",
"180 462 OFFCURVE",
"240 462 CURVE SMOOTH",
"301 462 OFFCURVE",
"304 358 OFFCURVE",
"304 256 CURVE",
"176 256 LINE"
);
}
);
width = 472;
}
);
leftKerningGroup = cacute;
note = egrave;
unicode = 00E8;
},
{
glyphname = f;
lastChange = "2017-06-04 12:55:10 +0000";
layers = (
{
layerId = "9ECE4C5B-AE6E-45F8-855F-54F501A6946D";
paths = (
{
closed = 1;
nodes = (
"268 0 LINE",
"268 24 LINE",
"196 24 LINE SMOOTH",
"180 24 OFFCURVE",
"174 30 OFFCURVE",
"174 46 CURVE SMOOTH",
"174 428 LINE",
"268 428 LINE",
"268 456 LINE",
"174 456 LINE",
"174 553 LINE SMOOTH",
"174 606 OFFCURVE",
"182 643 OFFCURVE",
"197 664 CURVE SMOOTH",
"212 685 OFFCURVE",
"231 696 OFFCURVE",
"253 696 CURVE SMOOTH",
"280 696 OFFCURVE",
"304 687 OFFCURVE",
"304 664 CURVE SMOOTH",
"304 654 OFFCURVE",
"299 646 OFFCURVE",
"288 640 CURVE",
"277 632 OFFCURVE",
"270 617 OFFCURVE",
"270 604 CURVE SMOOTH",
"270 579 OFFCURVE",
"287 562 OFFCURVE",
"311 562 CURVE SMOOTH",
"340 562 OFFCURVE",
"358 583 OFFCURVE",
"358 618 CURVE SMOOTH",
"358 683 OFFCURVE",
"312 720 OFFCURVE",
"255 720 CURVE SMOOTH",
"230 720 OFFCURVE",
"205 713 OFFCURVE",
"182 700 CURVE SMOOTH",
"135 673 OFFCURVE",
"102 614 OFFCURVE",
"102 525 CURVE SMOOTH",
"102 456 LINE",
"28 456 LINE",
"28 428 LINE",
"102 428 LINE",
"102 46 LINE SMOOTH",
"102 30 OFFCURVE",
"96 24 OFFCURVE",
"80 24 CURVE SMOOTH",
"28 24 LINE",
"28 0 LINE"
);
}
);
width = 330;
},
{
layerId = "6701A4D5-8A3D-41DD-8AA0-CFF5D98C5FFE";
paths = (
{
closed = 1;
nodes = (
"290 0 LINE",
"290 24 LINE",
"234 24 LINE SMOOTH",
"222 24 OFFCURVE",
"218 28 OFFCURVE",
"218 40 CURVE SMOOTH",
"218 446 LINE",
"290 446 LINE",
"290 474 LINE",
"218 474 LINE",
"218 564 LINE SMOOTH",
"218 612 OFFCURVE",
"224 646 OFFCURVE",
"237 666 CURVE SMOOTH",
"250 686 OFFCURVE",
"264 696 OFFCURVE",
"281 696 CURVE SMOOTH",
"300 696 OFFCURVE",
"318 689 OFFCURVE",
"318 670 CURVE SMOOTH",
"318 659 OFFCURVE",
"312 648 OFFCURVE",
"301 638 CURVE SMOOTH",
"282 621 OFFCURVE",
"273 603 OFFCURVE",
"273 584 CURVE SMOOTH",
"273 551 OFFCURVE",
"301 529 OFFCURVE",
"332 529 CURVE SMOOTH",
"373 529 OFFCURVE",
"406 563 OFFCURVE",
"406 603 CURVE SMOOTH",
"406 671 OFFCURVE",
"358 720 OFFCURVE",
"285 720 CURVE SMOOTH",
"256 720 OFFCURVE",
"228 713 OFFCURVE",
"200 698 CURVE SMOOTH",
"143 668 OFFCURVE",
"102 606 OFFCURVE",
"102 522 CURVE SMOOTH",
"102 474 LINE",
"30 474 LINE",
"30 446 LINE",
"102 446 LINE",
"102 40 LINE SMOOTH",
"102 28 OFFCURVE",
"98 24 OFFCURVE",
"86 24 CURVE SMOOTH",
"30 24 LINE",
"30 0 LINE"
);
}
);
width = 350;
}
);
note = f;
unicode = 0066;
},
{
glyphname = g;
lastChange = "2017-06-04 13:47:55 +0000";
layers = (
{
layerId = "9ECE4C5B-AE6E-45F8-855F-54F501A6946D";
paths = (
{
closed = 1;
nodes = (
"397 -238 OFFCURVE",
"484 -187 OFFCURVE",
"484 -94 CURVE SMOOTH",
"484 -5 OFFCURVE",
"419 42 OFFCURVE",
"334 42 CURVE SMOOTH",
"208 42 OFFCURVE",
"186 40 OFFCURVE",
"166 40 CURVE SMOOTH",
"126 40 OFFCURVE",
"102 48 OFFCURVE",
"102 73 CURVE SMOOTH",
"102 121 OFFCURVE",
"172 140 OFFCURVE",
"248 140 CURVE SMOOTH",
"281 140 OFFCURVE",
"311 147 OFFCURVE",
"338 160 CURVE SMOOTH",
"392 186 OFFCURVE",
"426 237 OFFCURVE",
"426 304 CURVE SMOOTH",
"426 339 OFFCURVE",
"417 370 OFFCURVE",
"398 396 CURVE",
"401 421 OFFCURVE",
"423 444 OFFCURVE",
"447 444 CURVE SMOOTH",
"462 444 OFFCURVE",
"474 439 OFFCURVE",
"474 428 CURVE SMOOTH",
"474 419 OFFCURVE",
"471 415 OFFCURVE",
"463 410 CURVE SMOOTH",
"452 403 OFFCURVE",
"446 393 OFFCURVE",
"446 378 CURVE SMOOTH",
"446 353 OFFCURVE",
"465 342 OFFCURVE",
"486 342 CURVE SMOOTH",
"511 342 OFFCURVE",
"528 364 OFFCURVE",
"528 396 CURVE SMOOTH",
"528 439 OFFCURVE",
"495 468 OFFCURVE",
"450 468 CURVE SMOOTH",
"423 468 OFFCURVE",
"393 451 OFFCURVE",
"381 416 CURVE",
"364 437 OFFCURVE",
"302 468 OFFCURVE",
"248 468 CURVE SMOOTH",
"217 468 OFFCURVE",
"188 462 OFFCURVE",
"161 449 CURVE SMOOTH",
"107 423 OFFCURVE",
"70 372 OFFCURVE",
"70 304 CURVE SMOOTH",
"70 224 OFFCURVE",
"115 177 OFFCURVE",
"171 153 CURVE",
"171 150 LINE",
"110 139 OFFCURVE",
"62 109 OFFCURVE",
"62 54 CURVE SMOOTH",
"62 17 OFFCURVE",
"91 -7 OFFCURVE",
"150 -20 CURVE",
"150 -23 LINE",
"97 -31 OFFCURVE",
"52 -73 OFFCURVE",
"52 -122 CURVE SMOOTH",
"52 -202 OFFCURVE",
"151 -238 OFFCURVE",
"268 -238 CURVE SMOOTH"
);
},
{
closed = 1;
nodes = (
"187 164 OFFCURVE",
"150 216 OFFCURVE",
"150 304 CURVE SMOOTH",
"150 392 OFFCURVE",
"187 444 OFFCURVE",
"248 444 CURVE SMOOTH",
"309 444 OFFCURVE",
"346 392 OFFCURVE",
"346 304 CURVE SMOOTH",
"346 216 OFFCURVE",
"309 164 OFFCURVE",
"248 164 CURVE SMOOTH"
);
},
{
closed = 1;
nodes = (
"180 -214 OFFCURVE",
"96 -183 OFFCURVE",
"96 -120 CURVE SMOOTH",
"96 -52 OFFCURVE",
"169 -26 OFFCURVE",
"254 -26 CURVE SMOOTH",
"291 -26 OFFCURVE",
"328 -26 OFFCURVE",
"365 -26 CURVE SMOOTH",
"426 -26 OFFCURVE",
"448 -61 OFFCURVE",
"448 -102 CURVE SMOOTH",
"448 -183 OFFCURVE",
"364 -214 OFFCURVE",
"268 -214 CURVE SMOOTH"
);
}
);
width = 540;
},
{
layerId = "6701A4D5-8A3D-41DD-8AA0-CFF5D98C5FFE";
paths = (
{
closed = 1;
nodes = (
"388 -238 OFFCURVE",
"489 -164 OFFCURVE",
"489 -51 CURVE SMOOTH",
"489 40 OFFCURVE",
"419 85 OFFCURVE",
"324 85 CURVE SMOOTH",
"271 85 OFFCURVE",
"219 85 OFFCURVE",
"166 85 CURVE SMOOTH",
"133 85 OFFCURVE",
"117 97 OFFCURVE",
"117 120 CURVE SMOOTH",
"117 168 OFFCURVE",
"182 173 OFFCURVE",
"252 173 CURVE SMOOTH",
"289 173 OFFCURVE",
"321 180 OFFCURVE",
"350 195 CURVE SMOOTH",
"406 224 OFFCURVE",
"438 274 OFFCURVE",
"438 322 CURVE SMOOTH",
"438 363 OFFCURVE",
"427 396 OFFCURVE",
"406 419 CURVE",
"422 447 OFFCURVE",
"439 461 OFFCURVE",
"457 461 CURVE SMOOTH",
"471 461 OFFCURVE",
"478 456 OFFCURVE",
"478 445 CURVE SMOOTH",
"478 437 OFFCURVE",
"470 425 OFFCURVE",
"462 417 CURVE",
"451 404 OFFCURVE",
"446 392 OFFCURVE",
"446 381 CURVE SMOOTH",
"446 360 OFFCURVE",
"465 346 OFFCURVE",
"486 346 CURVE SMOOTH",
"517 346 OFFCURVE",
"542 380 OFFCURVE",
"542 420 CURVE SMOOTH",
"542 456 OFFCURVE",
"513 486 OFFCURVE",
"470 486 CURVE SMOOTH",
"441 486 OFFCURVE",
"417 469 OFFCURVE",
"396 434 CURVE",
"359 465 OFFCURVE",
"312 486 OFFCURVE",
"254 486 CURVE SMOOTH",
"222 486 OFFCURVE",
"192 480 OFFCURVE",
"165 467 CURVE SMOOTH",
"109 441 OFFCURVE",
"72 390 OFFCURVE",
"72 330 CURVE SMOOTH",
"72 259 OFFCURVE",
"118 213 OFFCURVE",
"170 190 CURVE",
"170 186 LINE",
"95 171 OFFCURVE",
"58 132 OFFCURVE",
"58 69 CURVE SMOOTH",
"58 24 OFFCURVE",
"96 -10 OFFCURVE",
"136 -13 CURVE",
"136 -16 LINE",
"77 -29 OFFCURVE",
"42 -70 OFFCURVE",
"42 -114 CURVE SMOOTH",
"42 -191 OFFCURVE",
"140 -238 OFFCURVE",
"264 -238 CURVE SMOOTH"
);
},
{
closed = 1;
nodes = (
"206 198 OFFCURVE",
"194 256 OFFCURVE",
"194 330 CURVE SMOOTH",
"194 401 OFFCURVE",
"203 462 OFFCURVE",
"256 462 CURVE SMOOTH",
"306 462 OFFCURVE",
"316 404 OFFCURVE",
"316 330 CURVE SMOOTH",
"316 261 OFFCURVE",
"307 198 OFFCURVE",
"256 198 CURVE SMOOTH"
);
},
{
closed = 1;
nodes = (
"158 -206 OFFCURVE",
"78 -174 OFFCURVE",
"78 -115 CURVE SMOOTH",
"78 -47 OFFCURVE",
"170 -27 OFFCURVE",
"273 -27 CURVE SMOOTH",
"294 -27 OFFCURVE",
"313 -28 OFFCURVE",
"330 -31 CURVE SMOOTH",
"386 -38 OFFCURVE",
"422 -59 OFFCURVE",
"422 -98 CURVE SMOOTH",
"422 -167 OFFCURVE",
"341 -206 OFFCURVE",
"249 -206 CURVE SMOOTH"
);
}
);
width = 554;
}
);
leftKerningGroup = g;
note = g;
unicode = 0067;
},
